<svg id="Layer_1" data-name="Layer 1" xmlns="http://www.w3.org/2000/svg" viewBox="0 0 177.40131 183.08493"><defs><style>.cls-1,.cls-2{fill:#fff;}.cls-2{stroke:#ef446d;stroke-miterlimit:10;stroke-width:8px;}</style></defs><rect class="cls-1" y="16.08913" width="98.70213" height="27.20401" rx="12.49999"/><rect class="cls-1" y="79.7466" width="132.40426" height="27.20388"/><rect class="cls-1" y="139.36409" width="88.08899" height="27.20388" rx="12.49992"/><path class="cls-2" d="M319.78723,229.06383a59.07246,59.07246,0,0,1,34.68756,7.09642c1.42456.78306,7.6106,4.42244,10.07337,9.53551a17.6925,17.6925,0,0,1,1.52743,4.94338,27.39909,27.39909,0,0,1-3.7294,18.365q-5.206,9.038-16.79,10.86759-11.58362,1.83188-13.07489-7.6081a25.68308,25.68308,0,0,1-.09945-3.58386,14.68737,14.68737,0,0,0,9.9443-6.29834q3.8085-5.3265,2.94357-10.81572-.86727-5.48429-6.87222-8.13731a24.1174,24.1174,0,0,0-13.72717-1.43033Q311.49266,244.082,304.08267,253.129q-7.41993,9.054-5.78445,19.366.868,5.48872,5.99688,11.42672a62.195,62.195,0,0,0,9.48526,9.18744q4.355,3.25044,14.06806,9.47592t11.54715,7.511q19.89624,13.956,23.00436,33.60031,3.10716,19.64827-12.98047,37.15314-16.08517,17.51055-41.74969,21.56531-20.8986,3.30491-34.76819-1.25235-13.87257-4.556-16.09256-18.60419A21.89425,21.89425,0,0,1,259.8114,367.682q4.21477-7.18978,13.86835-8.71793,9.64764-1.52568,14.09906,4.521-6.97976,7.405-5.60416,16.07358,1.37192,8.67525,8.13352,12.43927,6.76277,3.77147,16.53305,2.22259a34.87022,34.87022,0,0,0,22.46637-13.22708,31.25867,31.25867,0,0,0,6.565-25.45114q-2.27349-14.37617-24.96219-31.26581-.30024-.40114-9.25223-6.9751a94.499,94.499,0,0,1-15.34628-13.88507q-6.39427-7.31112-8.1651-18.50894c-1.08228-6.84375-.05133-12.141.97742-17.33716.9628-4.86313,2.07452-10.47842,5.9396-16.549a41.00942,41.00942,0,0,1,10.21274-10.7234A52.58891,52.58891,0,0,1,319.78723,229.06383Z" transform="translate(-193 -224.71938)"/><rect class="cls-1" y="16.08913" width="23.12766" height="150.47883" rx="11.56382"/></svg>