<svg xmlns="http://www.w3.org/2000/svg" viewBox="0 0 669.26158 436.91708"><defs><style>.cls-1{fill:#e0e0e0;}.cls-2{fill:#ebebeb;}.cls-3{fill:#f5f5f5;}.cls-4{fill:#fafafa;}.cls-5{fill:#fff;}.cls-6{fill:none;stroke:#fbfbfb;stroke-miterlimit:10;stroke-width:0.25px;}.cls-7{fill:#263238;}.cls-8{fill:#e8505b;}.cls-9{opacity:0.2;}.cls-10{fill:#455a64;}.cls-11{fill:#b78876;}.cls-12{fill:#aa6550;}.cls-13{opacity:0.4;}.cls-14{fill:#ffbe9d;}.cls-15{opacity:0.5;}.cls-16{fill:#eb996e;}</style></defs><g id="Background_Complete" data-name="Background Complete"><path class="cls-1" d="M201.7525,309.0019a4.22644,4.22644,0,0,0,1.8019-1.2096,3.86819,3.86819,0,0,0,.8782-2.4285,6.26251,6.26251,0,0,0-.2886-1.6615q-.225-.8952-.4781-1.9013c-1.3415-5.4158-3.2668-13.1873-5.6417-22.775q-.8868-3.60885-1.8552-7.55-.48285-1.9695-.9852-4.0167a11.7537,11.7537,0,0,0-.5711-1.9794,3.51569,3.51569,0,0,0-1.3197-1.4588,3.31344,3.31344,0,0,0-1.9269-.476,17.33141,17.33141,0,0,0-2.1228.4892q-2.1849.5676-4.4372,1.1527-4.5051,1.16895-9.263,2.4033c-12.6843,3.2784-26.6228,6.8809-41.2545,10.6627a3.47232,3.47232,0,0,0-2.4752,3.9317q.64905,2.70885,1.2893,5.3808,1.29855,5.3664,2.557,10.5671c1.6725,6.928,3.286,13.6111,4.8232,19.979q.2877,1.1937.5718,2.3727a3.64746,3.64746,0,0,0,1.0322,1.929,3.32525,3.32525,0,0,0,1.9205.913,5.76748,5.76748,0,0,0,2.1842-.3335q4.5084-1.1523,8.7459-2.2355c5.6415-1.4375,10.8985-2.7772,15.7014-4.0011,9.5768-2.4182,17.3389-4.3781,22.7479-5.744,2.66-.6554,4.7395-1.1678,6.1938-1.5261.6828-.1602,1.2178-.2857,1.6154-.3791a3.27813,3.27813,0,0,1,.5565-.1051,3.26948,3.26948,0,0,1-.5379.177c-.3932.1104-.9222.2591-1.5973.4489-1.4464.3893-3.5146.9459-6.16,1.6579-5.3953,1.4189-13.1378,3.4552-22.6904,5.9675-4.7962,1.2501-10.0456,2.6184-15.6792,4.087q-4.2288,1.0989-8.7368,2.2707a6.33587,6.33587,0,0,1-2.4171.3576,3.97461,3.97461,0,0,1-2.2996-1.0829,4.31413,4.31413,0,0,1-1.2225-2.2453q-.2874-1.1781-.5787-2.3712c-1.5504-6.3646-3.1775-13.0444-4.8645-19.9689q-1.2624-5.195-2.5675-10.5645-.6468-2.69775-1.303-5.434a4.199,4.199,0,0,1,3.0094-4.7516c14.6367-3.7621,28.5801-7.3459,41.2689-10.6074q4.7574-1.218,9.2705-2.3736,2.2542-.57645,4.4416-1.1359a16.967,16.967,0,0,1,2.2387-.4982,3.9185,3.9185,0,0,1,2.2799.5727,4.11163,4.11163,0,0,1,1.5388,1.7149,11.97606,11.97606,0,0,1,.6033,2.0997q.49125,2.04915.9643,4.0218.9435,3.9426,1.8094,7.5611c2.2808,9.6104,4.1295,17.4005,5.4177,22.8292q.236,1.0098.446,1.9091a6.39926,6.39926,0,0,1,.2618,1.7238,3.99,3.99,0,0,1-.9829,2.5204,3.64,3.64,0,0,1-1.3656.9606A2.11806,2.11806,0,0,1,201.7525,309.0019Z" transform="translate(-42.6071 -35.47034)"/><polygon class="cls-1" points="126.76 253.5 135.605 256.171 128.973 262.768 122.342 269.366 120.129 260.097 117.916 250.828 126.76 253.5"/><rect class="cls-2" x="601.67295" y="308.21561" width="89.81263" height="71.80267" transform="translate(-92.25497 81.16255) rotate(-9.92823)"/><rect class="cls-3" x="604.7701" y="312.74585" width="83.50283" height="62.7624" transform="translate(-92.25731 81.15192) rotate(-9.92816)"/><polygon class="cls-1" points="568.199 346.766 590.201 303.31 612.205 324.237 622.026 309.272 650.451 332.369 568.199 346.766"/><path class="cls-1" d="M657.33449,329.6354a6.57481,6.57481,0,1,1-7.6099-5.3427A6.57468,6.57468,0,0,1,657.33449,329.6354Z" transform="translate(-42.6071 -35.47034)"/><rect class="cls-2" x="369.66692" y="335.36952" width="48.28634" height="60.39777" transform="translate(-121.4305 585.72322) rotate(-71.27699)"/><rect class="cls-3" x="372.66938" y="337.4785" width="42.20682" height="56.15451" transform="translate(-121.44371 585.67955) rotate(-71.27702)"/><polygon class="cls-1" points="317.8 341.059 344.797 322.508 351.035 341.953 361.656 336.288 370.983 359.085 317.8 341.059"/><path class="cls-1" d="M404.82669,360.4902a4.42149,4.42149,0,1,1-2.7682-5.6068A4.42131,4.42131,0,0,1,404.82669,360.4902Z" transform="translate(-42.6071 -35.47034)"/><circle class="cls-1" cx="584.51944" cy="75.71465" r="40.24284" transform="translate(75.05634 400.02362) rotate(-45)"/><path class="cls-4" d="M602.79159,76.9526a8.049,8.049,0,0,1-1.4219.0942c-1.0061.0203-2.3194.0467-3.9113.0788-3.319.046-7.9431.0774-13.1628.0854l-.2583.0004-.0002-.2588c-.0006-.8351-.0013-1.7158-.002-2.6096,0-5.8296.0291-11.1066.0763-14.9261.03361-1.8416.0615-3.3656.0827-4.5232a10.13082,10.13082,0,0,1,.1014-1.6585,10.1452,10.1452,0,0,1,.1014,1.6585c.0212,1.1575.049,2.6816.0827,4.5232.0471,3.8195.0763,9.0965.0763,14.9261-.0007.8938-.0014,1.7745-.002,2.6096l-.2583-.2583c5.2197.008,9.8438.0394,13.1628.0854,1.592.0321,2.9052.0586,3.9113.0788A8.05684,8.05684,0,0,1,602.79159,76.9526Z" transform="translate(-42.6071 -35.47034)"/><path class="cls-4" d="M584.419,42.0819a11.19909,11.19909,0,0,1,.26039,3.3803,11.19818,11.19818,0,0,1-.26039,3.3806,11.199,11.199,0,0,1-.26031-3.3806A11.19994,11.19994,0,0,1,584.419,42.0819Z" transform="translate(-42.6071 -35.47034)"/><path class="cls-4" d="M602.75529,47.5111a10.8817,10.8817,0,0,1-2.1718,2.5401,10.87836,10.87836,0,0,1-2.5403,2.172,10.88937,10.88937,0,0,1,2.1721-2.5402A10.89272,10.89272,0,0,1,602.75529,47.5111Z" transform="translate(-42.6071 -35.47034)"/><path class="cls-4" d="M613.47629,59.2233a14.01584,14.01584,0,0,1-2.773,1.8509,14.0206,14.0206,0,0,1-2.9202,1.6094,8.92994,8.92994,0,0,1,2.6497-2.0545A8.93231,8.93231,0,0,1,613.47629,59.2233Z" transform="translate(-42.6071 -35.47034)"/><path class="cls-4" d="M619.76,76.6034a40.93162,40.93162,0,0,1-9.21941,0,40.94725,40.94725,0,0,1,9.21941,0Z" transform="translate(-42.6071 -35.47034)"/><path class="cls-4" d="M555.83889,75.9888a36.52389,36.52389,0,0,1-8.7072,0,36.52389,36.52389,0,0,1,8.7072,0Z" transform="translate(-42.6071 -35.47034)"/><path class="cls-4" d="M560.35959,88.9284a19.0393,19.0393,0,0,1-3.2895,2.9841,19.027,19.027,0,0,1-3.6165,2.5787,19.18928,19.18928,0,0,1,3.2898-2.9843A19.19138,19.19138,0,0,1,560.35959,88.9284Z" transform="translate(-42.6071 -35.47034)"/><path class="cls-4" d="M571.51229,98.9352a29.58259,29.58259,0,0,1-2.239,3.881,29.586,29.586,0,0,1-2.3762,3.799,14.61525,14.61525,0,0,1,1.9298-4.0673A14.62094,14.62094,0,0,1,571.51229,98.9352Z" transform="translate(-42.6071 -35.47034)"/><path class="cls-4" d="M584.419,111.842a20.63188,20.63188,0,0,1-.26031-4.6095,20.63119,20.63119,0,0,1,.26031-4.6099,20.62955,20.62955,0,0,1,.26039,4.6099A20.63024,20.63024,0,0,1,584.419,111.842Z" transform="translate(-42.6071 -35.47034)"/><path class="cls-4" d="M604.289,105.7a13.50743,13.50743,0,0,1-3.80041-2.6037,13.50942,13.50942,0,0,1-3.0982-3.4099,42.36973,42.36973,0,0,1,3.4404,3.0174A42.36273,42.36273,0,0,1,604.289,105.7Z" transform="translate(-42.6071 -35.47034)"/><path class="cls-4" d="M613.61379,95.6568a16.02178,16.02178,0,0,1-3.0522-2.6839,16.01406,16.01406,0,0,1-2.6843-3.0526,16.0318,16.0318,0,0,1,3.0525,2.6843A16.03589,16.03589,0,0,1,613.61379,95.6568Z" transform="translate(-42.6071 -35.47034)"/><path class="cls-4" d="M559.93639,63.5938a12.3192,12.3192,0,0,1-2.6937-2.3254,12.32225,12.32225,0,0,1-2.32569-2.694,12.324,12.324,0,0,1,2.69389,2.3257A12.32407,12.32407,0,0,1,559.93639,63.5938Z" transform="translate(-42.6071 -35.47034)"/><path class="cls-4" d="M571.44489,51.4706a11.8309,11.8309,0,0,1-2.6477-2.2683,11.82645,11.82645,0,0,1-2.2804-2.6376,11.83924,11.83924,0,0,1,2.6478,2.2686A11.83551,11.83551,0,0,1,571.44489,51.4706Z" transform="translate(-42.6071 -35.47034)"/><rect class="cls-1" x="598.95019" y="88.81476" width="70.3114" height="101.9136"/><rect class="cls-3" x="595.42799" y="88.81476" width="70.3114" height="101.9136"/><rect class="cls-5" x="604.16359" y="99.85266" width="52.8402" height="79.8377"/><path class="cls-1" d="M699.61088,215.1608s-.00688-.1352-.0104-.3905c-.0024-.2636-.0058-.6398-.0103-1.1321-.0049-1.0033-.012-2.4721-.0213-4.3791-.01088-3.8264-.027-9.4024-.0472-16.4461-.0211-14.0782-.051-34.0136-.0863-57.4899l.1754.1754c-16.1436.0048-34.03219.0101-52.83378.0158h-.00631l.1912-.1912c-.0147,30.118-.0282,57.8872-.03889,79.8376l-.15231-.1523c16.0919.0335,29.28209.061,38.46079.0801,4.5912.0167,8.1767.0298,10.6258.0388,1.2172.0074,2.14972.0131,2.7892.017.63152.0056.9644.0165.9644.0165s-.3111.0109-.9323.0164c-.633.0039-1.556.0096-2.7607.0171-2.4413.0089-6.0153.022-10.5917.0387-9.2013.0192-22.424.0466-38.55549.0801l-.1524.0003v-.1527c-.0107-21.9504-.0242-49.7196-.0389-79.8376l-.0001-.1913h.19771c18.80159.0057,36.69018.011,52.83378.0158l.1757.0001-.0002.1754c-.03528,23.5234-.0652,43.4987-.08628,57.605-.02022,7.0268-.03622,12.5893-.04722,16.4065-.0093,1.8916-.0164,3.3486-.0213,4.3439-.0044.4838-.0079.8533-.0103,1.1124C699.61778,215.0394,699.61088,215.1608,699.61088,215.1608Z" transform="translate(-42.6071 -35.47034)"/><path class="cls-6" d="M697.161,135.8557" transform="translate(-42.6071 -35.47034)"/><path class="cls-1" d="M708.54388,124.2851a12.18344,12.18344,0,0,1-1.2532,1.8209c-.8169,1.0922-1.9761,2.578-3.299,4.1844-1.32368,1.6067-2.5599,3.0293-3.4754,4.0403a12.18906,12.18906,0,0,1-1.5469,1.5788,13.15265,13.15265,0,0,1,1.3419-1.7551c.9426-1.1437,2.1024-2.5507,3.3852-4.1071,1.2813-1.5567,2.44-2.9645,3.3818-4.1087A13.15658,13.15658,0,0,1,708.54388,124.2851Z" transform="translate(-42.6071 -35.47034)"/><path class="cls-5" d="M699.88,214.9036a65.44067,65.44067,0,0,0,9.21618,11.5261" transform="translate(-42.6071 -35.47034)"/><path class="cls-1" d="M709.09618,226.4296a10.5001,10.5001,0,0,1-1.6066-1.4617,51.49683,51.49683,0,0,1-6.5372-8.1756,10.49758,10.49758,0,0,1-1.0723-1.8887,14.55965,14.55965,0,0,1,1.2963,1.7373c.775,1.0879,1.8643,2.5761,3.1353,4.1673,1.2722,1.5894,2.4841,2.9792,3.3749,3.9746A14.55724,14.55724,0,0,1,709.09618,226.4296Z" transform="translate(-42.6071 -35.47034)"/><path class="cls-5" d="M638.02489,226.118q4.60485-5.6814,9.2097-11.3629" transform="translate(-42.6071 -35.47034)"/><path class="cls-1" d="M647.23459,214.755a70.07576,70.07576,0,0,1-4.4561,5.8017,70.10084,70.10084,0,0,1-4.7536,5.5613,70.09711,70.09711,0,0,1,4.4565-5.8021A70.1383,70.1383,0,0,1,647.23459,214.755Z" transform="translate(-42.6071 -35.47034)"/><path class="cls-1" d="M638.035,124.2851a63.5614,63.5614,0,0,1,4.47009,5.3437,63.56074,63.56074,0,0,1,4.1705,5.5815,63.6063,63.6063,0,0,1-4.4704-5.3443A63.59045,63.59045,0,0,1,638.035,124.2851Z" transform="translate(-42.6071 -35.47034)"/><rect class="cls-1" x="622.84799" y="116.06296" width="17.693" height="50.2353"/><polygon class="cls-1" points="118.014 130.733 118.014 203.606 13.348 203.606 9.577 131.242 118.014 130.733"/><rect class="cls-5" x="68.412" y="150.4847" width="72.2105" height="104.6663" transform="translate(-140.9077 271.86476) rotate(-90)"/><path class="cls-1" d="M157.3471,239.4196H51.6878V166.216H157.3471Zm-104.6664-.993H156.3542V167.209H52.6807Z" transform="translate(-42.6071 -35.47034)"/><rect class="cls-5" x="20.9131" y="140.21386" width="81.9941" height="54.2673"/><path class="cls-1" d="M145.5143,175.6841s-.141.0094-.4043.014c-.2778.0033-.6636.0079-1.1659.014-1.0388.0067-2.547.0162-4.503.0287-3.9386.0149-9.6648.0366-16.897.0638-14.4596.0287-34.9261.069-59.0238.1167l.237-.2371c.0066,16.5804.0139,34.9516.0215,54.2609v.0064l-.2585-.2585c30.9303.0197,59.4473.0381,81.9939.0525l-.2059.206c.0453-16.5146.0825-30.0551.1082-39.4841.0227-4.7128.0404-8.3947.0526-10.9186q.01485-1.8705.023-2.8691c.0074-.6502.0222-.9956.0222-.9956s.0147.3159.0223.9523q.008.98385.0231,2.8306c.0121,2.5132.0297,6.1795.0523,10.8722.0259,9.4597.063,23.0442.1083,39.6123l.0007.2059-.2068.0003c-22.5466.0143-51.0636.0327-81.9939.0524l-.2587.0002v-.2652c.0076-19.3093.0149-37.6805.0215-54.2609v-.2378l.2372.0005c24.1612.0477,44.6818.0881,59.1796.1168,7.2091.0272,12.9171.0489,16.8431.0638,1.9353.0124,3.4277.022,4.4557.0287.4907.006.8676.0107,1.1391.0139C145.392,175.6748,145.5143,175.6841,145.5143,175.6841Z" transform="translate(-42.6071 -35.47034)"/><path class="cls-1" d="M52.1841,166.5099a8.8309,8.8309,0,0,1,1.7995,1.1655c1.0706.7735,2.5289,1.8698,4.1031,3.1295,1.5745,1.2606,2.9595,2.4525,3.9345,3.3452a8.49478,8.49478,0,0,1,1.499,1.5341c-.0973.1098-2.6137-1.9656-5.7568-4.4757A57.12312,57.12312,0,0,1,52.1841,166.5099Z" transform="translate(-42.6071 -35.47034)"/><path class="cls-1" d="M156.8504,166.7126a50.75115,50.75115,0,0,1-5.5074,4.6884,50.74929,50.74929,0,0,1-5.8287,4.2831,50.76341,50.76341,0,0,1,5.5078-4.6887A50.76089,50.76089,0,0,1,156.8504,166.7126Z" transform="translate(-42.6071 -35.47034)"/><path class="cls-5" d="M156.7675,238.9335q-5.83485-4.7292-11.6699-9.4584" transform="translate(-42.6071 -35.47034)"/><path class="cls-1" d="M145.0976,229.4751a54.74825,54.74825,0,0,1,5.9975,4.5281,54.77416,54.77416,0,0,1,5.6724,4.9303,54.77424,54.77424,0,0,1-5.998-4.5285A54.789,54.789,0,0,1,145.0976,229.4751Z" transform="translate(-42.6071 -35.47034)"/><path class="cls-1" d="M52.1841,238.9231a49.68608,49.68608,0,0,1,5.4495-4.6395,49.66828,49.66828,0,0,1,5.7708-4.2345,49.70482,49.70482,0,0,1-5.45,4.64A49.67653,49.67653,0,0,1,52.1841,238.9231Z" transform="translate(-42.6071 -35.47034)"/><rect class="cls-1" x="96.87897" y="175.88088" width="18.1708" height="51.59225" transform="translate(-138.31973 272.17103) rotate(-90)"/></g><g id="Floor"><path class="cls-7" d="M707.393,461.8027c0,.1438-148.82941.2604-332.37711.2604-183.61139,0-332.40879-.1166-332.40879-.2604s148.7974-.2604,332.40879-.2604C558.56359,461.5423,707.393,461.6589,707.393,461.8027Z" transform="translate(-42.6071 -35.47034)"/></g><g id="Calendar"><rect class="cls-2" x="123.5004" y="67.60869" width="71.80275" height="89.81262" transform="translate(-15.98776 220.00401) rotate(-82.33034)"/><path class="cls-7" d="M208.6979,82.9281s-.1511-.0113-.4334-.0448c-.2946-.0365-.7091-.0878-1.2508-.1549-1.1113-.1432-2.7324-.3522-4.8393-.6237-4.2338-.5557-10.4065-1.3658-18.231-2.3927-15.6381-2.0773-37.864-5.0297-64.2857-8.5395l.2619-.1998c-2.8441,21.1811-6.1046,45.4624-9.5548,71.1563l-.001.0076-.2232-.2927c32.9503,4.4537,63.5715,8.5926,89.0031,12.03l-.2433.1856c2.9317-21.421,5.3618-39.1772,7.0613-51.5954.8605-6.2095,1.5356-11.0809,1.9978-14.417.2339-1.656.4135-2.9277.537-3.8022.1242-.8621.2014-1.3168.2014-1.3168s-.0416.4275-.148,1.2771c-.111.8666-.2724,2.127-.4825,3.7682-.4352,3.3283-1.0707,8.1885-1.8807,14.3836-1.6504,12.4579-4.0103,30.2708-6.8572,51.7603l-.0285.2146-.2151-.0289c-25.4349-3.4126-56.0602-7.5215-89.0148-11.943l-.2582-.0346.0348-.2583.001-.0076c3.4697-25.6913,6.7487-49.9701,9.609-71.149l.0313-.2314.2309.0315c26.4705,3.613,48.7373,6.6523,64.4042,8.7908,7.795,1.0765,13.9445,1.9257,18.1622,2.5082,2.084.2928,3.6874.5181,4.7866.6725.529.0771.9339.1361,1.2217.1781C208.5669,82.9014,208.6979,82.9281,208.6979,82.9281Z" transform="translate(-42.6071 -35.47034)"/><rect class="cls-8" x="127.96251" y="70.75574" width="62.76238" height="83.50281" transform="translate(-16.03029 219.93966) rotate(-82.33034)"/><polygon class="cls-8" points="71.171 102.565 105.282 67.794 119.929 94.395 133.814 83.099 153.926 113.709 71.171 102.565"/><path class="cls-8" d="M174.032,101.9628a6.57481,6.57481,0,1,1-5.6385-7.3934A6.57476,6.57476,0,0,1,174.032,101.9628Z" transform="translate(-42.6071 -35.47034)"/><g class="cls-9"><polygon points="71.171 102.565 105.282 67.794 119.929 94.395 133.814 83.099 153.926 113.709 71.171 102.565"/></g><g class="cls-9"><path d="M174.032,101.9628a6.57481,6.57481,0,1,1-5.6385-7.3934A6.57476,6.57476,0,0,1,174.032,101.9628Z" transform="translate(-42.6071 -35.47034)"/></g><rect class="cls-4" x="153.7774" y="35.01046" width="367.40969" height="240.5616"/><path class="cls-7" d="M564.92579,87.3993c0,.1438-82.2562.2604-183.70079.2604-101.47991,0-183.7185-.1166-183.7185-.2604s82.23859-.2604,183.7185-.2604C482.66959,87.1389,564.92579,87.2555,564.92579,87.3993Z" transform="translate(-42.6071 -35.47034)"/><path class="cls-7" d="M209.3993,79.5493a2.10505,2.10505,0,1,1-2.105-2.105A2.105,2.105,0,0,1,209.3993,79.5493Z" transform="translate(-42.6071 -35.47034)"/><path class="cls-7" d="M217.0098,79.5493a2.10505,2.10505,0,1,1-2.105-2.105A2.10495,2.10495,0,0,1,217.0098,79.5493Z" transform="translate(-42.6071 -35.47034)"/><path class="cls-7" d="M224.6203,79.5493a2.10505,2.10505,0,1,1-2.105-2.105A2.10495,2.10495,0,0,1,224.6203,79.5493Z" transform="translate(-42.6071 -35.47034)"/><rect class="cls-2" x="276.43199" y="64.68026" width="125.3855" height="6.9206"/><path class="cls-7" d="M544.35459,293.8173c-.0018-1.5674-.0755-67.1134-.1964-174.54l.1963.1964c-87.1298.0169-202.8309.0393-329.42549.0639h-.0241l.2603-.2603c-.0057,61.6326-.0112,120.6774-.0162,174.5398l-.2441-.2441c192.62949.1429,327.21029.2426,329.44969.2443-2.2378.0016-136.8201.1014-329.44969.2442l-.2443.0002v-.2446c-.005-53.8624-.0105-112.9072-.0162-174.5398v-.2604h.2846c126.59459.0245,242.29569.047,329.42549.0639h.1967l-.00019.1965C544.43009,226.704,544.35639,292.251,544.35459,293.8173Z" transform="translate(-42.6071 -35.47034)"/><path class="cls-7" d="M255.4572,293.4623c-.1438-.0003-.147-39.0744-.0072-87.2632.1399-48.2054.3698-87.2704.5136-87.27s.147,39.0661.0072,87.2716C255.8309,254.3894,255.601,293.4628,255.4572,293.4623Z" transform="translate(-42.6071 -35.47034)"/><path class="cls-7" d="M304.33259,293.6042c-.1439-.0004-.1471-39.0745-.0073-87.2633.1399-48.2054.3698-87.2704.51371-87.27.14369.0004.147,39.0661.00709,87.2716C304.70629,254.5312,304.47629,293.6046,304.33259,293.6042Z" transform="translate(-42.6071 -35.47034)"/><path class="cls-7" d="M353.20789,293.746c-.1438-.0004-.147-39.0745-.0072-87.2632.1399-48.2055.3698-87.2705.5136-87.2701s.147,39.0661.0072,87.2716C353.58159,254.673,353.35169,293.7464,353.20789,293.746Z" transform="translate(-42.6071 -35.47034)"/><path class="cls-7" d="M402.08329,293.8878c-.1439-.0004-.1471-39.0745-.00729-87.2632.13989-48.2055.36979-87.2705.51369-87.2701.1437.0004.147,39.0661.0071,87.2716C402.457,254.8148,402.227,293.8882,402.08329,293.8878Z" transform="translate(-42.6071 -35.47034)"/><path class="cls-7" d="M450.95859,294.0296c-.1438-.0004-.147-39.0745-.0072-87.2632.1399-48.2055.3698-87.2705.51361-87.2701s.147,39.0661.00719,87.2716C451.33229,254.9566,451.10239,294.03,450.95859,294.0296Z" transform="translate(-42.6071 -35.47034)"/><path class="cls-7" d="M499.834,294.1714c-.14391-.0004-.14711-39.0745-.00731-87.2632.1399-48.2055.3698-87.2705.5137-87.2701.1437.0005.147,39.0662.0071,87.2716C500.20769,255.0984,499.97769,294.1719,499.834,294.1714Z" transform="translate(-42.6071 -35.47034)"/><path class="cls-7" d="M544.35459,161.4769c0,.1438-73.6691.2604-164.5235.2604-90.886,0-164.53929-.1166-164.53929-.2604s73.65329-.2604,164.53929-.2604C470.68549,161.2165,544.35459,161.3331,544.35459,161.4769Z" transform="translate(-42.6071 -35.47034)"/><path class="cls-7" d="M544.35459,206.1957c0,.1438-73.6691.2604-164.5235.2604-90.886,0-164.53929-.1166-164.53929-.2604s73.65329-.2604,164.53929-.2604C470.68549,205.9353,544.35459,206.0519,544.35459,206.1957Z" transform="translate(-42.6071 -35.47034)"/><path class="cls-7" d="M544.35459,250.9145c0,.1438-73.6691.2604-164.5235.2604-90.886,0-164.53929-.1166-164.53929-.2604s73.65329-.2603,164.53929-.2603C470.68549,250.6542,544.35459,250.7707,544.35459,250.9145Z" transform="translate(-42.6071 -35.47034)"/><path class="cls-2" d="M218.213,254.8939s-3.8993,25.3182.1532,41.0941l38.9948-1.4215s-7.9988-25.1895-2.9331-37.7807Z" transform="translate(-42.6071 -35.47034)"/><path class="cls-8" d="M218.3662,253.9679s.2637,31.108,1.8454,40.5986l39.0169-1.8454s-3.4272-30.5807-2.1091-38.7532Z" transform="translate(-42.6071 -35.47034)"/><path class="cls-5" d="M251.2391,267.0344c.0086.1436-5.8459.6125-13.0749,1.0473-7.2314.435-13.0987.6711-13.1074.5275-.0086-.1434,5.8447-.6123,13.0762-1.0473C245.3619,267.1271,251.2305,266.8909,251.2391,267.0344Z" transform="translate(-42.6071 -35.47034)"/><path class="cls-5" d="M251.2495,273.6235c.0087.1435-5.8459.6125-13.0748,1.0473-7.2314.435-13.0987.6711-13.1074.5275s5.8447-.6124,13.0761-1.0474C245.3724,273.7161,251.2409,273.48,251.2495,273.6235Z" transform="translate(-42.6071 -35.47034)"/><path class="cls-5" d="M244.6176,280.0928a9.22611,9.22611,0,0,1-2.1736.3152c-1.3469.1282-3.2097.2695-5.269.3933-2.06.124-3.9265.207-5.2791.2412a9.22268,9.22268,0,0,1-2.1954-.0525,9.23158,9.23158,0,0,1,2.1733-.3151c1.3469-.1282,3.2099-.2695,5.2699-.3934,2.0593-.1238,3.9256-.2069,5.2782-.2411A9.23068,9.23068,0,0,1,244.6176,280.0928Z" transform="translate(-42.6071 -35.47034)"/><path class="cls-2" d="M307.48469,123.6574s-3.2022,26.353.85031,42.1289l38.33649-1.9565s-8.0376-25.6893-2.9719-38.2805Z" transform="translate(-42.6071 -35.47034)"/><path class="cls-8" d="M307.63789,122.7314s.2637,31.108,1.8454,40.5986l39.0169-1.8454s-3.42719-30.5808-2.1091-38.7532Z" transform="translate(-42.6071 -35.47034)"/><path class="cls-5" d="M340.51079,135.7979c.0086.1436-5.846.6125-13.0749,1.0473-7.2314.435-13.0987.6711-13.1074.5275-.0086-.1434,5.8447-.6123,13.0761-1.0473C334.63359,135.8906,340.50219,135.6544,340.51079,135.7979Z" transform="translate(-42.6071 -35.47034)"/><path class="cls-5" d="M340.52129,142.3869c.0086.1436-5.846.6126-13.0749,1.0474-7.2315.4349-13.0988.6711-13.10739.5275s5.84469-.6124,13.07609-1.0474C334.64409,142.4796,340.51259,142.2434,340.52129,142.3869Z" transform="translate(-42.6071 -35.47034)"/><path class="cls-5" d="M333.88919,148.8563a9.22317,9.22317,0,0,1-2.1735.3152c-1.3469.1283-3.20969.2695-5.269.3934-2.06.1239-3.9265.2069-5.2791.2411a9.22268,9.22268,0,0,1-2.1954-.0525,9.23027,9.23027,0,0,1,2.1733-.3151c1.3469-.1282,3.2099-.2695,5.2699-.3934,2.0593-.1239,3.92561-.2069,5.2782-.2411A9.23562,9.23562,0,0,1,333.88919,148.8563Z" transform="translate(-42.6071 -35.47034)"/><path class="cls-2" d="M358.844,253.1465s-3.15261,28.8129.89989,44.5888l38.49911-1.6827s-8.24981-28.423-3.18421-41.0142Z" transform="translate(-42.6071 -35.47034)"/><path class="cls-8" d="M358.99719,252.2206s.2636,31.108,1.8454,40.5986l39.0168-1.8454s-3.4272-30.5808-2.109-38.7532Z" transform="translate(-42.6071 -35.47034)"/><path class="cls-5" d="M391.87,265.2871c.00859.1436-5.84591.6125-13.07481,1.0473-7.2315.435-13.0988.6711-13.1074.5275s5.8447-.6124,13.0761-1.0473C385.99279,265.3798,391.86139,265.1436,391.87,265.2871Z" transform="translate(-42.6071 -35.47034)"/><path class="cls-5" d="M391.88049,271.8761c.0086.1436-5.8459.6125-13.0749,1.0473-7.2314.435-13.0987.6712-13.1073.5275-.0087-.1434,5.8446-.6123,13.0761-1.0473C386.00329,271.9688,391.87179,271.7326,391.88049,271.8761Z" transform="translate(-42.6071 -35.47034)"/><path class="cls-5" d="M385.24849,278.3454a9.22877,9.22877,0,0,1-2.1736.3153c-1.34689.1282-3.2097.2695-5.269.3933-2.06.1239-3.9265.207-5.279.2411a9.22071,9.22071,0,0,1-2.1955-.0524,9.23321,9.23321,0,0,1,2.1734-.3151c1.3469-.1282,3.2098-.2695,5.2699-.3934,2.05931-.1239,3.9256-.207,5.2781-.2411A9.23365,9.23365,0,0,1,385.24849,278.3454Z" transform="translate(-42.6071 -35.47034)"/><path class="cls-2" d="M505.87639,165.4811s-3.9996,24.7372.0529,40.5132l39.0951-.8406s-7.9988-25.1895-2.9331-37.7807Z" transform="translate(-42.6071 -35.47034)"/><path class="cls-8" d="M506.02959,164.5551s.2637,31.108,1.84541,40.5986l39.01679-1.8454s-3.4271-30.5808-2.109-38.7532Z" transform="translate(-42.6071 -35.47034)"/><path class="cls-5" d="M538.90249,177.6216c.0086.1436-5.846.6125-13.0749,1.0473-7.2314.435-13.0987.6711-13.1074.5275-.0086-.1434,5.8447-.6123,13.0761-1.0473C533.02529,177.7143,538.89379,177.4781,538.90249,177.6216Z" transform="translate(-42.6071 -35.47034)"/><path class="cls-5" d="M538.91289,184.2106c.0087.1436-5.84589.6126-13.0748,1.0474-7.2315.4349-13.0988.6711-13.1074.5275s5.8447-.6124,13.0761-1.0474C533.03579,184.3033,538.90429,184.0671,538.91289,184.2106Z" transform="translate(-42.6071 -35.47034)"/><path class="cls-5" d="M532.28089,190.68a9.22317,9.22317,0,0,1-2.1735.3152c-1.3469.1282-3.2097.2695-5.269.3933-2.06.124-3.9265.207-5.2791.2412a9.22436,9.22436,0,0,1-2.1955-.0525,9.23452,9.23452,0,0,1,2.1734-.3151c1.3469-.1282,3.2099-.2695,5.2699-.3934,2.0593-.1239,3.9256-.2069,5.2782-.2411A9.229,9.229,0,0,1,532.28089,190.68Z" transform="translate(-42.6071 -35.47034)"/><path class="cls-2" d="M406.83619,210.8131s-3.9997,24.7372.05281,40.5132l39.09509-.8406s-7.9987-25.1895-2.93309-37.7807Z" transform="translate(-42.6071 -35.47034)"/><path class="cls-8" d="M406.98939,209.8871s.26361,31.108,1.8454,40.5986l39.0168-1.8454s-3.4272-30.5807-2.109-38.7532Z" transform="translate(-42.6071 -35.47034)"/><path class="cls-5" d="M439.86219,222.9536c.0086.1436-5.8459.6125-13.0749,1.0474-7.2314.4349-13.0987.671-13.10729.5274-.00871-.1434,5.84459-.6123,13.07609-1.0473C433.985,223.0463,439.85359,222.8101,439.86219,222.9536Z" transform="translate(-42.6071 -35.47034)"/><path class="cls-5" d="M439.87269,229.5426c.0086.1437-5.846.6126-13.0749,1.0474-7.2314.435-13.0987.6711-13.1074.5275s5.8447-.6124,13.0762-1.0473C433.99549,229.6354,439.86409,229.3992,439.87269,229.5426Z" transform="translate(-42.6071 -35.47034)"/><path class="cls-5" d="M433.24069,236.012a9.22585,9.22585,0,0,1-2.1736.3152c-1.3469.1283-3.2097.2695-5.269.3934-2.06.1239-3.9265.2069-5.279.2411a9.22331,9.22331,0,0,1-2.1955-.0525,9.23324,9.23324,0,0,1,2.17341-.3151c1.34689-.1282,3.20979-.2695,5.26989-.3934,2.0593-.1238,3.9256-.2069,5.27811-.2411A9.23619,9.23619,0,0,1,433.24069,236.012Z" transform="translate(-42.6071 -35.47034)"/><polygon class="cls-2" points="454.396 139.281 433.679 149.937 423.668 148.518 429.027 139.019 450.876 131.322 454.396 139.281"/><polygon class="cls-10" points="422.806 146.562 427.881 138.393 450.326 130.24 454.836 139.106 433.074 147.798 422.806 146.562"/><path class="cls-5" d="M490.41,170.9814a13.33585,13.33585,0,0,1-2.17711.9855c-1.3633.5587-3.2567,1.3042-5.3553,2.1071-2.0091.7511-3.82759,1.431-5.3903,2.0151-1.3715.5008-2.2729.8024-2.2196.7733-.1702-.2105,3.241-1.67,7.4238-3.2748C486.89079,171.9808,490.35379,170.8212,490.41,170.9814Z" transform="translate(-42.6071 -35.47034)"/><path class="cls-5" d="M486.90479,175.0024a31.17354,31.17354,0,0,1-9.987,3.7199,228.812,228.812,0,0,1,9.987-3.7199Z" transform="translate(-42.6071 -35.47034)"/><path class="cls-1" d="M218.3376,164.0619s-3.5967,34.8339,1.1884,42.1338l36.1844-2.2315-1.9234-38.7019Z" transform="translate(-42.6071 -35.47034)"/><path class="cls-10" d="M218.3376,164.0619s.2568,30.3036,1.7976,39.5488l38.008-1.7977s-3.3385-29.79-2.0545-37.7511Z" transform="translate(-42.6071 -35.47034)"/><path class="cls-5" d="M237.0582,168.347a.547.547,0,0,1,.1391-.0145l.41-.0157a9.292,9.292,0,0,1,1.5819.0784,8.66814,8.66814,0,0,1,2.4164.7187,7.91973,7.91973,0,0,1,2.6302,2.0804,9.14031,9.14031,0,0,1,1.8225,3.6601,8.83183,8.83183,0,0,1-.3991,4.6957,13.88758,13.88758,0,0,1-1.0675,2.3471,24.8151,24.8151,0,0,0-1.217,2.3707,20.33674,20.33674,0,0,0-1.5365,5.3933l-.0166.1264-.1227.0019c-1.2.0195-2.4675.04-3.753.0608-1.3485.0211-2.677.0418-3.9364.0615l-.1397.0022-.0048-.142a11.24648,11.24648,0,0,0-1.8254-5.1948c-.4566-.7787-.9558-1.5084-1.423-2.2474a22.16357,22.16357,0,0,1-1.3351-2.1775,7.33561,7.33561,0,0,1-.5955-4.6293,9.86847,9.86847,0,0,1,1.466-3.7872,7.33165,7.33165,0,0,1,2.474-2.227,9.28281,9.28281,0,0,1,2.3342-.9023,9.89366,9.89366,0,0,1,1.552-.2528c.1792-.0101.3155-.0176.4074-.0156a.46906.46906,0,0,1,.1386.0089.64826.64826,0,0,1-.1375.0181c-.1059.0109-.2385.0246-.4033.0417a11.47557,11.47557,0,0,0-1.5315.2999,9.45059,9.45059,0,0,0-2.286.9318,7.23173,7.23173,0,0,0-2.3913,2.2051,9.7405,9.7405,0,0,0-1.4009,3.7171,7.11852,7.11852,0,0,0,.6008,4.4804,22.237,22.237,0,0,0,1.3318,2.1488c.4636.7272.9709,1.4637,1.434,2.248a11.46213,11.46213,0,0,1,1.8749,5.3295l-.1442-.1397c1.2593-.0204,2.5879-.0419,3.9363-.0638,1.2856-.0201,2.553-.0399,3.753-.0587l-.1392.1283a20.46113,20.46113,0,0,1,1.5694-5.4755,24.9022,24.9022,0,0,1,1.2367-2.3903,13.69555,13.69555,0,0,0,1.0585-2.3002,8.62941,8.62941,0,0,0,.4178-4.567,9.001,9.001,0,0,0-1.7496-3.5857,7.82881,7.82881,0,0,0-2.5484-2.0664,8.7923,8.7923,0,0,0-2.3659-.7505,10.6413,10.6413,0,0,0-1.5668-.1276l-.409-.0106A.553.553,0,0,1,237.0582,168.347Z" transform="translate(-42.6071 -35.47034)"/><path class="cls-5" d="M239.0076,189.4584s-.01-.0402-.0236-.1194l-.0576-.3523c-.0481-.3151-.1178-.7714-.2072-1.3567-.1702-1.1793-.4238-2.8872-.5939-5.0135-.0399-.5316-.0775-1.0892-.0983-1.671-.019-.5817-.0442-1.1874-.0105-1.8169a5.07957,5.07957,0,0,1,.4283-1.9013,2.881,2.881,0,0,1,1.4496-1.4513,1.94128,1.94128,0,0,1,2.069.3939,1.44485,1.44485,0,0,1,.4433,1.0404,1.85,1.85,0,0,1-.3886,1.0887,2.4809,2.4809,0,0,1-.9144.7386,4.8373,4.8373,0,0,1-1.1293.3748,13.624,13.624,0,0,1-2.3989.2795,13.98513,13.98513,0,0,1-2.4137-.1169,4.54415,4.54415,0,0,1-1.1439-.3305,2.95041,2.95041,0,0,1-.9578-.6811,2.21617,2.21617,0,0,1-.5515-1.0166,1.71846,1.71846,0,0,1,.1355-1.1255,1.53115,1.53115,0,0,1,.7948-.7738,1.37232,1.37232,0,0,1,1.0817.0503,2.04319,2.04319,0,0,1,.8071.6864,2.79913,2.79913,0,0,1,.4037.9467,11.43438,11.43438,0,0,1,.1922,1.9388c.0652,1.2509.126,2.4164.1815,3.4808.1072,2.1246.194,3.8455.2543,5.0405.0273.5914.0485,1.0524.0632,1.3707l.0134.3566c.0024.0804.0006.1218.0006.1218s-.0063-.041-.0126-.1211l-.0252-.356c-.0198-.3181-.0485-.7786-.0853-1.3695-.0692-1.1945-.1688-2.9147-.2919-5.0385-.0599-1.0642-.1254-2.2294-.1958-3.4799a11.41446,11.41446,0,0,0-.1954-1.9197,2.69557,2.69557,0,0,0-.3898-.9099,1.93841,1.93841,0,0,0-.765-.6486,1.26256,1.26256,0,0,0-.9959-.0462,1.42086,1.42086,0,0,0-.7339.7194,1.60468,1.60468,0,0,0-.1254,1.0519,2.10211,2.10211,0,0,0,.5247.9628,3.42868,3.42868,0,0,0,2.0356.9742,13.91737,13.91737,0,0,0,2.3911.1148,13.53719,13.53719,0,0,0,2.3777-.2763,4.72136,4.72136,0,0,0,1.1022-.3645,2.36582,2.36582,0,0,0,.8736-.7031,1.73667,1.73667,0,0,0,.367-1.0198,1.33059,1.33059,0,0,0-.4082-.9599,1.83131,1.83131,0,0,0-1.9491-.3732,2.77922,2.77922,0,0,0-1.3966,1.3953,4.99009,4.99009,0,0,0-.4241,1.8621c-.0354.622-.0128,1.2274.0038,1.8077.0184.5806.0534,1.1372.0906,1.6682.1591,2.1235.3998,3.8323.556,5.0132.0799.5867.1423,1.044.1853,1.3598l.0459.3539C239.0056,189.4171,239.0076,189.4584,239.0076,189.4584Z" transform="translate(-42.6071 -35.47034)"/><path class="cls-5" d="M234.0038,189.6588c.0186.0176.0505.4717.0987,1.2634q.0708,1.3752.1695,3.2927l-.0311-.0804c.7639.8804,1.6268,1.8749,2.5584,2.9487l-.1314-.0565c.9313-.0525,1.9258-.1085,2.9577-.1667l-.1244.0629c.4749-.5799.9688-1.183,1.4731-1.7987q.3738-.455.7388-.8991l-.0396.1154c-.0399-1.7338-.0777-3.3754-.1121-4.8724l.1614.1532c-2.1557.0238-4.0241.0443-5.5264.0609-.5996-.0006-1.1261-.0011-1.5971-.0015a4.32834,4.32834,0,0,1-.5955-.0219,2.73758,2.73758,0,0,1,.5269-.0503c.4597-.0239.9738-.0507,1.5592-.0812,1.529-.0601,3.4307-.1348,5.6249-.221l.1569-.0062.0048.1596c.045,1.4968.0945,3.138.1467,4.8715l.0019.065-.0416.0508q-.3639.44385-.7379.8999c-.5056.6147-1.0008,1.2167-1.477,1.7955l-.0488.0594-.076.0037c-1.0323.0505-2.0273.0991-2.9589.1446l-.081.004-.0509-.0606c-.9141-1.0889-1.7607-2.0973-2.5101-2.9899l-.0308-.0367-.0004-.0442q-.0189-1.9677-.0324-3.3767A10.11764,10.11764,0,0,1,234.0038,189.6588Z" transform="translate(-42.6071 -35.47034)"/><path class="cls-5" d="M241.6385,193.9397a1.74388,1.74388,0,0,1-.2806-.1186c-.1778-.0808-.4381-.1909-.7676-.3039a7.48144,7.48144,0,0,0-5.3137.162c-.322.1328-.5752.2586-.7477.3501a1.7249,1.7249,0,0,1-.2728.1354,1.34008,1.34008,0,0,1,.25-.1754,6.19905,6.19905,0,0,1,.7376-.3869,7.10253,7.10253,0,0,1,5.3747-.1638,6.19541,6.19541,0,0,1,.7598.3412A1.34359,1.34359,0,0,1,241.6385,193.9397Z" transform="translate(-42.6071 -35.47034)"/><path class="cls-5" d="M241.6375,192.756a1.71187,1.71187,0,0,1-.2806-.1186c-.1778-.0808-.4382-.1909-.7677-.3038a7.48,7.48,0,0,0-5.3137.162c-.322.1328-.5751.2586-.7476.35a1.70655,1.70655,0,0,1-.2729.1354,1.35432,1.35432,0,0,1,.2501-.1754,6.20005,6.20005,0,0,1,.7376-.3868,7.10226,7.10226,0,0,1,5.3746-.1638,6.17576,6.17576,0,0,1,.7599.3412A1.35567,1.35567,0,0,1,241.6375,192.756Z" transform="translate(-42.6071 -35.47034)"/><path class="cls-5" d="M241.5677,191.6307a1.7127,1.7127,0,0,1-.2806-.1185c-.1778-.0808-.4382-.191-.7676-.3038a7.48,7.48,0,0,0-5.3137.162c-.322.1327-.5752.2585-.7477.3499a1.72129,1.72129,0,0,1-.2728.1355,1.33913,1.33913,0,0,1,.2501-.1754,6.18033,6.18033,0,0,1,.7375-.3869,7.10253,7.10253,0,0,1,5.3747-.1638,6.17311,6.17311,0,0,1,.7598.3412A1.35135,1.35135,0,0,1,241.5677,191.6307Z" transform="translate(-42.6071 -35.47034)"/><path class="cls-8" d="M313.91719,247.2409c.0576.0184-.0348.4642-.4908.9974a6.04042,6.04042,0,0,1-2.1885,1.5145,6.63255,6.63255,0,0,1-3.6416.6714c-.0221-.1639,1.6165-.3658,3.4344-1.1493a8.07244,8.07244,0,0,0,2.1317-1.2934C313.64209,247.5613,313.84189,247.2061,313.91719,247.2409Z" transform="translate(-42.6071 -35.47034)"/><path class="cls-7" d="M564.92579,311.011c-.0014-1.6877-.0807-93.7849-.207-240.5616l.2069.2069c-100.7895.0147-228.6638.0333-367.38029.0534h-.0291l.2603-.2603c-.0076,85.5378-.0148,166.9439-.0213,240.5614l-.239-.239c216.199.1407,365.26579.2378,367.40949.2392-2.1422.0013-151.2105.0984-367.40949.2391l-.2393.0002v-.2395c-.0065-73.6175-.0137-155.0236-.0212-240.5614V70.189h.2896c138.71649.0201,266.59079.0387,367.38029.0534h.2072l-.0001.207C565.00649,217.2261,564.92729,309.3245,564.92579,311.011Z" transform="translate(-42.6071 -35.47034)"/><polygon class="cls-8" points="490.436 239.447 483.216 227.132 476.361 239.447 379.149 239.447 379.149 290.271 530.524 290.271 530.524 239.447 490.436 239.447"/><path class="cls-4" d="M448.98019,300.7742a7.45587,7.45587,0,0,0,4.5014-6.8599,7.0073,7.0073,0,1,0-13.9844-.1835,7.44463,7.44463,0,0,0,4.3965,7.0002c-10.7746,1.5298-10.38569,13.229-10.38569,13.229l25.44479.3337S459.63359,302.4759,448.98019,300.7742Z" transform="translate(-42.6071 -35.47034)"/><path class="cls-4" d="M555.85969,289.9816c0,.1439-19.3205.2605-43.148.2605-23.8358,0-43.1522-.1166-43.1522-.2605,0-.1437,19.3164-.2603,43.1522-.2603C536.53919,289.7213,555.85969,289.8379,555.85969,289.9816Z" transform="translate(-42.6071 -35.47034)"/><path class="cls-4" d="M555.85969,297.7308c0,.1439-19.3205.2605-43.148.2605-23.8358,0-43.1522-.1166-43.1522-.2605,0-.1437,19.3164-.2603,43.1522-.2603C536.53919,297.4705,555.85969,297.5871,555.85969,297.7308Z" transform="translate(-42.6071 -35.47034)"/><path class="cls-4" d="M555.85969,305.48c0,.1439-19.3205.2605-43.148.2605-23.8358,0-43.1522-.1166-43.1522-.2605,0-.1437,19.3164-.2603,43.1522-.2603C536.53919,305.2197,555.85969,305.3363,555.85969,305.48Z" transform="translate(-42.6071 -35.47034)"/><path class="cls-4" d="M512.70959,313.1501c0,.1439-9.6603.2604-21.574.2604-11.9179,0-21.5761-.1165-21.5761-.2604,0-.1437,9.6582-.2604,21.5761-.2604C503.04929,312.8897,512.70959,313.0064,512.70959,313.1501Z" transform="translate(-42.6071 -35.47034)"/></g><g id="Character_2" data-name="Character 2"><path class="cls-7" d="M559.53259,179.685c-.9089-1.0685-1.6162-2.98-1.0629-4.2691-1.0756-.5617-1.1739-1.5169-1.1735-2.7303a7.45616,7.45616,0,0,1,1.0509-3.4461,9.98356,9.98356,0,0,1,3.8966-4.269,5.18555,5.18555,0,0,1,5.5369.2435,6.71975,6.71975,0,0,1,9.6237-.6729,7.37581,7.37581,0,0,0,1.4612,1.3288c.9607.5331,2.1408.3317,3.2349.433a5.67338,5.67338,0,0,1,4.6941,7.8774,6.117,6.117,0,0,1,2.6027,4.6989,17.821,17.821,0,0,1-.6266,5.5101c-.49659,2.2329-1.0643,4.5816-2.6454,6.2348a6.49128,6.49128,0,0,1-4.1491,1.9594,6.6224,6.6224,0,0,1-5.8079-2.7319" transform="translate(-42.6071 -35.47034)"/><path class="cls-11" d="M583.143,217.7517l-17.926-.8224c-.10121-1.9015.86939-13.6695.86939-13.6695s-6.7757-1.0535-6.8593-7.828,1.0908-22.3305,1.0908-22.3305h0a23.545,23.545,0,0,1,23.658,2.9739l1.0039.7729Z" transform="translate(-42.6071 -35.47034)"/><path class="cls-12" d="M566.07529,203.1622a15.75433,15.75433,0,0,0,8.8319-2.51s-2.0877,4.8754-8.8476,4.2652Z" transform="translate(-42.6071 -35.47034)"/><path class="cls-11" d="M584.145,183.8652c.11559-.0501,4.65479-1.3769,4.50689,3.2548-.148,4.6314-4.7673,3.5275-4.7712,3.3944S584.145,183.8652,584.145,183.8652Z" transform="translate(-42.6071 -35.47034)"/><path class="cls-12" d="M585.35159,188.805c.0208-.0142.0789.0591.2132.1259a.80706.80706,0,0,0,.6027.0316,1.99668,1.99668,0,0,0,.9809-1.7616,2.66393,2.66393,0,0,0-.1888-1.1624.93265.93265,0,0,0-.5871-.6387.41093.41093,0,0,0-.4832.2059c-.06629.1276-.0398.221-.0646.228-.0133.0113-.0969-.0806-.0536-.2707a.51591.51591,0,0,1,.1916-.2844.60989.60989,0,0,1,.45-.1037,1.1344,1.1344,0,0,1,.8198.745,2.74056,2.74056,0,0,1,.23851,1.2999,2.09608,2.09608,0,0,1-1.24091,1.9626.86486.86486,0,0,1-.734-.1463C585.35629,188.9173,585.33529,188.8129,585.35159,188.805Z" transform="translate(-42.6071 -35.47034)"/><path class="cls-7" d="M561.811,183.7191a.96758.96758,0,0,0,.933.9761.92534.92534,0,0,0,.99719-.8723.968.968,0,0,0-.9319-.9768A.92616.92616,0,0,0,561.811,183.7191Z" transform="translate(-42.6071 -35.47034)"/><path class="cls-7" d="M561.6,182.6314c.11989.1261.85279-.4163,1.894-.4135,1.03989-.0122,1.80389.5234,1.91689.3959.0554-.0564-.0668-.2841-.3994-.5264a2.65493,2.65493,0,0,0-1.5346-.473,2.54842,2.54842,0,0,0-1.5074.4867C561.64929,182.3467,561.54079,182.5749,561.6,182.6314Z" transform="translate(-42.6071 -35.47034)"/><path class="cls-7" d="M572.00659,183.9636a.96747.96747,0,0,0,.9328.976.92541.92541,0,0,0,.9973-.8722.968.968,0,0,0-.932-.9767A.92591.92591,0,0,0,572.00659,183.9636Z" transform="translate(-42.6071 -35.47034)"/><path class="cls-7" d="M571.83309,182.8256c.1201.1262.8541-.4162,1.8943-.4134,1.0398-.0121,1.804.5235,1.917.3958.0553-.0563-.0656-.284-.3997-.5261a2.65192,2.65192,0,0,0-1.5343-.4732,2.55052,2.55052,0,0,0-1.5076.4866C571.88349,182.541,571.77449,182.7692,571.83309,182.8256Z" transform="translate(-42.6071 -35.47034)"/><path class="cls-7" d="M568.055,190.5462a6.89513,6.89513,0,0,0-1.691-.305c-.26581-.0275-.51741-.0803-.56221-.2617a1.35328,1.35328,0,0,1,.1775-.788q.37485-.96495.7862-2.0242a34.78089,34.78089,0,0,0,1.7656-5.295,34.86374,34.86374,0,0,0-2.1876,5.1404q-.394,1.0662-.7531,2.0365a1.53809,1.53809,0,0,0-.138,1.0432.66716.66716,0,0,0,.4371.3887,1.815,1.815,0,0,0,.45151.0629A6.77219,6.77219,0,0,0,568.055,190.5462Z" transform="translate(-42.6071 -35.47034)"/><path class="cls-7" d="M571.11879,191.2664c-.1694-.0098-.1716,1.1202-1.1387,1.9222-.9655.8048-2.1702.6779-2.1789.8358-.0158.0709.2683.2195.7766.2333a2.81366,2.81366,0,0,0,1.8189-.6338,2.45067,2.45067,0,0,0,.88231-1.6117C571.32219,191.5398,571.19609,191.2599,571.11879,191.2664Z" transform="translate(-42.6071 -35.47034)"/><path class="cls-7" d="M571.56439,178.7458c.1027.2829,1.1422.1488,2.3634.2961,1.2246.1226,2.2095.4802,2.3715.2264.0722-.1215-.0994-.3878-.4977-.6619a4.14072,4.14072,0,0,0-3.6072-.3981C571.746,178.389,571.52029,178.6114,571.56439,178.7458Z" transform="translate(-42.6071 -35.47034)"/><path class="cls-7" d="M561.98269,179.6184c.1832.2364.9002-.0091,1.7628-.0204.8619-.042,1.59251.1587,1.7606-.0886.0737-.1201-.0412-.3569-.3604-.5808a2.5528,2.5528,0,0,0-2.839.0878C562.002,179.2595,561.90189,179.503,561.98269,179.6184Z" transform="translate(-42.6071 -35.47034)"/><path class="cls-7" d="M585.34419,176.5394c-.0918,1.9736.3486,4.1716.0027,6.111-.0522.2926-.8122,1.0751-.8795,1.3647-.3987,1.7164-1.11,2.4518-2.13.6815a15.48823,15.48823,0,0,1-.79739-3.3413q-.6165-3.12795-1.23271-6.2558a10.826,10.826,0,0,1-5.1499,1.2216,5.2658,5.2658,0,0,1-4.40239-2.597,5.46319,5.46319,0,0,1-8.47641,1.1122,2.2817,2.2817,0,0,1-3.0175.6434,2.70962,2.70962,0,0,1-1.1003-2.9888c.4664-1.6531,2.2367-2.5496,3.8845-3.0344,6.4423-1.8958,13.5678-.4104,19.3595,2.9887a9.84321,9.84321,0,0,1,2.338,1.7618c.66121.7227,1.5787,1.5726,1.6067,2.5518" transform="translate(-42.6071 -35.47034)"/><path class="cls-10" d="M597.08989,241.5523l6.92711-18.8368c-1.43751-4.8352-6.61161-10.0714-13.80071-11.4488-2.2825-.4373-4.5054-1.2637-7.189-1.3773l-.0026.0019a14.14431,14.14431,0,0,1-17.26569.2106l-.24561-.1847c-.6925.0834-1.6131.1729-2.7656.3091q-.11325.01335-.2249.0272a16.89838,16.89838,0,0,0-7.9283,3.1565l-.0014-.0117L518.52059,234.93l-21.1809-16.1029-10.7331,8.4099s27.7535,27.7509,30.4473,28.4113c1.86511.4574,20.3755-9.6472,31.5914-15.9095-.4555,6.7204-2.96629,44.0698-2.84329,49.1756h51.54189l.0414-23.5571-.0119-6.412Z" transform="translate(-42.6071 -35.47034)"/><path class="cls-10" d="M576.96829,263.6118s25.104,11.0637,27.5035,11.5905c7.9628,1.7479,15.2871-4.9328,14.1218-11.2212-.6057-3.2688-14.7313-42.1066-14.7313-42.1066L593.734,236.9473l5.05149,19.7631-15.2717-1.9502Z" transform="translate(-42.6071 -35.47034)"/><path class="cls-7" d="M599.01209,273.2644a2.02768,2.02768,0,0,0-.4052-.2272l-1.2012-.5835c-1.10269-.5152-2.6231-1.2255-4.5009-2.1028-3.89179-1.7763-9.2545-4.2242-15.3686-7.015l.1039.3145c.95-1.6984,1.9342-3.4581,2.9426-5.261.6261-1.1225,1.2427-2.2282,1.8275-3.277l-.2218.1154c7.2603.7128,13.6928,1.3441,18.3739,1.8036,2.2768.2038,4.1249.3692,5.4612.4887.60551.0454,1.0942.082,1.47551.1106a2.35518,2.35518,0,0,0,.51529.0098,2.34629,2.34629,0,0,0-.5067-.0948c-.3791-.0492-.865-.1122-1.4673-.1905-1.3327-.1533-3.176-.3655-5.4471-.6268-4.6771-.4978-11.10419-1.1816-18.3585-1.9537l-.14869-.0158-.07351.1314c-.5858,1.0482-1.2036,2.1534-1.8307,3.2753-1.0056,1.8044-1.987,3.5656-2.9344,5.2656l-.1199.2151.2238.0996c6.14,2.7335,11.5255,5.1312,15.4336,6.8711,1.9008.8262,3.44,1.4952,4.556,1.9804.5039.21.9116.3799,1.2327.5138A2.01994,2.01994,0,0,0,599.01209,273.2644Z" transform="translate(-42.6071 -35.47034)"/><path class="cls-7" d="M582.45269,254.1175l2.15131-10.4627s-26.471-.3449-26.18021.1221,2.798,23.9876,2.798,23.9876,18.6144-.7062,17.9285-.6418Z" transform="translate(-42.6071 -35.47034)"/><path class="cls-11" d="M584.51939,249.3479h0a2.46289,2.46289,0,0,0-2.30239,1.5727,5.32366,5.32366,0,0,1-1.56971,2.5087c-1.1512.6279-3.1395,1.1291-4.186.6169s-5.2326-4.2797-5.9651-3.8611c-.7327.4186-1.3605,1.3605-.6281,2.1977.7326.8372,4.6048,3.3489,3.8722,4.1861s-8.8954-2.8477-10.15129-2.5227-1.98831,1.097-1.25581,1.6006c.7326.5034,6.2791,2.5965,6.5931,3.3291,0,0-8.3721-2.1977-8.6861-1.6745s-.83719,1.3605,0,1.6745,8.0583,2.1977,8.6861,2.5116a15.214,15.214,0,0,0,3.2275.9418,34.49437,34.49437,0,0,1,3.37221,1.0696,7.38965,7.38965,0,0,0,5.207-.1393l.84749-.3454a3.32344,3.32344,0,0,0,2.0637-3.2769l-.1713-2.8544.9133-2.3554Z" transform="translate(-42.6071 -35.47034)"/><path class="cls-7" d="M597.20849,256.6283c-.1438,0-.2604-6.012-.2604-13.4265,0-7.4171.1166-13.4279.2604-13.4279s.2604,6.0108.2604,13.4279C597.46889,250.6163,597.35219,256.6283,597.20849,256.6283Z" transform="translate(-42.6071 -35.47034)"/><path class="cls-7" d="M549.33779,223.7796a5.66693,5.66693,0,0,1,.035,1.2376c-.0262.901-.0589,2.0257-.0977,3.3608-.1052,2.8361-.2864,6.751-.5186,11.073-.2324,4.3235-.4718,8.2357-.6712,11.0668-.1045,1.3315-.1925,2.4531-.263,3.3517a5.67022,5.67022,0,0,1-.1674,1.2265,5.61509,5.61509,0,0,1-.0351-1.2342c.0261-.9006.0588-2.0248.0976-3.3594.1052-2.8361.28661-6.7533.519-11.0793.2324-4.3245.472-8.2382.6713-11.0692.1044-1.3312.1924-2.4525.2629-3.3507A5.62721,5.62721,0,0,1,549.33779,223.7796Z" transform="translate(-42.6071 -35.47034)"/><path class="cls-5" d="M596.71369,229.7725c0,.1438-10.4981.2604-23.4451.2604-12.95159,0-23.4474-.1166-23.4474-.2604s10.49581-.2604,23.4474-.2604C586.21559,229.5121,596.71369,229.6287,596.71369,229.7725Z" transform="translate(-42.6071 -35.47034)"/><path class="cls-5" d="M596.79769,232.3879c0,.1438-10.6576.2604-23.8015.2604-13.1484,0-23.8038-.1166-23.8038-.2604s10.6554-.2604,23.8038-.2604C586.14009,232.1275,596.79769,232.2441,596.79769,232.3879Z" transform="translate(-42.6071 -35.47034)"/><path class="cls-5" d="M597.197,235.7412c0,.1438-10.49811.2604-23.44521.2604-12.9515,0-23.4474-.1166-23.4474-.2604s10.4959-.2603,23.4474-.2603C586.69889,235.4809,597.197,235.5974,597.197,235.7412Z" transform="translate(-42.6071 -35.47034)"/><path class="cls-7" d="M593.80109,256.6536a55.03029,55.03029,0,0,1-2.9006,5.6743,55.03742,55.03742,0,0,1-3.0912,5.5735,49.37256,49.37256,0,0,1,5.9918-11.2478Z" transform="translate(-42.6071 -35.47034)"/><path class="cls-7" d="M596.69579,257.371a47.72877,47.72877,0,0,1-6.4186,11.1356,59.41394,59.41394,0,0,1,3.13481-5.6111A59.46125,59.46125,0,0,1,596.69579,257.371Z" transform="translate(-42.6071 -35.47034)"/><path class="cls-7" d="M502.99909,223.4082c.1236.1249-2.2118,2.3306-5.1822,4.9275a48.66109,48.66109,0,0,1-5.5593,4.503,49.94129,49.94129,0,0,1,5.2166-4.8951c1.4861-1.2988,2.8491-2.4545,3.85-3.2746A10.64311,10.64311,0,0,1,502.99909,223.4082Z" transform="translate(-42.6071 -35.47034)"/><path class="cls-7" d="M505.46329,225.244a52.32515,52.32515,0,0,1-5.2508,4.969c-1.4944,1.3218-2.8664,2.4965-3.8769,3.3274a8.63777,8.63777,0,0,1-1.707,1.2641,8.63421,8.63421,0,0,1,1.4628-1.5398c.9482-.9015,2.2821-2.1203,3.777-3.4426,1.4929-1.3237,2.8678-2.4953,3.8829-3.3206A8.64456,8.64456,0,0,1,505.46329,225.244Z" transform="translate(-42.6071 -35.47034)"/><path class="cls-8" d="M557.01429,457.6319l-.0517-9.043,16.93841-.2052.21589,13.2291-1.0494.0802c-4.6709.3162-23.772,1.2783-26.9081.3691C542.66169,461.0472,557.01429,457.6319,557.01429,457.6319Z" transform="translate(-42.6071 -35.47034)"/><g class="cls-13"><path d="M567.97379,461.5543a5.87675,5.87675,0,0,1,2.1175-3.6377,5.70823,5.70823,0,0,1,3.9445-1.2792l.0608,4.7338Z" transform="translate(-42.6071 -35.47034)"/></g><g class="cls-13"><path d="M550.00449,459.5515s-5.0266,1.5162-4.3871,2.3392c.6392.8232,19.9785.577,28.4995-.2779l-.0318-.378-22.5554.4792S550.99119,459.5806,550.00449,459.5515Z" transform="translate(-42.6071 -35.47034)"/></g><path class="cls-7" d="M574.351,461.2209a1.555,1.555,0,0,1-.29081.0352c-.2509.0184-.5256.0385-.8358.0611-.8361.0468-1.864.1041-3.0768.1718-2.5989.1265-6.1921.2537-10.1622.3079-3.9715.0529-7.567.0227-10.16839-.034-1.21431-.0349-2.24351-.0646-3.08041-.0888-.3104-.0143-.5857-.0269-.8371-.0385a.1467.1467,0,1,1,.0011-.0415c.2517,0,.527,0,.8378.0001.837.0064,1.866.0143,3.0805.0235,2.6009.0195,6.1945.0268,10.1637-.0261,3.9679-.054,7.5595-.1582,10.1591-.2476,1.2138-.0421,2.2421-.0776,3.0787-.1066.3109-.0084.5861-.0159.8377-.0225A1.58053,1.58053,0,0,1,574.351,461.2209Z" transform="translate(-42.6071 -35.47034)"/><path class="cls-7" d="M551.53759,461.977a4.4766,4.4766,0,0,0-1.6584-2.6275,2.7374,2.7374,0,0,1,1.6584,2.6275Z" transform="translate(-42.6071 -35.47034)"/><path class="cls-7" d="M556.50309,459.3778c-.0476.031-.2902-.257-.5424-.6431s-.4178-.7242-.3703-.7551c.0473-.0312.2902.2568.5423.6429S556.55049,459.3469,556.50309,459.3778Z" transform="translate(-42.6071 -35.47034)"/><path class="cls-7" d="M557.86529,458.6352c-.0374.0425-.307-.1324-.602-.3909-.2952-.2584-.5041-.5024-.467-.5451.0376-.0428.3071.1322.6023.3907C557.69359,458.3484,557.90269,458.5925,557.86529,458.6352Z" transform="translate(-42.6071 -35.47034)"/><path class="cls-7" d="M558.71209,457.0255a3.86522,3.86522,0,1,1-.8873-.0815A1.99441,1.99441,0,0,1,558.71209,457.0255Z" transform="translate(-42.6071 -35.47034)"/><path class="cls-7" d="M558.99529,455.8942a2.48891,2.48891,0,0,1-2.0025.1767,76.75358,76.75358,0,0,0,2.0025-.1767Z" transform="translate(-42.6071 -35.47034)"/><path class="cls-7" d="M555.90969,457.9075a3.1386,3.1386,0,0,1-1.0885.007,6.36476,6.36476,0,0,1-1.1621-.2408,3.17317,3.17317,0,0,1-.6667-.2648.588.588,0,0,1-.2737-.3347.42812.42812,0,0,1,.15931-.4371,1.99591,1.99591,0,0,1,2.47579.5525,1.94753,1.94753,0,0,1,.3644.7217.60311.60311,0,0,1,.0319.2936,3.06973,3.06973,0,0,0-.5076-.9221,1.96114,1.96114,0,0,0-.93749-.5924,1.68765,1.68765,0,0,0-1.296.1049c-.17131.1302-.10141.3325.09219.4447a3.26352,3.26352,0,0,0,.6152.2535,7.5083,7.5083,0,0,0,1.12461.2775C555.49429,457.8782,555.90949,457.874,555.90969,457.9075Z" transform="translate(-42.6071 -35.47034)"/><path class="cls-7" d="M555.62849,457.9652a1.07366,1.07366,0,0,1-.1352-.7543,1.785,1.785,0,0,1,.287-.7989,1.09321,1.09321,0,0,1,.8992-.5664.43325.43325,0,0,1,.3419.4983,1.19211,1.19211,0,0,1-.1788.4887,3.29473,3.29473,0,0,1-.5057.6651,1.56927,1.56927,0,0,1-.6173.4485c-.0193-.0262.21441-.1981.51-.5464a3.80114,3.80114,0,0,0,.4476-.659c.1465-.232.2434-.6463-.03019-.6925-.27281-.0226-.54751.2518-.71111.4712a1.79058,1.79058,0,0,0-.2988.7115A3.95748,3.95748,0,0,0,555.62849,457.9652Z" transform="translate(-42.6071 -35.47034)"/><path class="cls-7" d="M573.94619,456.5907c-.00319.0383-.4857-.04-1.25019.0601a5.30628,5.30628,0,0,0-4.39141,3.5928c-.2493.7292-.2682,1.2175-.3064,1.2132a.98175.98175,0,0,1-.0048-.3417,4.46419,4.46419,0,0,1,.1729-.9158,5.14825,5.14825,0,0,1,4.5139-3.6929,4.44239,4.44239,0,0,1,.9319.012A.9804.9804,0,0,1,573.94619,456.5907Z" transform="translate(-42.6071 -35.47034)"/><path class="cls-7" d="M572.10109,449.5644a59.10171,59.10171,0,0,1,.1767,6.9598,59.11622,59.11622,0,0,1-.1767-6.9598Z" transform="translate(-42.6071 -35.47034)"/><path class="cls-7" d="M565.82129,459.9299a13.90634,13.90634,0,0,1-4.9492.11c.0048-.0596,1.1115-.0061,2.4751-.0384C564.71029,459.9734,565.81379,459.8708,565.82129,459.9299Z" transform="translate(-42.6071 -35.47034)"/><path class="cls-7" d="M569.14079,459.8827c.0419.0409-.0875.2356-.1971.4909-.1134.254-.1688.481-.2271.4779-.0547.0004-.0907-.2664.0388-.5603C568.88339,459.9969,569.10379,459.8422,569.14079,459.8827Z" transform="translate(-42.6071 -35.47034)"/><path class="cls-7" d="M570.37219,458.3099c.0409.0394-.06619.2171-.23919.3969s-.34631.2938-.38721.2544c-.0409-.0391.06621-.2169.2393-.3968C570.158,458.3846,570.33129,458.2706,570.37219,458.3099Z" transform="translate(-42.6071 -35.47034)"/><path class="cls-7" d="M572.15339,457.5756c-.0112.0576-.2362.0586-.4839.1494-.2497.0849-.4254.2255-.4702.1875-.0459-.0305.0936-.2735.4019-.381C571.90859,457.4217,572.16979,457.523,572.15339,457.5756Z" transform="translate(-42.6071 -35.47034)"/><path class="cls-7" d="M573.42359,457.2238c.021.0526-.0751.141-.2149.1971-.1399.0564-.2704.0592-.2916.0067s.075-.1407.21491-.1971S573.40229,457.1713,573.42359,457.2238Z" transform="translate(-42.6071 -35.47034)"/><path class="cls-8" d="M608.47209,451.8828l1.6148,6.7806s11.08911,14.4035,14.5096,13.699c2.2416-.4614-.5131-4.2191-4.7312-15.1593l-.8851-4.5189Z" transform="translate(-42.6071 -35.47034)"/><path class="cls-7" d="M625.04779,470.2354a1.43923,1.43923,0,0,1-.59179.5671,2.05419,2.05419,0,0,1-2.123-.2951,61.88666,61.88666,0,0,1-5.51851-5.2298c-2.0536-2.1547-3.7784-4.2275-4.99149-5.7545-.53981-.6958-1.01011-1.302-1.41611-1.8254-.1372-.1777-.2636-.3417-.384-.4977a.92655.92655,0,0,0-.145-.1657.913.913,0,0,0,.1123.1892c.111.163.2276.3343.3539.5199.3123.4482.7765,1.0885,1.3676,1.8665a71.68875,71.68875,0,0,0,4.958,5.8052,54.12517,54.12517,0,0,0,5.5856,5.2103,2.61929,2.61929,0,0,0,1.2524.4604,1.81555,1.81555,0,0,0,.9847-.2147,1.23222,1.23222,0,0,0,.4661-.4329A.611.611,0,0,0,625.04779,470.2354Z" transform="translate(-42.6071 -35.47034)"/><path class="cls-7" d="M623.47729,465.6055a1.79487,1.79487,0,0,0-.9119-.1007,4.76262,4.76262,0,0,0-2.0902.7259,3.82992,3.82992,0,0,0-1.51919,1.6055,1.98614,1.98614,0,0,0-.23981.8859c.0346.0093.1047-.3364.36581-.822a4.07309,4.07309,0,0,1,1.49809-1.4994,5.26985,5.26985,0,0,1,2.0001-.7554C623.12739,465.5687,623.472,465.64,623.47729,465.6055Z" transform="translate(-42.6071 -35.47034)"/><path class="cls-7" d="M612.97879,462.225a1.10764,1.10764,0,0,0,.1327-.3242,5.939,5.939,0,0,0,.2186-.9292,5.04642,5.04642,0,0,0-.51709-3.0841,4.768,4.768,0,0,0-2.24161-2.1782,3.67931,3.67931,0,0,0-.9155-.2825,1.02208,1.02208,0,0,0-.3502-.022,7.84118,7.84118,0,0,1,1.2049.4318,4.90274,4.90274,0,0,1,2.1243,2.1413,5.218,5.218,0,0,1,.55511,2.9758C613.09929,461.7404,612.94329,462.2156,612.97879,462.225Z" transform="translate(-42.6071 -35.47034)"/><path class="cls-7" d="M609.17809,453.0331c-.0486.0177.2025.9646.4093,2.163a7.39547,7.39547,0,0,0,.5773,2.1329c.0436-.0165-.1789-.9673-.381-2.1698A7.19444,7.19444,0,0,0,609.17809,453.0331Z" transform="translate(-42.6071 -35.47034)"/><path class="cls-7" d="M620.06169,458.1598a3.332,3.332,0,0,0-2.70669.6242c.02949.0519.58479-.2451,1.33019-.413C619.42849,458.1955,620.05789,458.2194,620.06169,458.1598Z" transform="translate(-42.6071 -35.47034)"/><path class="cls-7" d="M620.28969,459.3209a2.25328,2.25328,0,0,0-2.2496.5345c.03391.0489.477-.2406,1.0972-.3835C619.75509,459.3206,620.28119,459.3798,620.28969,459.3209Z" transform="translate(-42.6071 -35.47034)"/><path class="cls-7" d="M621.175,460.7786a1.81694,1.81694,0,0,0-2.29181.5205,3.09923,3.09923,0,0,1,2.29181-.5205Z" transform="translate(-42.6071 -35.47034)"/><path class="cls-7" d="M619.29859,457.6728c.00741-.0328-.5122-.1386-1.3028-.4448a9.95149,9.95149,0,0,1-1.3377-.6432c-.2415-.1393-.491-.2972-.7365-.4712-.2254-.1675-.474-.4126-.4654-.6752.0049-.2702.3374-.4071.5912-.3418a1.61632,1.61632,0,0,1,.6853.4568c.4082.3849.7565.752,1.04,1.0683.56631.6338.8814,1.0581.9064,1.0398a1.26685,1.26685,0,0,0-.1882-.322c-.1346-.198-.3384-.4789-.611-.8099a14.04141,14.04141,0,0,0-1.0197-1.109,1.74807,1.74807,0,0,0-.7687-.5145.64552.64552,0,0,0-.8346.5212,1.11044,1.11044,0,0,0,.55011.8448,8.82593,8.82593,0,0,0,2.14,1.0885,7.58757,7.58757,0,0,0,.981.2674A1.20182,1.20182,0,0,0,619.29859,457.6728Z" transform="translate(-42.6071 -35.47034)"/><path class="cls-7" d="M618.71619,457.5327a12.3547,12.3547,0,0,0,.203-1.2386,5.17675,5.17675,0,0,1,.3775-1.2821,2.77305,2.77305,0,0,1,.4135-.6532c.1695-.1916.427-.3561.6347-.2348.2032.1122.23611.4245.2049.6757a3.0575,3.0575,0,0,1-.2159.7444,4.26015,4.26015,0,0,1-.7243,1.1161c-.5142.5701-.9159.844-.8934.8726a.99163.99163,0,0,0,.2931-.1727,5.10938,5.10938,0,0,0,.704-.6041,4.0847,4.0847,0,0,0,.7889-1.1376,3.11353,3.11353,0,0,0,.2417-.7947.84718.84718,0,0,0-.3027-.8746.73588.73588,0,0,0-.8761.2784,2.84563,2.84563,0,0,0-.4359.7082,4.86145,4.86145,0,0,0-.3496,1.3371c-.0497.3885-.0643.7032-.0729.9206A1.11014,1.11014,0,0,0,618.71619,457.5327Z" transform="translate(-42.6071 -35.47034)"/><g class="cls-13"><path d="M610.08689,458.6634l-.7812-3.2586s2.7174.5027,3.4226,2.5365a8.52655,8.52655,0,0,1,.5295,3.4811l5.907,6.3612s1.4824-2.8955,4.1661-2.1997c0,0,2.1113,4.6439,2.04611,5.8082-.07151,1.279-1.41861,1.0232-1.89971.8048a23.842,23.842,0,0,1-5.2892-4.1735C615.05869,464.7764,611.602,460.6587,610.08689,458.6634Z" transform="translate(-42.6071 -35.47034)"/></g><polygon class="cls-7" points="502.979 248.974 511.053 419.711 533.219 420.239 531.473 272.196 564.636 420.515 582.441 419.711 553.913 249.318 502.979 248.974"/><path class="cls-10" d="M568.64629,286.7477a16.87838,16.87838,0,0,0,.2001,2.8075c.1825,1.727.46661,4.1083.8089,6.7347a28.07283,28.07283,0,0,0,.6171,3.7117,5.218,5.218,0,0,0,1.6263,2.6521,4.06052,4.06052,0,0,0,1.882.9251,1.53071,1.53071,0,0,0,.7666.0158,4.74046,4.74046,0,0,1-3.8622-3.7085,32.89039,32.89039,0,0,1-.5686-3.6563c-.3423-2.6264-.678-5.0012-.944-6.7171A16.85641,16.85641,0,0,0,568.64629,286.7477Z" transform="translate(-42.6071 -35.47034)"/><path class="cls-10" d="M574.10059,287.7638c-.0593.04.1465.3205.0061.7635a.89361.89361,0,0,1-.4619.5505.79845.79845,0,0,1-1.0075-.9528.89318.89318,0,0,1,.5239-.4918c.4345-.165.7259.0249.7627-.0365.0555-.0231-.2294-.3955-.8507-.2804a1.17036,1.17036,0,0,0-.8321.6453,1.19417,1.19417,0,0,0,1.58891,1.5026,1.17,1.17,0,0,0,.59789-.8668C574.50829,287.9708,574.12039,287.707,574.10059,287.7638Z" transform="translate(-42.6071 -35.47034)"/><path class="cls-10" d="M588.16879,290.7053a4.96761,4.96761,0,0,0-.3299-4.727c-.126.0521.2182,1.0643.3009,2.3542C588.237,289.6209,588.03669,290.6711,588.16879,290.7053Z" transform="translate(-42.6071 -35.47034)"/><path class="cls-10" d="M585.00619,290.386a5.76481,5.76481,0,0,0-.1623-4.9212,21.73338,21.73338,0,0,0,.1682,2.4579A21.67454,21.67454,0,0,0,585.00619,290.386Z" transform="translate(-42.6071 -35.47034)"/><path class="cls-10" d="M557.73629,290.0734a186.80787,186.80787,0,0,1-.0749-5.1064,6.99657,6.99657,0,0,0,.0749,5.1064Z" transform="translate(-42.6071 -35.47034)"/><path class="cls-10" d="M554.30119,289.7558c.1284-.0491-.2421-1.1726-.2806-2.6004-.0552-1.4278.2408-2.5728.10941-2.6135a5.483,5.483,0,0,0,.17119,5.2139Z" transform="translate(-42.6071 -35.47034)"/><polygon class="cls-8" points="541.17 174.163 541.17 174.163 541.169 174.164 541.17 174.163"/><path class="cls-8" d="M549.6,215.926" transform="translate(-42.6071 -35.47034)"/><path class="cls-11" d="M495.98469,219.9822s-4.0922-6.9212-5.0589-7.6464c-.9669-.725-9.557-3.7097-10.2822-3.468-.725.2417-11.04259,2.1809-9.8341,3.3895s8.4013-.2442,8.4013-.2442l.97621.4679s-6.21591,1.0966-7.51571,1.8768c-1.19629.7182-.7577,2.1898.3819,2.0528s6.53781-1.2751,6.8634-1.058-5.8669,1.5585-6.5292,1.965c-.8913.5469-.9548,2.1483.17961,2.051.66889-.0574,6.50379-1.6674,6.50379-1.6674a50.01764,50.01764,0,0,0-5.0385,2.281c-.6902.6771-.11729,1.6796.8852,1.4409.6884-.1639,3.9449-1.7831,4.8674-2.0003,0,0,.8684.2172,1.6824,1.9538s5.1375,5.1717,5.1375,5.1717Z" transform="translate(-42.6071 -35.47034)"/><path class="cls-12" d="M470.83039,212.2832a4.78068,4.78068,0,0,0,1.8939.4897,11.13977,11.13977,0,0,0,2.1334.0535c.78931-.1012,1.65131-.2376,2.55831-.3781.66919-.1092,1.31459-.2146,1.925-.3143l-.11661-.0088a27.84948,27.84948,0,0,0,4.4847,1.3257,27.81881,27.81881,0,0,0-4.3343-1.7654l-.0515-.0187-.0654.0099c-.6058.0921-1.2461.1893-1.9102.2902q-1.3257.21645-2.5282.413a13.7181,13.7181,0,0,1-2.06549.0503C471.57389,212.3681,470.84789,212.2099,470.83039,212.2832Z" transform="translate(-42.6071 -35.47034)"/><path class="cls-10" d="M463.32079,207.3567s-7.4593,22.6291-9.9653,27.2009l25.4029,7.7634,4.6187-2.9478s6.1681-18.2264,6.9514-24.3466Z" transform="translate(-42.6071 -35.47034)"/><polygon class="cls-7" points="437.493 203.064 436.151 206.851 440.77 203.903 437.493 203.064"/><path class="cls-5" d="M483.432,222.9293a18.2326,18.2326,0,0,1-2.84511-.8926c-1.8936-.6504-4.2188-1.4491-6.7901-2.3323-2.5843-.8474-4.9207-1.6135-6.8233-2.2373a18.20367,18.20367,0,0,1-2.8071-1.0047,15.81477,15.81477,0,0,1,2.912.6517c1.7785.4781,4.2188,1.2026,6.8841,2.0966,2.6641.8949,5.047,1.7893,6.7538,2.4812A15.8092,15.8092,0,0,1,483.432,222.9293Z" transform="translate(-42.6071 -35.47034)"/><path class="cls-5" d="M481.26969,228.0362a14.77175,14.77175,0,0,1-2.7903-.6257c-1.7036-.4589-4.0418-1.1492-6.59939-1.9889-2.55821-.8408-4.85051-1.6715-6.49441-2.3122a14.78243,14.78243,0,0,1-2.61759-1.1508,16.41634,16.41634,0,0,1,2.74189.8042l6.5326,2.1641c2.471.8048,4.7058,1.5327,6.5423,2.1308A16.41741,16.41741,0,0,1,481.26969,228.0362Z" transform="translate(-42.6071 -35.47034)"/><path class="cls-5" d="M478.69809,232.625a153.19148,153.19148,0,0,1-16.9223-5.7051,153.264,153.264,0,0,1,16.9223,5.7051Z" transform="translate(-42.6071 -35.47034)"/><path class="cls-11" d="M493.37129,220.743a2.06279,2.06279,0,0,1-2.404.0373c-.7448-.4314-1.3214-1.1026-2.0332-1.5866-2.1285-1.4473-5.1538-1.0453-7.2105-2.5929-.2867-.2157-.5727-.5719-.4228-.8978.139-.3021.544-.3431.8765-.3405l8.5255.0636" transform="translate(-42.6071 -35.47034)"/><path class="cls-12" d="M490.70279,215.4261a3.41311,3.41311,0,0,0-.9212-.1015c-.5934-.0336-1.4522-.0662-2.5135-.0961-1.1043-.0237-2.3589-.0506-3.7283-.08q-.52815-.0078-1.0777-.0161a1.68981,1.68981,0,0,0-1.2469.2805.71874.71874,0,0,0-.126.7966,1.475,1.475,0,0,0,.4369.5439,5.58162,5.58162,0,0,0,1.08091.6415,32.65241,32.65241,0,0,0,4.43619,1.1894,6.42456,6.42456,0,0,1,1.7622.7668c.5008.3286.9218.7317,1.3487,1.0628a3.00067,3.00067,0,0,0,2.4095.8075c.6282-.1323.8288-.4774.8077-.4784a2.49225,2.49225,0,0,1-.8348.2911,2.90583,2.90583,0,0,1-2.165-.8867c-.3986-.335-.8069-.7569-1.3406-1.1306a6.62119,6.62119,0,0,0-1.85889-.8617,37.9896,37.9896,0,0,1-4.36291-1.2025,5.2369,5.2369,0,0,1-.9792-.5757c-.2794-.2174-.4202-.5157-.27089-.6342.14269-.1543.53449-.152.89969-.1459q.54915,0,1.0778-.0001c1.3697-.009,2.62451-.0171,3.7291-.0244,1.0615-.014,1.9208-.0338,2.5146-.0584A3.41371,3.41371,0,0,0,490.70279,215.4261Z" transform="translate(-42.6071 -35.47034)"/></g><g id="Character_1" data-name="Character 1"><path class="cls-7" d="M297.67719,179.7232a7.7683,7.7683,0,0,0-3.174-7.7783,8.36415,8.36415,0,0,0-8.4601-.4415,9.06445,9.06445,0,0,0-4.6692,7.1472c-.2871,3.3447,1.2258,6.5426,2.52,9.6401s2.4105,6.5724,1.3369,9.753c-.8854,2.6232-3.0902,4.5329-4.9816,6.5548a13.3761,13.3761,0,0,0-3.7441,6.4374c-.4589,2.4748.468,5.3476,2.7002,6.5106a3.601,3.601,0,0,1,1.4171.9252c.61461.8791-.0327,2.0433-.4515,3.0308a6.902,6.902,0,0,0-.2303,4.6902c1.039,3.3561,4.7107,5.5033,8.2185,5.3066a11.50735,11.50735,0,0,0,8.6365-5.3553,19.78412,19.78412,0,0,0,2.9022-10.0004,74.99432,74.99432,0,0,0-.5865-10.5138c-.82029-8.7833,3.28271-17.8654,3.723-26.676" transform="translate(-42.6071 -35.47034)"/><path class="cls-14" d="M305.56059,232.0679h0a8.79119,8.79119,0,0,0,9.4567-8.4291c.1841-4.7855.3445-9.6231.3445-9.6231s7.2513-.6793,7.7774-7.8559.28581-23.7439.28581-23.7439h0a25.007,25.007,0,0,0-25.27281,1.6249l.4471,25.2573v13.5883C298.64719,227.4441,301.01609,231.7189,305.56059,232.0679Z" transform="translate(-42.6071 -35.47034)"/><path class="cls-7" d="M315.98649,197.3988a3.67786,3.67786,0,0,0-4.9039-1.0707,4.17129,4.17129,0,0,0-1.3898,5.2154,5.49648,5.49648,0,0,0,3.5208,2.6621,2.75565,2.75565,0,0,1,2.158,2.9676,9.1897,9.1897,0,0,1-2.5197,4.9978,13.24628,13.24628,0,0,1-8.3068,3.9354c-3.0567.3614-6.558-.2757-8.3363-2.788-1.2939-1.8279-1.3874-4.2171-1.4337-6.4562q-.16425-7.93695-.3284-15.874a22.7158,22.7158,0,0,1,.3615-5.6956,7.64764,7.64764,0,0,1,3.0042-4.7101c1.7457-1.1487,3.9567-1.2468,5.9451-1.8898,2.4854-.8038,4.5964-2.4525,6.9219-3.6422s5.1764-1.9005,7.511-.7287c1.6758.841,2.7992,2.5135,4.429,3.4405,2.3202,1.3196,5.47861,1.02,6.6053,4.4316a5.78389,5.78389,0,0,1-.0386,3.6493c-1.5732,4.6428-7.3236,6.5146-11.465,4.5078-.0817.7866.6928,2.5365-.1352,5.0208-.2646.7938-.3588,2.0043-1.5994,2.027" transform="translate(-42.6071 -35.47034)"/><path class="cls-7" d="M296.08479,212.5786a21.52895,21.52895,0,0,1-1.1681-30.0238" transform="translate(-42.6071 -35.47034)"/><path class="cls-10" d="M301.53659,214.8949a.90786.90786,0,0,1-.3654.1015,3.89871,3.89871,0,0,1-1.0886.0151,6.096,6.096,0,0,1-3.5151-1.8295,18.06279,18.06279,0,0,1-3.1632-4.9662,31.96993,31.96993,0,0,1-2.3667-6.7981,25.90349,25.90349,0,0,1-.6077-7.1795,22.795,22.795,0,0,1,1.0948-5.7812,18.9332,18.9332,0,0,1,1.6178-3.6175,10.35994,10.35994,0,0,1,.581-.9064c.1426-.2007.22451-.301.2396-.2912a31.99487,31.99487,0,0,0-2.0873,4.926,23.85133,23.85133,0,0,0-.9667,5.696,26.53269,26.53269,0,0,0,.63691,7.0409,33.21976,33.21976,0,0,0,2.29269,6.7073,18.60162,18.60162,0,0,0,2.9918,4.9122,6.13786,6.13786,0,0,0,3.2827,1.8868A9.81384,9.81384,0,0,0,301.53659,214.8949Z" transform="translate(-42.6071 -35.47034)"/><path class="cls-10" d="M294.09779,183.2989c.078-.0393.6417,1.038,1.7205,2.6647a34.29558,34.29558,0,0,0,10.8976,10.4561c1.6699,1.0107,2.7694,1.5292,2.7333,1.6087a2.7345,2.7345,0,0,1-.81419-.2734,20.27745,20.27745,0,0,1-2.10311-1.0163,29.53938,29.53938,0,0,1-11.0247-10.5781,20.29812,20.29812,0,0,1-1.1025-2.0594A2.738,2.738,0,0,1,294.09779,183.2989Z" transform="translate(-42.6071 -35.47034)"/><path class="cls-10" d="M307.96069,194.5042a9.22865,9.22865,0,0,1-2.3214-1.1554,26.51395,26.51395,0,0,1-8.7755-8.8157,9.2273,9.2273,0,0,1-1.1447-2.3265,20.70308,20.70308,0,0,1,1.4545,2.1274,32.86547,32.86547,0,0,0,8.6662,8.7059A20.74056,20.74056,0,0,1,307.96069,194.5042Z" transform="translate(-42.6071 -35.47034)"/><path class="cls-10" d="M317.31289,194.4988a3.66336,3.66336,0,0,1-.9934-.075,19.92845,19.92845,0,0,1-2.6581-.5476,27.71748,27.71748,0,0,1-14.6671-9.8227,19.92287,19.92287,0,0,1-1.5182-2.2493,3.65482,3.65482,0,0,1-.4475-.8899c.0809-.0499.8113,1.1615,2.2537,2.9097a30.46625,30.46625,0,0,0,14.48171,9.6986C315.92969,194.1907,317.32829,194.405,317.31289,194.4988Z" transform="translate(-42.6071 -35.47034)"/><path class="cls-10" d="M288.17769,224.396c-.0228-.0166.1456-.2011.3158-.6222a3.18333,3.18333,0,0,0,.0819-1.9411,4.71726,4.71726,0,0,0-1.7192-2.5388c-.9418-.7951-2.2198-1.4122-3.5453-2.295a7.788,7.788,0,0,1-1.8636-1.692,4.6943,4.6943,0,0,1-.9522-2.5839,8.74,8.74,0,0,1,2.0907-5.5535c1.25621-1.6745,2.8604-3.2025,3.8016-5.205a11.7838,11.7838,0,0,0,.75661-6.7063,31.24734,31.24734,0,0,0-1.92171-6.6548,51.56716,51.56716,0,0,1-2.0828-6.2039c-.4547-2.0198-.7802-4.1099-.0688-5.9448a4.34138,4.34138,0,0,1,1.7627-2.1255,3.23454,3.23454,0,0,1,2.5254-.3323,7.81033,7.81033,0,0,1,3.4419,2.5414c.8096.9295,1.5132,1.7373,2.1035,2.4151.5427.6368.9785,1.1483,1.3124,1.5402a3.59887,3.59887,0,0,1,.4312.5606,3.60146,3.60146,0,0,1-.5094-.4906c-.35239-.3753-.8125-.8651-1.3853-1.4751-.6083-.6607-1.3333-1.4481-2.1677-2.3542a7.627,7.627,0,0,0-3.31939-2.381,2.8541,2.8541,0,0,0-2.22631.3207,3.94279,3.94279,0,0,0-1.5665,1.9372c-.6398,1.6764-.3307,3.6951.13281,5.6756a52.48977,52.48977,0,0,0,2.09339,6.1357,31.30792,31.30792,0,0,1,1.9601,6.7617,12.23292,12.23292,0,0,1-.8103,6.9972c-1.0089,2.1154-2.6488,3.648-3.8818,5.2791a8.34826,8.34826,0,0,0-2.041,5.2396,4.288,4.288,0,0,0,.843,2.3665,7.47879,7.47879,0,0,0,1.7513,1.6297,40.61775,40.61775,0,0,1,3.5235,2.3753,4.87751,4.87751,0,0,1,1.72881,2.716,3.16837,3.16837,0,0,1-.18321,2.0279A1.726,1.726,0,0,1,288.17769,224.396Z" transform="translate(-42.6071 -35.47034)"/><path class="cls-8" d="M271.2764,455.713l4.87689-5.9321-11.05349-9.2063-7.2268,8.6031.6487.6148c2.9091,2.7097,14.9824,13.5729,17.53609,14.6531C278.90649,465.6499,271.2764,455.713,271.2764,455.713Z" transform="translate(-42.6071 -35.47034)"/><g class="cls-15"><path class="cls-5" d="M261.953,452.4289a4.99029,4.99029,0,0,0,.5525-3.5315,4.84827,4.84827,0,0,0-1.9144-2.9554l-2.5753,3.0873Z" transform="translate(-42.6071 -35.47034)"/></g><g class="cls-13"><path class="cls-5" d="M274.8683,460.7319s2.5007,3.6911,1.63849,3.8912c-.862.2002-13.47589-10.3187-18.63379-15.4454l.2235-.2322,14.6085,12.3949S274.2024,460.2228,274.8683,460.7319Z" transform="translate(-42.6071 -35.47034)"/></g><path class="cls-7" d="M257.9287,448.794a1.31693,1.31693,0,0,0,.1727.179c.1555.1465.3258.3068.5181.4878q.789.7179,1.9359,1.7609c1.645,1.4752,3.9449,3.4833,6.5325,5.6451,2.589,2.1617,4.975,4.0673,6.7197,5.4231q1.2285.9408,2.07759,1.591c.2124.1569.4004.2959.5723.4229a.12459.12459,0,1,0,.02151-.0278c-.16591-.1348-.34731-.2822-.55221-.4486q-.8325-.66615-2.04269-1.6343c-1.7246-1.38-4.0968-3.2997-6.6845-5.4601-2.5861-2.1606-4.8973-4.1526-6.5627-5.6037q-1.16625-1.01655-1.972-1.719c-.2004-.172-.3778-.3243-.54-.4633A1.34863,1.34863,0,0,0,257.9287,448.794Z" transform="translate(-42.6071 -35.47034)"/><path class="cls-7" d="M272.559,461.5096a3.8,3.8,0,0,1,2.4999-.8436,2.324,2.324,0,0,0-2.4999.8436Z" transform="translate(-42.6071 -35.47034)"/><path class="cls-7" d="M270.6784,457.1374a1.51824,1.51824,0,0,0,.7018-.1334c.3729-.1195.6632-.2536.6485-.2994a1.5165,1.5165,0,0,0-.7017.1334C270.9541,456.9574,270.6637,457.0915,270.6784,457.1374Z" transform="translate(-42.6071 -35.47034)"/><path class="cls-7" d="M270.1782,455.9184c.0019.0482.2733.0772.6061.0649.333-.0123.6014-.0613.5997-.1094s-.2731-.0772-.606-.0649S270.1765,455.8703,270.1782,455.9184Z" transform="translate(-42.6071 -35.47034)"/><path class="cls-7" d="M270.4823,454.4041c-.0314.0367.1994.2848.5151.5541.3158.2695.5971.458.6284.4214s-.1994-.2846-.5152-.5541C270.7948,454.5562,270.5135,454.3674,270.4823,454.4041Z" transform="translate(-42.6071 -35.47034)"/><path class="cls-7" d="M270.9013,453.5068a2.1139,2.1139,0,0,0,1.2253,1.1888c.0256-.0433-.2845-.2656-.6166-.5903C271.1755,453.7831,270.9439,453.4798,270.9013,453.5068Z" transform="translate(-42.6071 -35.47034)"/><path class="cls-7" d="M271.8568,456.4861a2.66484,2.66484,0,0,0,.7137.5876,5.41345,5.41345,0,0,0,.8947.4636,2.69863,2.69863,0,0,0,.5813.1826.50011.50011,0,0,0,.3596-.074.36385.36385,0,0,0,.1291-.3735,1.695,1.695,0,0,0-1.9275-.9618,1.65316,1.65316,0,0,0-.6267.2805c-.1297.0978-.1853.1689-.1783.1765a2.61166,2.61166,0,0,1,.8284-.3359,1.66621,1.66621,0,0,1,.935.1116,1.433,1.433,0,0,1,.7981.7632c.0431.1775-.1114.2735-.299.2436a2.75848,2.75848,0,0,1-.5412-.1623,6.3731,6.3731,0,0,1-.8898-.4194C272.1462,456.6892,271.8749,456.4641,271.8568,456.4861Z" transform="translate(-42.6071 -35.47034)"/><path class="cls-7" d="M272.0113,456.6747c.0037.0162.2596-.0778.493-.4247a1.51485,1.51485,0,0,0,.2386-.6803.92765.92765,0,0,0-.2892-.8547.3679.3679,0,0,0-.4922.1453,1.00974,1.00974,0,0,0-.1438.4178,2.79592,2.79592,0,0,0-.023.7092,1.331,1.331,0,0,0,.1667.6261c.0268-.0069-.0352-.2453-.0436-.6333a3.23778,3.23778,0,0,1,.058-.6738c.0277-.2314.1857-.5564.3907-.4403a.82656.82656,0,0,1,.2163.6913,1.51913,1.51913,0,0,1-.1841.629A3.36911,3.36911,0,0,1,272.0113,456.6747Z" transform="translate(-42.6071 -35.47034)"/><path class="cls-7" d="M260.675,445.9593c-.0184.0269.3415.2337.7918.709a4.50685,4.50685,0,0,1,.9702,4.7196c-.2263.6142-.4754.946-.4479.9637.0086.0062.0788-.0699.1862-.2226a3.78656,3.78656,0,0,0,.3764-.6962,4.37182,4.37182,0,0,0-.9972-4.8511,3.78325,3.78325,0,0,0-.6206-.4912A.83372.83372,0,0,0,260.675,445.9593Z" transform="translate(-42.6071 -35.47034)"/><path class="cls-7" d="M265.6539,442.3166a50.13808,50.13808,0,0,0-3.8437,4.4923,50.12549,50.12549,0,0,0,3.8437-4.4923Z" transform="translate(-42.6071 -35.47034)"/><path class="cls-7" d="M264.2415,452.5111a11.81441,11.81441,0,0,0,3.2029,2.7229c.0288-.0418-.7294-.5992-1.6107-1.3507C264.9504,453.1346,264.2781,452.476,264.2415,452.5111Z" transform="translate(-42.6071 -35.47034)"/><path class="cls-7" d="M262.079,450.7023c-.0495.0045-.0685.2021-.1329.4291-.0613.228-.1464.4072-.1063.4366.0359.0295.2025-.1271.2744-.3901C262.1875,450.9153,262.1251,450.6954,262.079,450.7023Z" transform="translate(-42.6071 -35.47034)"/><path class="cls-7" d="M262.1098,449.0063c-.048.004-.0726.1784-.0549.3896s.0709.3791.1189.3751.0725-.1784.0549-.3898C262.2109,449.1702,262.1577,449.0023,262.1098,449.0063Z" transform="translate(-42.6071 -35.47034)"/><path class="cls-7" d="M261.3291,447.5685c-.0236.044.1244.1651.2389.3576.1191.1896.1596.3764.2095.3754.0466.0045.0847-.2304-.0608-.4664C261.5729,447.5981,261.3464,447.525,261.3291,447.5685Z" transform="translate(-42.6071 -35.47034)"/><path class="cls-7" d="M260.6804,446.6564c-.0421.0234-.0259.133.0361.245s.1465.1838.1886.1606.0259-.133-.0361-.2451C260.807,446.705,260.7225,446.6331,260.6804,446.6564Z" transform="translate(-42.6071 -35.47034)"/><path class="cls-8" d="M322.03349,458.1689l-.1718-7.6775-14.3834.2298.1324,11.2349.8927.0431c3.9725.1568,20.20961.5179,22.85-.3287C334.29829,460.7256,322.03349,458.1689,322.03349,458.1689Z" transform="translate(-42.6071 -35.47034)"/><g class="cls-15"><path class="cls-5" d="M312.82389,461.7598a4.9893,4.9893,0,0,0-1.8843-3.0373,4.84789,4.84789,0,0,0-3.3787-.9919l.0612,4.0199Z" transform="translate(-42.6071 -35.47034)"/></g><g class="cls-13"><path class="cls-5" d="M328.02959,459.631s4.303,1.1672,3.7799,1.8812c-.5229.7139-16.9453.9664-24.1988.4439l.018-.3217,19.1579-.1313S327.19279,459.6794,328.02959,459.631Z" transform="translate(-42.6071 -35.47034)"/></g><path class="cls-7" d="M307.40269,461.629a1.31694,1.31694,0,0,0,.2476.023c.2134.0096.4471.0201.7109.0319.7109.0197,1.5847.0439,2.616.0724,2.2091.0454,5.2622.0677,8.6337.0189,3.3724-.0498,6.4239-.1613,8.6308-.2714,1.0299-.0587,1.9027-.1084,2.6125-.1488.2633-.0196.4965-.0369.7096-.0527a.12463.12463,0,1,0-.00179-.0351c-.21361.006-.44731.0125-.71121.02-.7103.0253-1.5836.0566-2.6143.0934-2.2074.0786-5.2576.1705-8.6282.2203-3.3695.0488-6.4207.046-8.6296.0322-1.0314-.0067-1.9052-.0124-2.616-.0171-.2641.0003-.4979.0006-.7116.001A1.32793,1.32793,0,0,0,307.40269,461.629Z" transform="translate(-42.6071 -35.47034)"/><path class="cls-7" d="M326.78619,461.7266a3.79935,3.79935,0,0,1,1.345-2.2699,2.32412,2.32412,0,0,0-1.345,2.2699Z" transform="translate(-42.6071 -35.47034)"/><path class="cls-7" d="M322.50909,459.6387c.0411.0252.2403-.2251.445-.5588s.3375-.6248.2964-.6499c-.041-.0253-.2402.2249-.445.5587S322.46809,459.6135,322.50909,459.6387Z" transform="translate(-42.6071 -35.47034)"/><path class="cls-7" d="M321.335,459.0408c.03279.0353.25749-.1197.50179-.3461s.4159-.4386.38321-.474-.25731.1196-.50171.3461S321.30229,459.0055,321.335,459.0408Z" transform="translate(-42.6071 -35.47034)"/><path class="cls-7" d="M320.57789,457.6946a3.28372,3.28372,0,1,0,.75111-.0903A1.69428,1.69428,0,0,0,320.57789,457.6946Z" transform="translate(-42.6071 -35.47034)"/><path class="cls-7" d="M320.31039,456.7411a2.11406,2.11406,0,0,0,1.7041.1021,64.35706,64.35706,0,0,1-1.7041-.1021Z" transform="translate(-42.6071 -35.47034)"/><path class="cls-7" d="M322.97769,458.3765a2.667,2.667,0,0,0,.92431-.0201,5.40152,5.40152,0,0,0,.98059-.2321,2.694,2.694,0,0,0,.5597-.2407.49966.49966,0,0,0,.2243-.2906.36386.36386,0,0,0-.1457-.3673,1.6952,1.6952,0,0,0-2.0885.528,1.65508,1.65508,0,0,0-.2921.6214.51233.51233,0,0,0-.02.25,2.61011,2.61011,0,0,1,.4089-.7949,1.66642,1.66642,0,0,1,.7816-.5252,1.43315,1.43315,0,0,1,1.1027.0581c.14851.1064.0939.2799-.0678.3797a2.7604,2.7604,0,0,1-.5161.2299,6.36985,6.36985,0,0,1-.948.2623C323.32959,458.3417,322.97709,458.348,322.97769,458.3765Z" transform="translate(-42.6071 -35.47034)"/><path class="cls-7" d="M323.21779,458.4186a.91057.91057,0,0,0,.0968-.6434,1.517,1.517,0,0,0-.2628-.6714.92784.92784,0,0,0-.7767-.4593.36787.36787,0,0,0-.2783.4312,1.00939,1.00939,0,0,0,.1634.4105,2.79947,2.79947,0,0,0,.4451.5526,1.33257,1.33257,0,0,0,.53471.3659c.01579-.0227-.18671-.163-.44611-.4516a3.23773,3.23773,0,0,1-.3954-.5487c-.13-.1934-.2222-.5428.009-.5885.231-.0258.4707.2007.6148.383a1.52064,1.52064,0,0,1,.27071.5969A3.357,3.357,0,0,1,323.21779,458.4186Z" transform="translate(-42.6071 -35.47034)"/><path class="cls-7" d="M307.63579,457.689c.0036.0324.4113-.0456,1.0626.0211a4.50647,4.50647,0,0,1,3.8135,2.945c.22911.6131.2566,1.0272.289,1.0226a.83156.83156,0,0,0-.004-.2901,3.78833,3.78833,0,0,0-.1687-.7733,4.37174,4.37174,0,0,0-3.9198-3.0271,3.78466,3.78466,0,0,0-.7908.0324A.83059.83059,0,0,0,307.63579,457.689Z" transform="translate(-42.6071 -35.47034)"/><path class="cls-7" d="M309.03449,451.6805a50.15038,50.15038,0,0,0,.016,5.9122,50.20724,50.20724,0,0,0-.016-5.9122Z" transform="translate(-42.6071 -35.47034)"/><path class="cls-7" d="M314.61239,460.3297a11.81386,11.81386,0,0,0,4.2039-.0248c-.0056-.0504-.9438.0215-2.102.0265C315.55649,460.34,314.61729,460.2792,314.61239,460.3297Z" transform="translate(-42.6071 -35.47034)"/><path class="cls-7" d="M311.79339,460.3688c-.0345.0357.0799.1979.1791.412.1023.2128.1546.4042.2041.4003.0465-.0011.0706-.2284-.0463-.4747C312.01459,460.4595,311.82379,460.3335,311.79339,460.3688Z" transform="translate(-42.6071 -35.47034)"/><path class="cls-7" d="M310.71059,459.063c-.0338.0344.06141.1827.2125.3312s.301.2412.3348.2068c.0337-.0342-.0614-.1825-.2126-.3312C310.89419,459.1214,310.74429,459.0287,310.71059,459.063Z" transform="translate(-42.6071 -35.47034)"/><path class="cls-7" d="M309.18119,458.4823c.01081.0487.2019.044.4143.1152.2139.0661.3664.1813.4036.148.0382-.027-.086-.23-.3502-.3139C309.38529,458.3457,309.16589,458.438,309.18119,458.4823Z" transform="translate(-42.6071 -35.47034)"/><path class="cls-7" d="M308.09459,458.2139c-.0167.0452.067.1178.1871.1622s.2309.0438.2477-.0013-.0671-.1177-.1872-.1622S308.11129,458.1688,308.09459,458.2139Z" transform="translate(-42.6071 -35.47034)"/><path class="cls-7" d="M301.20979,295.0311s-4.7885,20.2628-3.4344,24.2717,10.1289,6.3263,10.1289,6.3263l-.2961,55.4862-48.52479,59.98,17.91929,14.6603s52.5301-60.0922,57.1606-70.9736-2.9512-90.6484-2.9512-90.6484Z" transform="translate(-42.6071 -35.47034)"/><path class="cls-7" d="M325.99409,286.7696l2.3745,168.5261-24.6857.1252-16.037-134.5435h0c-2.434-8.0292-5.22-16.3426-4.7127-25.8889l3.3077-9.6901Z" transform="translate(-42.6071 -35.47034)"/><path class="cls-10" d="M297.37239,312.5136a4.34367,4.34367,0,0,1,.5741.4978c.3583.3467.882.8663,1.5283,1.5671,1.2976,1.3978,3.1147,3.491,5.2864,6.1902l.034.0423.0035.0574c.452,7.5531,1.338,18.5627,2.40731,30.7912.85639,9.9556,1.73279,19.0592,2.278,26.1552l.00479.0618-.0442.0591c-2.8634,3.8355-5.2085,6.9768-6.8709,9.2035q-1.2057,1.58295-1.9079,2.5048l-.51.6449c-.11779.1435-.1822.2142-.1905.2081a1.01014,1.01014,0,0,1,.14171-.2439l.46289-.6795q.66735-.94245,1.8198-2.5695c1.6279-2.2521,3.92431-5.4291,6.72831-9.3084l-.03931.1207c-.6479-7.0743-1.4826-16.1872-2.3916-26.1116-1.0695-12.231-1.8906-23.2511-2.239-30.8182l.0372.0992c-2.1294-2.7205-3.9034-4.8463-5.1528-6.2791-.6227-.7189-1.1219-1.2577-1.4564-1.6259A4.43194,4.43194,0,0,1,297.37239,312.5136Z" transform="translate(-42.6071 -35.47034)"/><path class="cls-10" d="M324.45059,378.4151a19.69843,19.69843,0,0,0-13.5237-1.072,5.62865,5.62865,0,0,1,1.9237-.7536,15.16135,15.16135,0,0,1,9.8189.7783A5.62953,5.62953,0,0,1,324.45059,378.4151Z" transform="translate(-42.6071 -35.47034)"/><path class="cls-10" d="M333.15739,386.2247c.1145.0871-6.8293,9.4072-15.50739,20.8144-8.68111,11.4111-15.809,20.588-15.92351,20.5009s6.8279-9.4051,15.509-20.8162C325.91359,395.3166,333.043,386.1377,333.15739,386.2247Z" transform="translate(-42.6071 -35.47034)"/><path class="cls-10" d="M331.94559,299.2887a4.13686,4.13686,0,0,1-1.38959,1.8333,6.87637,6.87637,0,0,1-10.06131-1.0613,4.13681,4.13681,0,0,1-.9764-2.0828,21.63249,21.63249,0,0,0,1.2623,1.8507,6.85767,6.85767,0,0,0,9.5442,1.0068A21.61649,21.61649,0,0,0,331.94559,299.2887Z" transform="translate(-42.6071 -35.47034)"/><path class="cls-14" d="M278.75519,250.578s-3.74309,27.4202,0,30.8958,7.3461,2.3221,7.3461,2.3221l7.1271-5.9601,1.403-27.2578Z" transform="translate(-42.6071 -35.47034)"/><path class="cls-8" d="M282.22119,228.2987s-5.3633,6.0578-6.47419,29.2302c0,0,15.27319,2.8975,15.55209,2.0643S282.22119,228.2987,282.22119,228.2987Z" transform="translate(-42.6071 -35.47034)"/><path class="cls-10" d="M286.53879,257.5289" transform="translate(-42.6071 -35.47034)"/><path class="cls-8" d="M282.93319,294.9885l48.64981.7943-.75741-7.3241s-5.3581-27.8662-5.3189-28.2332l.8445-1.7748a16.19783,16.19783,0,0,0,.4122-14.0779h23.6173l-.9946-19.1631-24.788-3.653-9.214-.7288s-16.2563.8475-16.6033.8895c-6.8007.8222-14.7126,1.3441-17.6049,8.6222-1.5464,3.8914-.0771,9.7334,2.44711,15.7557l6.01089,18.4972c2.40011,10.1671-1.4304,9.6838-3.5326,19.9167C285.78339,286.0564,282.90189,293.5688,282.93319,294.9885Z" transform="translate(-42.6071 -35.47034)"/><path class="cls-4" d="M346.57559,226.0751c0,.1438-13.8629.2604-30.9597.2604-17.1028,0-30.9627-.1166-30.9627-.2604s13.8599-.2604,30.9627-.2604C332.71269,225.8147,346.57559,225.9313,346.57559,226.0751Z" transform="translate(-42.6071 -35.47034)"/><path class="cls-4" d="M348.00459,235.284c0,.1439-15.4269.2605-34.45259.2605-19.03231,0-34.456-.1166-34.456-.2605,0-.1437,15.42369-.2603,34.456-.2603C332.57769,235.0237,348.00459,235.1403,348.00459,235.284Z" transform="translate(-42.6071 -35.47034)"/><path class="cls-4" d="M282.93319,245.7632a15.95984,15.95984,0,0,1-5.7425,0,15.96587,15.96587,0,0,1,5.7425,0Z" transform="translate(-42.6071 -35.47034)"/><path class="cls-4" d="M327.99889,246.0808c0,.1438-10.0891.2604-22.5318.2604-12.447,0-22.5339-.1166-22.5339-.2604s10.0869-.2604,22.5339-.2604C317.90979,245.8204,327.99889,245.937,327.99889,246.0808Z" transform="translate(-42.6071 -35.47034)"/><path class="cls-4" d="M327.00549,256.8775c0,.1439-9.0551.2604-20.2226.2604-11.1713,0-20.2244-.1165-20.2244-.2604s9.0531-.2603,20.2244-.2603C317.95039,256.6172,327.00549,256.7337,327.00549,256.8775Z" transform="translate(-42.6071 -35.47034)"/><path class="cls-4" d="M326.71239,266.8803c0,.1439-8.2075.2605-18.3295.2605-10.1257,0-18.3314-.1166-18.3314-.2605,0-.1437,8.2057-.2603,18.3314-.2603C318.50489,266.62,326.71239,266.7366,326.71239,266.8803Z" transform="translate(-42.6071 -35.47034)"/><path class="cls-4" d="M328.31639,274.9779c0,.1439-8.7798.2604-19.6078.2604-10.8318,0-19.6097-.1165-19.6097-.2604,0-.1437,8.7779-.2603,19.6097-.2603C319.53659,274.7176,328.31639,274.8342,328.31639,274.9779Z" transform="translate(-42.6071 -35.47034)"/><path class="cls-4" d="M330.85679,285.2983c0,.1439-9.9884.2605-22.3069.2605-12.3227,0-22.309-.1166-22.309-.2605,0-.1437,9.9863-.2603,22.309-.2603C320.86839,285.038,330.85679,285.1546,330.85679,285.2983Z" transform="translate(-42.6071 -35.47034)"/><path class="cls-7" d="M289.35289,263.7274a3.79509,3.79509,0,0,1-.4147-.9217q-.4122-1.07055-.9854-2.5586c-.8251-2.1627-1.9867-5.144-3.19479-8.4683-1.21391-3.3231-2.21-6.3722-2.84-8.6061-.31371-1.1173-.54951-2.0265-.68361-2.6622a3.77764,3.77764,0,0,1-.16339-.9979,36.77592,36.77592,0,0,1,1.19919,3.5527c.71781,2.1986,1.7651,5.2172,2.9773,8.5358,1.2062,3.3191,2.3139,6.3225,3.0517,8.5212.371,1.0984.6529,1.9942.8311,2.6184A3.79285,3.79285,0,0,1,289.35289,263.7274Z" transform="translate(-42.6071 -35.47034)"/><g class="cls-9"><path d="M292.89389,282.0145a48.28785,48.28785,0,0,0,12.6467-7.1444,22.949,22.949,0,0,0,7.9149-11.9488c.2152-.8938.2473-2.059-.5649-2.4896a1.57132,1.57132,0,0,0-1.7902.4512,6.09938,6.09938,0,0,0-.9673,1.7211,12.429,12.429,0,0,1-4.314,5.0868c-2.1406,1.446-4.6662,2.1811-7.0687,3.1303s-4.8173,2.2181-6.2617,4.3598-1.5731,5.3545.3275,7.104" transform="translate(-42.6071 -35.47034)"/></g><path class="cls-7" d="M315.02949,254.3415a1.13364,1.13364,0,0,1,.027.3924c-.0053.2563.0048.6365-.0368,1.1225a26.14352,26.14352,0,0,1-.6023,4.089,29.1282,29.1282,0,0,1-16.8039,20.3419,26.14247,26.14247,0,0,1-3.9016,1.3633c-.4693.1325-.8445.1944-1.0951.248a1.12973,1.12973,0,0,1-.3905.0475,10.10558,10.10558,0,0,1,1.4284-.4899,33.034,33.034,0,0,0,3.8069-1.5043,30.08234,30.08234,0,0,0,16.5978-20.0924,33.02574,33.02574,0,0,0,.75861-4.0226A10.08885,10.08885,0,0,1,315.02949,254.3415Z" transform="translate(-42.6071 -35.47034)"/><path class="cls-8" d="M352.65379,178.4231s-.1171-.6182-.2126-1.8398a19.63486,19.63486,0,0,1,.4182-5.4114,22.45438,22.45438,0,0,1,3.5574-8.0522,22.07624,22.07624,0,0,1,9.2445-7.5771,24.38183,24.38183,0,0,1,6.9273-1.9091,26.69921,26.69921,0,0,1,7.9225.1616,29.05043,29.05043,0,0,1,15.6816,8.3242,34.40646,34.40646,0,0,1,5.9661,8.0327,31.89421,31.89421,0,0,1,3.37621,10.0988,30.13673,30.13673,0,0,1-.33161,11.2612,25.7879,25.7879,0,0,1-1.9386,5.5624,23.19448,23.19448,0,0,1-3.401,4.9945,22.96361,22.96361,0,0,1-10.5951,6.4391,38.763,38.763,0,0,1-12.9464,1.3304,51.191,51.191,0,0,1-13.3464-2.413,23.09758,23.09758,0,0,1-11.4764-7.9556,23.81889,23.81889,0,0,1-4.4207-13.7578,26.29147,26.29147,0,0,1,1.0223-7.4192,30.51634,30.51634,0,0,1,3.1113-6.9387,33.45,33.45,0,0,1,4.8662-5.9877,32.87245,32.87245,0,0,1,6.3141-4.6217,29.09934,29.09934,0,0,1,7.4335-2.7644,27.04771,27.04771,0,0,1,8.0212-.4251,31.7631,31.7631,0,0,1,25.5342,18.7713,27.44676,27.44676,0,0,1,1.4897,16.827,21.81621,21.81621,0,0,1-3.6017,7.8921,19.2898,19.2898,0,0,1-6.6811,5.6499,23.73,23.73,0,0,1-8.4732,2.4935,30.25274,30.25274,0,0,1-8.901-.372,30.92969,30.92969,0,0,1-15.81629-8.2443,25.25467,25.25467,0,0,1-5.25931-7.445,19.54407,19.54407,0,0,1-1.7396-9.0039c.3387-6.2341,3.6551-12.0361,8.2506-16.2116a29.19318,29.19318,0,0,1,16.7117-7.4786,24.92333,24.92333,0,0,1,9.14561.8031,23.633,23.633,0,0,1,4.27789,1.6534,23.21793,23.21793,0,0,1,3.8885,2.4005,22.67114,22.67114,0,0,1,6.0383,6.7406,20.07361,20.07361,0,0,1,1.8312,4.1371c.2595.7098.3942,1.4541.5844,2.1817.1151.7431.282,1.4787.3302,2.2288a24.17555,24.17555,0,0,1-4.6341,16.8193,26.10469,26.10469,0,0,1-14.3698,9.4379,28.16215,28.16215,0,0,1-16.8832-.8266c-10.6428-3.8602-18.8742-13.3513-20.6403-24.0919a23.2184,23.2184,0,0,1,2.6877-15.4953,27.13847,27.13847,0,0,1,11.0935-10.6545,32.93084,32.93084,0,0,1,14.55-3.596,37.93488,37.93488,0,0,1,14.3285,2.4863c8.9498,3.3986,16.3455,10.2127,19.5823,18.571a28.44968,28.44968,0,0,1-2.1159,24.6763,23.18389,23.18389,0,0,1-8.52119,8.2064,28.272,28.272,0,0,1-10.75321,3.3503,36.6159,36.6159,0,0,1-20.0432-4.0745,44.5223,44.5223,0,0,1-14.1711-10.9237,28.72919,28.72919,0,0,1-6.5708-13.4646,22.02457,22.02457,0,0,1,1.3435-11.8764,19.84723,19.84723,0,0,1,4.9651-7.2509,16.66246,16.66246,0,0,1,4.56-2.9291c1.1524-.4171,1.7542-.5949,1.7542-.5949s-.1456.0601-.4366.1661c-.289.1109-.7306.251-1.29689.4778a16.92911,16.92911,0,0,0-4.51,2.9576,19.82069,19.82069,0,0,0-4.89221,7.2313,21.89482,21.89482,0,0,0-1.2875,11.7833,28.54452,28.54452,0,0,0,6.5611,13.3399,44.30922,44.30922,0,0,0,14.1109,10.8229,36.33112,36.33112,0,0,0,19.8783,4.0058,27.94394,27.94394,0,0,0,10.6168-3.3261,22.82616,22.82616,0,0,0,8.379-8.094,28.075,28.075,0,0,0,2.0551-24.338c-3.19749-8.2314-10.5081-14.9618-19.362-18.3132a37.5067,37.5067,0,0,0-14.1641-2.4443,32.48689,32.48689,0,0,0-14.3478,3.5564,26.67989,26.67989,0,0,0-10.8967,10.479,22.741,22.741,0,0,0-2.6234,15.187c1.7356,10.5485,9.8574,19.911,20.3357,23.7021a27.661,27.661,0,0,0,16.5861.8067,25.60148,25.60148,0,0,0,14.0893-9.2553,23.66765,23.66765,0,0,0,4.5308-16.4611c-.0466-.7335-.211-1.4516-.3227-2.1776-.18669-.71-.3172-1.4372-.5711-2.1292a19.557,19.557,0,0,0-1.78659-4.0343,22.15543,22.15543,0,0,0-5.90341-6.5863,24.20851,24.20851,0,0,0-16.9513-4.753,28.67817,28.67817,0,0,0-16.4099,7.3458c-4.5142,4.0993-7.7551,9.7925-8.082,15.8535a19.02273,19.02273,0,0,0,1.6943,8.7647,24.7397,24.7397,0,0,0,5.14931,7.2887,30.41925,30.41925,0,0,0,15.54829,8.1072,29.74553,29.74553,0,0,0,8.7489.3682,23.21944,23.21944,0,0,0,8.29381-2.4367,18.7786,18.7786,0,0,0,6.509-5.4995,21.30979,21.30979,0,0,0,3.51869-7.7069,26.95293,26.95293,0,0,0-1.4573-16.5165,31.28412,31.28412,0,0,0-25.1219-18.4871,26.57076,26.57076,0,0,0-7.8772.4121,28.62929,28.62929,0,0,0-7.3067,2.7119,32.41465,32.41465,0,0,0-6.2191,4.5454,32.99514,32.99514,0,0,0-4.7969,5.8933,30.06072,30.06072,0,0,0-3.0669,6.8243,25.84592,25.84592,0,0,0-1.0105,7.2864,23.38657,23.38657,0,0,0,4.3234,13.5081,22.677,22.677,0,0,0,11.2641,7.8165,50.82013,50.82013,0,0,0,13.2316,2.4063,38.39044,38.39044,0,0,0,12.8153-1.2985,22.592,22.592,0,0,0,10.4332-6.3179,22.83691,22.83691,0,0,0,3.351-4.9058,25.44233,25.44233,0,0,0,1.91921-5.4807,29.80987,29.80987,0,0,0,.34569-11.1328,32.58267,32.58267,0,0,0-9.2209-17.9763,28.80548,28.80548,0,0,0-15.5172-8.2853,26.49468,26.49468,0,0,0-7.8527-.1823,24.20388,24.20388,0,0,0-6.8741,1.8707,21.94423,21.94423,0,0,0-9.1995,7.4808,22.45734,22.45734,0,0,0-3.5814,7.9854,20.02916,20.02916,0,0,0-.4675,5.3859c.0117.6116.0998,1.0685.1189,1.3775C352.64459,178.266,352.65379,178.4231,352.65379,178.4231Z" transform="translate(-42.6071 -35.47034)"/><path class="cls-8" d="M391.95549,173.2362c.0431.1373-6.5072,2.3162-14.6286,4.8663-8.1242,2.551-14.74289,4.5071-14.786,4.3698-.0431-.1371,6.5058-2.3156,14.63-4.8666C385.29229,175.0555,391.91249,173.0991,391.95549,173.2362Z" transform="translate(-42.6071 -35.47034)"/><path class="cls-8" d="M393.81009,177.9878c.0468.136-6.0588,2.3584-13.6354,4.9633-7.5793,2.6058-13.7594,4.6072-13.8062,4.4712s6.0576-2.3579,13.6368-4.9637C387.582,179.8537,393.76339,177.8518,393.81009,177.9878Z" transform="translate(-42.6071 -35.47034)"/><path class="cls-8" d="M382.62069,187.7638c.1566.2122-2.9785,1.4645-6.8161,2.8247-1.9282.6817-3.6852,1.2648-4.9657,1.6614a8.98428,8.98428,0,0,1-2.1084.5379,9.12978,9.12978,0,0,1,1.9871-.8857c1.2493-.4854,2.98641-1.1233,4.91341-1.8046,1.92629-.681,3.67739-1.2771,4.94859-1.6967C381.84009,187.9823,382.66649,187.7355,382.62069,187.7638Z" transform="translate(-42.6071 -35.47034)"/><path class="cls-14" d="M388.26419,192.4726s-4.5826-2.1205-4.8004-1.0102.0835,1.5638.9987,1.8451c.8592.2642,3.3897,1.1227,3.3897,1.1227Z" transform="translate(-42.6071 -35.47034)"/><path class="cls-16" d="M388.02939,194.5606s-4.5826-2.1205-4.80039-1.0102.08359,1.5638.99879,1.8451c.85921.2641,3.3897,1.1226,3.3897,1.1226Z" transform="translate(-42.6071 -35.47034)"/><path class="cls-14" d="M377.46579,199.2393l-17.3735,22.8031c-2.48129,3.6693-6.3276,5.4951-8.9305,5.5694l-1.62979.1333.80859,15.5119,6.857-.7764a13.76845,13.76845,0,0,0,10.36841-6.7852l17.67219-30.5391a51.98956,51.98956,0,0,0,3.1003-6.0975c1.036-2.6369-.0743-6.5862-.0743-6.5862l-7.0186,4.4183.0029-4.7734s-.7482-.253-2.20349,1.174C377.79239,194.5197,377.46579,199.2393,377.46579,199.2393Z" transform="translate(-42.6071 -35.47034)"/><path class="cls-10" d="M381.15089,190.0574l.0874,16.789a1.3547,1.3547,0,0,0,1.448,1.3544h0a1.35473,1.35473,0,0,0,1.2614-1.3563l-.0044-16.9585-1.5987-2.5953Z" transform="translate(-42.6071 -35.47034)"/><polygon class="cls-7" points="339.72 151.817 339.284 152.826 340.316 152.784 339.72 151.817"/><path class="cls-7" d="M383.92569,189.8823a2.28133,2.28133,0,0,1-1.3883.4413,2.54,2.54,0,0,1-1.4342-.2583c.0153-.0635.6455.0911,1.423.0503C383.30529,190.0802,383.90039,189.8242,383.92569,189.8823Z" transform="translate(-42.6071 -35.47034)"/><path class="cls-7" d="M382.49629,208.1966a4.60822,4.60822,0,0,1-.0434-.7076c-.0124-.5818-.02589-1.2203-.041-1.9296-.0156-1.8109-.0343-3.9747-.05489-6.3664.00809-2.3925.01539-4.5566.02149-6.3675.0112-.7094.0213-1.3479.0304-1.9296a4.59279,4.59279,0,0,1,.0396-.7076,4.62018,4.62018,0,0,1,.04151.7074c.01079.5817.02259,1.2202.03579,1.9296.0113,1.8108.0247,3.9749.0396,6.3674-.00239,2.3917-.00439,4.5556-.0062,6.3665-.0093.7094-.0176,1.3479-.02519,1.9297A4.597,4.597,0,0,1,382.49629,208.1966Z" transform="translate(-42.6071 -35.47034)"/></g><g id="Plant"><path class="cls-8" d="M147.9754,390.9705c7.8265,2.733,18.0357.2907,24.7308-4.598s11.5126-11.8942,15.783-18.9997c1.8222-3.032,3.6011-6.1936,4.1769-9.6839s-.2722-7.4172-2.9788-9.6949c-4.2068-3.5402-10.6527-1.7442-15.4303.9768a53.21216,53.21216,0,0,0-26.2816,41.9997" transform="translate(-42.6071 -35.47034)"/><path class="cls-8" d="M156.3786,409.7026c4.6999,6.2011,12.7755,8.9616,20.5482,9.3214,7.7724.3598,15.453-1.7889,22.7174-4.5763,2.6358-1.0114,5.52-2.3977,6.4239-5.0722a6.44921,6.44921,0,0,0-1.3762-5.9827,13.41281,13.41281,0,0,0-5.2457-3.5754c-7.1509-3.0457-15.343-3.1887-22.8664-1.2377-7.5237,1.951-14.096,6.3129-20.2012,11.1229" transform="translate(-42.6071 -35.47034)"/><path class="cls-8" d="M147.8609,357.4417c6.4787.1293,11.3827-5.5457,14.316-11.3237a41.97182,41.97182,0,0,0,3.8584-26.1706c-.5922-3.311-1.8444-6.8803-4.8069-8.473-3.0106-1.6186-6.9283-.5522-9.4529,1.7521s-3.9064,5.5927-4.9155,8.8585c-3.4768,11.2528-2.7278,24.1849,1.0009,35.3567" transform="translate(-42.6071 -35.47034)"/><path class="cls-8" d="M126.5801,393.2764c11.0461-18.8,12.8871-41.802,6.3629-62.6081-1.0584-3.3751-3.0556-7.2375-6.5856-7.4612-3.9093-.2477-6.3599,4.1109-7.4393,7.8763-3.7875,13.2116-2.9821,27.2452-2.1448,40.9634.5158,8.4501,3.4185,15.6743,9.8068,21.2296" transform="translate(-42.6071 -35.47034)"/><path class="cls-8" d="M115.0928,401.0075a45.18012,45.18012,0,0,0-26.8043-28.4243c-2.93356-1.1043-6.66286-1.7341-8.85074.5106-2.14592,2.2016-1.48482,5.881-.108,8.63,2.22388,4.4401,5.83448,8.0072,9.43144,11.431,3.2716,3.114,6.6717,6.2397,10.81,8.0494s11.7381,2.2703,15.5216-.1967" transform="translate(-42.6071 -35.47034)"/><path class="cls-7" d="M183.5779,352.7097a.96009.96009,0,0,1-.1928.172c-.1582.1226-.3538.2742-.595.4612q-.84375.63075-2.3153,1.7311-.762.56265-1.6798,1.24c-.6035.467-1.2339,1.0071-1.9257,1.5681-1.367,1.1426-2.9835,2.3721-4.6095,3.9189q-1.24545,1.132-2.604,2.3667c-.901.8275-1.7684,1.7616-2.7056,2.6877-1.9013,1.8283-3.7424,3.9616-5.723,6.1649A121.65914,121.65914,0,0,0,141.037,405.684c-1.0855,2.7571-2.1706,5.3581-2.956,7.8764-.4092,1.2524-.8571,2.446-1.1942,3.6219q-.4968,1.7655-.953,3.3874c-.6566,2.1461-1.0335,4.1417-1.4444,5.8752-.1925.8696-.3938,1.6749-.5415,2.4234q-.19545,1.1223-.3581,2.0566c-.2172,1.2034-.3886,2.1537-.5133,2.8447-.0594.2993-.1075.5421-.1465.7384a.96317.96317,0,0,1-.0676.2493.95081.95081,0,0,1,.0149-.2566c.0253-.1983.0567-.4436.0953-.746.1014-.6957.2408-1.6524.4172-2.8638q.14265-.9384.3142-2.0687c.1335-.7529.3212-1.5629.5006-2.4376.3846-1.7437.7378-3.751,1.3735-5.9099q.44175-1.62975.9237-3.4077c.3281-1.1831.7678-2.384,1.1698-3.6439.7708-2.5334,1.8444-5.1503,2.9224-7.9234a118.99559,118.99559,0,0,1,20.2703-32.7933c1.9982-2.2036,3.8587-4.3338,5.78-6.1558.9472-.9229,1.8249-1.853,2.7362-2.6756q1.3734-1.2246,2.6353-2.3497c1.6468-1.5338,3.2844-2.7473,4.6722-3.871.7023-.5516,1.3429-1.0816,1.9566-1.5378q.9333-.65805,1.7103-1.2061,1.50735-1.04925,2.3754-1.6537c.2533-.1699.4587-.3076.6248-.419A.94522.94522,0,0,1,183.5779,352.7097Z" transform="translate(-42.6071 -35.47034)"/><path class="cls-7" d="M198.2059,404.8231a4.24887,4.24887,0,0,1-.7581-.1264c-.4947-.0888-1.2108-.2798-2.1513-.436a60.6211,60.6211,0,0,0-7.9973-.9781,58.3565,58.3565,0,0,0-47.3828,19.7165,60.631,60.631,0,0,0-4.9425,6.3622c-.5519.7772-.9211,1.4196-1.2068,1.8331a4.26875,4.26875,0,0,1-.4445.6268,4.22624,4.22624,0,0,1,.3545-.6809c.2572-.4317.5995-1.093,1.1273-1.8901a53.87142,53.87142,0,0,1,4.8351-6.4938,57.415,57.415,0,0,1,47.6828-19.8413,53.88326,53.88326,0,0,1,8.0149,1.147c.9376.1875,1.6481.4107,2.1357.5326A4.23717,4.23717,0,0,1,198.2059,404.8231Z" transform="translate(-42.6071 -35.47034)"/><path class="cls-7" d="M157.4108,318.9796a1.261,1.261,0,0,1-.0428.2919c-.0456.2189-.1036.497-.1761.8446-.1741.7762-.4171,1.8593-.7261,3.2362-.636,2.8092-1.6065,6.8624-2.8263,11.8654-2.4332,10.0078-5.9701,23.7884-9.6544,39.0592-1.8301,7.641-3.4877,14.9394-4.916,21.5942-1.4012,6.6602-2.5966,12.6724-3.4859,17.742-.4769,2.5293-.8358,4.8295-1.1752,6.8458-.3479,2.0151-.6152,3.7555-.8231,5.1799-.2168,1.3938-.3874,2.4902-.5097,3.276-.0598.3499-.1078.63-.1454.8504a1.24926,1.24926,0,0,1-.0674.2874,1.24487,1.24487,0,0,1,.0145-.2944c.0245-.2222.0555-.5046.0943-.8574.0991-.7891.2373-1.8906.4131-3.2907.1771-1.4296.4153-3.1756.7361-5.1964.3124-2.022.6461-4.3285,1.1001-6.8639.8435-5.0821,2.0026-11.1067,3.3791-17.7777,1.4036-6.6653,3.0482-13.9721,4.879-21.6167,3.6862-15.2779,7.2794-29.0435,9.8036-39.0267,1.2539-4.9647,2.2719-8.9948,2.9864-11.8239.3494-1.367.6243-2.4424.8212-3.213.0932-.3426.1678-.6168.2264-.8326A1.23272,1.23272,0,0,1,157.4108,318.9796Z" transform="translate(-42.6071 -35.47034)"/><path class="cls-7" d="M132.0454,428.5405a.81041.81041,0,0,1-.0701-.2276c-.0417-.1831-.0924-.4057-.1543-.678q-.1998-.9618-.5439-2.6172c-.4677-2.2739-1.0883-5.5756-1.7959-9.666-1.4162-8.1789-3.0961-19.5383-4.1286-32.1711-.5004-6.3189-.7791-12.3526-.9013-17.8428-.0912-5.4909-.0432-10.4376.1282-14.5867.0509-2.0758.1876-3.9498.278-5.5964.0846-1.6471.2004-3.0628.3074-4.2189q.1551-1.68225.2454-2.6619l.077-.6909a.81634.81634,0,0,1,.0439-.2339.81943.81943,0,0,1,.0091.2384c-.0068.1876-.0152.4159-.0254.695q-.05415.9804-.1478,2.6676c-.0759,1.1573-.162,2.5735-.2188,4.2202-.0627,1.6462-.1735,3.5188-.2007,5.5924-.1241,4.1448-.1338,9.0835-.0165,14.5646.1482,5.4804.441,11.5026.9407,17.8114,1.0307,12.6125,2.6504,23.9643,3.9726,32.1526.6607,4.0948,1.2257,7.4046,1.6319,9.6891q.2829,1.66485.4477,2.6347l.1036.6877A.82216.82216,0,0,1,132.0454,428.5405Z" transform="translate(-42.6071 -35.47034)"/><path class="cls-7" d="M132.8625,430.928a3.65059,3.65059,0,0,1-.2877-.6492c-.185-.4809-.4267-1.1089-.7275-1.8909q-.23685-.62415-.5185-1.3671-.32955-.73785-.7095-1.5889-.38115-.859-.8105-1.8267c-.2856-.6471-.6556-1.2993-1.0055-2.0019q-.53985-1.0491-1.1277-2.1913-.64725-1.113-1.3433-2.3099c-.8868-1.6209-2.0337-3.2319-3.1412-4.9867a117.99238,117.99238,0,0,0-8.3199-10.6328,130.79746,130.79746,0,0,0-9.5477-9.5572c-1.5874-1.339-3.0415-2.6783-4.5103-3.8005q-1.08255-.8628-2.0909-1.6666-1.0338-.7623-1.9849-1.4638c-1.2524-.9509-2.4313-1.7452-3.4688-2.4403-1.0271-.7112-1.9245-1.3042-2.6788-1.7564-.7079-.4487-1.2763-.809-1.7116-1.0849a3.63505,3.63505,0,0,1-.5796-.4094,3.60269,3.60269,0,0,1,.6322.3186c.4488.255,1.0348.588,1.7645,1.0027.7725.4267,1.6881.9962,2.7335,1.6863,1.056.674,2.2534,1.4497,3.524,2.3847q.96315.6903,2.0121,1.4422,1.02015.79455,2.1174,1.6491c1.4862,1.1122,2.9568,2.4442,4.5595,3.7793a123.81363,123.81363,0,0,1,9.6187,9.5702,112.3723,112.3723,0,0,1,8.3281,10.7099c1.1028,1.7715,2.2412,3.3991,3.1168,5.038q.68535,1.2096,1.3237,2.3364.5748,1.155,1.1037,2.218c.3411.7113.7014,1.3718.9767,2.0274q.41145.9798.7776,1.8514.35985.8625.6723,1.6116.25965.75405.478,1.3884c.2635.7974.475,1.4377.637,1.928A3.59455,3.59455,0,0,1,132.8625,430.928Z" transform="translate(-42.6071 -35.47034)"/><path class="cls-7" d="M179.4811,374.5147c-.0021.0824-1.3391.0827-3.4893.2025a62.47011,62.47011,0,0,0-16.4672,3.1275c-2.0444.6768-3.2881,1.1666-3.3204,1.0907a3.31016,3.31016,0,0,1,.8296-.4502c.5463-.2627,1.355-.6029,2.3682-.9877a49.68539,49.68539,0,0,1,16.5766-3.1483c1.0838-.0134,1.9609.0065,2.5656.0507A3.297,3.297,0,0,1,179.4811,374.5147Z" transform="translate(-42.6071 -35.47034)"/><path class="cls-7" d="M187.815,415.2155a25.3528,25.3528,0,0,0-11.0507-11.8999,7.746,7.746,0,0,1,2.245.9928,19.83737,19.83737,0,0,1,7.9815,8.5947A7.75005,7.75005,0,0,1,187.815,415.2155Z" transform="translate(-42.6071 -35.47034)"/><path class="cls-7" d="M159.3978,334.2421c.1058.1121-1.929,2.1281-4.1484,4.8598-2.2306,2.724-3.7963,5.1219-3.9274,5.0408a31.08445,31.08445,0,0,1,8.0758-9.9006Z" transform="translate(-42.6071 -35.47034)"/><path class="cls-7" d="M152.7239,322.7161a38.44031,38.44031,0,0,1,1.4994,8.8071,38.44769,38.44769,0,0,1-1.4994-8.8071Z" transform="translate(-42.6071 -35.47034)"/><path class="cls-7" d="M132.0596,358.8837a54.66151,54.66151,0,0,1-3.2336,6.8042,54.64984,54.64984,0,0,1-3.6962,6.5652,108.965,108.965,0,0,1,6.9298-13.3694Z" transform="translate(-42.6071 -35.47034)"/><path class="cls-7" d="M119.7598,346.6052a30.61821,30.61821,0,0,1,2.7406,4.9219,30.629,30.629,0,0,1,2.2746,5.1546,60.95688,60.95688,0,0,1-5.0152-10.0765Z" transform="translate(-42.6071 -35.47034)"/><path class="cls-7" d="M101.6838,388.5988c-.0346.1493-2.2276-.2772-4.9617-.4647-2.7342-.2004-4.965-.0876-4.978-.2403a14.28446,14.28446,0,0,1,5.0148-.2792A14.28437,14.28437,0,0,1,101.6838,388.5988Z" transform="translate(-42.6071 -35.47034)"/><path class="cls-7" d="M114.0288,425.7256l6.149,32.3401a4.53326,4.53326,0,0,0,4.4535,3.6866h18.1672a4.53337,4.53337,0,0,0,4.4723-3.7917l5.3457-32.235Z" transform="translate(-42.6071 -35.47034)"/><polygon class="cls-10" points="73.42 400.766 108.163 400.766 110.009 390.255 71.422 390.255 73.42 400.766"/><polygon class="cls-4" points="73.42 400.766 74.149 404.598 107.631 404.598 108.163 400.766 73.42 400.766"/></g></svg>