<svg id="Layer_1" data-name="Layer 1" xmlns="http://www.w3.org/2000/svg" viewBox="0 0 388.47 381.8"><defs><style>.cls-1,.cls-7{fill:#3f3e40;}.cls-1{opacity:0.13;}.cls-2{fill:#3380c3;}.cls-15,.cls-24,.cls-3,.cls-4,.cls-8{fill:none;stroke-miterlimit:10;}.cls-3,.cls-4{stroke:#fff;}.cls-3{stroke-width:0.97px;stroke-dasharray:2 2;}.cls-4{stroke-width:1.1px;stroke-dasharray:2.2 2.2;}.cls-5{fill:#fcd3ca;}.cls-6{fill:#f0c1ba;}.cls-8{stroke:#19181b;stroke-width:0.46px;}.cls-9{fill:#faa732;}.cls-10{fill:#002a39;}.cls-11{fill:#003d50;}.cls-12{fill:#f7f5f4;}.cls-13{fill:#fff;}.cls-14{fill:#d8d5d4;}.cls-15{stroke:#d8d5d4;stroke-width:0.18px;}.cls-16{opacity:0.09;}.cls-17{fill:#363a3b;}.cls-18{fill:#a0d8d3;}.cls-19{fill:#ece71b;}.cls-20{fill:#ef4032;}.cls-21{fill:#fde2df;}.cls-22{fill:#f6ba44;}.cls-23{fill:#ef3824;}.cls-24{stroke:#003d50;stroke-width:0.27px;}.cls-25{fill:#d5b829;}.cls-26{fill:#7aced3;}</style></defs><ellipse class="cls-1" cx="186.47" cy="211.36" rx="130.68" ry="138.25"/><ellipse class="cls-2" cx="181.53" cy="210.32" rx="130.68" ry="138.25"/><path class="cls-3" d="M257.58,554.59C103.5,534.6,78.36,326.92,203.24,276.5c11.14-4.5,23.25-5.73,35.19-5.82,50.41-.4,99.18,18.58,149.44,22.8,15.33,1.28,32.1.74,44.17-9.26a28.23,28.23,0,0,0,7.8-9.91,30.67,30.67,0,0,0,2.48-11c.95-18-11.2-35.9-27.78-40.88s-35.94,3.44-44.26,19.26" transform="translate(-123.2 -220.51)"/><path class="cls-4" d="M398,557.7c37.47-9.55,71.62-35.12,92-69.8S516.64,409.84,506,371.7s-38.3-70.3-73.58-84.6" transform="translate(-123.2 -220.51)"/><path class="cls-5" d="M290.33,384.77s.74,23.92,22.53,23.92c17.93,0,16.47-25.34,16.47-25.34Z" transform="translate(-123.2 -220.51)"/><path class="cls-5" d="M310.36,317.88c-26,.28-30.89,19-30.57,41.21.6,40.17,38.4,44.64,49.73,31.64C348.81,368.59,354.64,317.4,310.36,317.88Z" transform="translate(-123.2 -220.51)"/><path class="cls-6" d="M284.65,352.09a25.47,25.47,0,0,1-4.82,2c-.05,1.63-.06,3.29,0,5,.18,12.19,3.8,21.07,9,27.2C286.33,381.88,285.06,376.19,284.65,352.09Z" transform="translate(-123.2 -220.51)"/><path class="cls-6" d="M279.82,354.12s-.58-8-4.25-8.85c-5-1.17-7.2,17.85,4.78,21.09Z" transform="translate(-123.2 -220.51)"/><path class="cls-6" d="M344.69,356.32s2.42-4.11,6.27-1.09c3.13,2.45-.87,18.5-10.26,15.27Z" transform="translate(-123.2 -220.51)"/><path class="cls-7" d="M320.91,316.52c-37.55-8.69-43.69,25-41.09,37.6h0a25.47,25.47,0,0,0,4.82-2c4.9-2.62,11.73-8.13,11.45-18.47,0,0,8.12,14.31,41.7,18.73,0,6.15,1.82,10.17,4.52,12.46a53.16,53.16,0,0,0,2.37-8.5h0v0C347.07,344.12,347.23,322.61,320.91,316.52Z" transform="translate(-123.2 -220.51)"/><line class="cls-8" x1="172.9" y1="113.11" x2="171.07" y2="105.44"/><path class="cls-5" d="M207.22,523.19h0a12,12,0,0,1-4.61-15.71L239.14,434A10.74,10.74,0,0,1,254,429.15h0a12,12,0,0,1,4.61,15.72l-36.53,73.44A10.74,10.74,0,0,1,207.22,523.19Z" transform="translate(-123.2 -220.51)"/><path class="cls-5" d="M402.67,527.92h0c5.65-2.28,8.51-9,6.35-15l-28-77.52a10.85,10.85,0,0,0-14.19-6.72h0c-5.66,2.28-8.51,9-6.35,15l28,77.53A10.85,10.85,0,0,0,402.67,527.92Z" transform="translate(-123.2 -220.51)"/><path class="cls-9" d="M310.44,393.64c-5.82-.68-56.52,8.25-66.89,23.46-6.32,9.27-14.18,78.07,11.27,127.68,0,0,23.4,26.68,66.53,24.61,37.57-1.8,52.73-22.16,53.74-34.86,2-25.12,14.6-107.82-11.21-125.12C345.12,396.83,323.53,395.18,310.44,393.64Z" transform="translate(-123.2 -220.51)"/><polygon class="cls-9" points="123.04 192.57 92.41 238.29 126.45 254.49 147.21 207.33 123.04 192.57"/><polygon class="cls-9" points="240.68 188.9 274.16 225.33 244.55 249.09 228.55 210.21 240.68 188.9"/><path class="cls-5" d="M267,579l18.6-4.83,5.48,22.53-18.83,4.9c-5.88,1.52-18.27-3.45-20.59-7.58C248.58,588.5,261.15,580.51,267,579Z" transform="translate(-123.2 -220.51)"/><path class="cls-10" d="M283,576s114.12-64.47,135.39-69.66,34.64,4,33.13,16.88c-1,8.25-9,22.22-32.72,36.93s-90.4,38.35-105.12,40.09-30.68-.87-30.68-.87Z" transform="translate(-123.2 -220.51)"/><path class="cls-5" d="M371.54,579.43l-18.6-4.83-5.49,22.54L366.29,602c5.88,1.53,18.27-3.45,20.59-7.58C390,589,377.41,581,371.54,579.43Z" transform="translate(-123.2 -220.51)"/><path class="cls-10" d="M355.77,568.63c0,2.16-6.14,32-6.14,32s-92.85-14.28-125.16-29.86-43.17-30.64-47.44-42c-4.19-11.1,3.27-31.59,36-17.31S355.77,568.63,355.77,568.63Z" transform="translate(-123.2 -220.51)"/><polygon class="cls-11" points="121.71 139.08 178.59 148.19 177.55 253.92 121.97 243.7 121.71 139.08"/><polygon class="cls-11" points="198.68 148.74 254.52 139.08 254.78 243.98 199.2 253.92 198.68 148.74"/><polygon class="cls-12" points="186.68 145.43 233.91 126.66 248 137.15 196.59 149.57 186.68 145.43"/><polygon class="cls-12" points="162.15 118.66 162.15 129.15 186.68 145.43 162.15 118.66"/><polygon class="cls-12" points="213.03 117.28 186.68 145.43 213.29 127.49 213.03 117.28"/><polygon class="cls-13" points="221.64 121.14 186.68 145.43 221.93 131.41 221.64 121.14"/><polygon class="cls-13" points="153.02 121.42 153.02 132.73 186.68 145.43 153.02 121.42"/><path class="cls-12" d="M250.9,357.11l52.84,12,6.13-3.13S266.82,347.45,266,347.73,250.9,357.11,250.9,357.11Z" transform="translate(-123.2 -220.51)"/><polygon class="cls-13" points="127.71 136.6 123.84 139.36 178.59 148.19 180.22 148.45 127.71 136.6"/><polygon class="cls-13" points="196.59 149.57 248 137.15 251.26 139.37 196.59 149.57"/><path class="cls-14" d="M301.79,368.71s8.17,8.25,20.92.74l-12.84-3.51Z" transform="translate(-123.2 -220.51)"/><line class="cls-15" x1="129.85" y1="135.41" x2="180.85" y2="147.72"/><line class="cls-15" x1="133.54" y1="132.95" x2="182.84" y2="147.15"/><line class="cls-15" x1="137.8" y1="130.22" x2="184.46" y2="146.67"/><line class="cls-15" x1="141.33" y1="128.14" x2="185.97" y2="146.03"/><line class="cls-15" x1="246.05" y1="135.79" x2="193.54" y2="148.22"/><line class="cls-15" x1="242.1" y1="132.89" x2="190.6" y2="148.13"/><line class="cls-15" x1="238.94" y1="130.48" x2="188.56" y2="146.89"/><line class="cls-15" x1="235.76" y1="128.16" x2="187.57" y2="146.11"/><path class="cls-10" d="M301.79,368.71s7.56,8.28,20.09.55l.52,105.17s-10.7,8-21.66,0Z" transform="translate(-123.2 -220.51)"/><g class="cls-16"><path class="cls-17" d="M406,508.06l-52.25-53.72c1.08-3.73-1.53-8.67-1.89-9.32l-1.29-10.46a2.32,2.32,0,0,0-2.61-2.07,2.48,2.48,0,0,0-2,2.79l1.14,9.17-.88.73-4-4.94h-.05l-9.58-14.64a2.1,2.1,0,0,0-3-.58,2.39,2.39,0,0,0-.55,3.2l8.77,13.4-.59.37-10.58-12.36a2.1,2.1,0,0,0-3.07-.16,2.4,2.4,0,0,0-.15,3.25l10.38,12.12-.57.57-10.56-9.63a2.09,2.09,0,0,0-3.06.24,2.4,2.4,0,0,0,.22,3.24L331,449.5c-.05.24-.1.5-.14.76l-8.59-6.86a2.12,2.12,0,0,0-3.05.45,2.4,2.4,0,0,0,.43,3.22L333,457.78l0,0,.14.17a11.44,11.44,0,0,0,6.94,4l50,62.26a10.61,10.61,0,0,0,15.55.33A12.16,12.16,0,0,0,406,508.06Z" transform="translate(-123.2 -220.51)"/><path class="cls-17" d="M300.78,446.73a2.39,2.39,0,0,0,.53-3.2h0a2.1,2.1,0,0,0-3-.57l-11.42,8.48c-.15-.2-.32-.41-.52-.63l11.48-11a2.39,2.39,0,0,0,.16-3.24,2.09,2.09,0,0,0-3.07-.17l-11.7,11.18-.55-.44,10-12.4a2.4,2.4,0,0,0-.25-3.24,2.1,2.1,0,0,0-3.06.26l-10.92,13.55-.05,0-4.48,4.49-.8-.81,2-9a2.5,2.5,0,0,0-1.73-3,2.27,2.27,0,0,0-2.78,1.78l-2.28,10.26a17,17,0,0,0-2.84,7.23l-60,46.24a12.14,12.14,0,0,0-1.85,16.34h0a10.63,10.63,0,0,0,15.44,2l59.29-53.7a11.31,11.31,0,0,0,7.27-3.2l.16-.16,0,0,14.36-9.23a2.39,2.39,0,0,0,.72-3.16,2.1,2.1,0,0,0-3-.77l-9.2,5.92c0-.27,0-.53-.07-.78Z" transform="translate(-123.2 -220.51)"/></g><path class="cls-5" d="M405.66,525.86h0a12.14,12.14,0,0,0,.32-16.45l-56.36-58c-4.19-4.62-9.19-6.65-13.55-2.22h0c-4.36,4.44-1.19,8.12,3,12.73l51,63.57A10.61,10.61,0,0,0,405.66,525.86Z" transform="translate(-123.2 -220.51)"/><path class="cls-5" d="M343.15,447.22h0a2.4,2.4,0,0,0,.55-3.2L332.53,427a2.1,2.1,0,0,0-3-.58h0a2.37,2.37,0,0,0-.55,3.19l11.17,17.07A2.11,2.11,0,0,0,343.15,447.22Z" transform="translate(-123.2 -220.51)"/><path class="cls-5" d="M339.58,449.61h0a2.4,2.4,0,0,0,.15-3.24L326.56,431a2.09,2.09,0,0,0-3.07-.16h0a2.39,2.39,0,0,0-.15,3.24l13.17,15.38A2.09,2.09,0,0,0,339.58,449.61Z" transform="translate(-123.2 -220.51)"/><path class="cls-5" d="M337.67,453.93h0a2.4,2.4,0,0,0-.22-3.24l-14.86-13.56a2.09,2.09,0,0,0-3.06.24h0a2.4,2.4,0,0,0,.22,3.24l14.86,13.56A2.09,2.09,0,0,0,337.67,453.93Z" transform="translate(-123.2 -220.51)"/><path class="cls-5" d="M338.31,460.47h0a2.4,2.4,0,0,0-.42-3.22l-15.66-12.5a2.11,2.11,0,0,0-3.05.45h0a2.41,2.41,0,0,0,.43,3.22l15.66,12.5A2.1,2.1,0,0,0,338.31,460.47Z" transform="translate(-123.2 -220.51)"/><path class="cls-5" d="M348.09,454l-2.15-17.38a2.49,2.49,0,0,1,2-2.78,2.31,2.31,0,0,1,2.61,2.07l1.76,14.24Z" transform="translate(-123.2 -220.51)"/><path class="cls-5" d="M351.8,446.29s3.15,5.49,1.91,9.49c-.47,1.52-2.16,3.15-3.87,4.64a11.6,11.6,0,0,1-16.66-1.11c-.05-.05-.09-.11-.14-.17a9.62,9.62,0,0,1-.81-11.41s4.33-4.8,7.13-5.47l2.8-.68,4,4.94.89-.74Z" transform="translate(-123.2 -220.51)"/><path class="cls-5" d="M276.87,452.17h0a2.4,2.4,0,0,1-.25-3.24l12.73-15.8a2.1,2.1,0,0,1,3.06-.25h0a2.4,2.4,0,0,1,.25,3.24l-12.73,15.79A2.1,2.1,0,0,1,276.87,452.17Z" transform="translate(-123.2 -220.51)"/><path class="cls-5" d="M280.19,454.93h0a2.39,2.39,0,0,1,.16-3.24l14.56-13.91a2.09,2.09,0,0,1,3.07.16h0a2.4,2.4,0,0,1-.16,3.25L283.26,455.1A2.1,2.1,0,0,1,280.19,454.93Z" transform="translate(-123.2 -220.51)"/><path class="cls-5" d="M281.69,459.43h0a2.39,2.39,0,0,1,.53-3.2l16.06-11.92a2.1,2.1,0,0,1,3,.56h0a2.38,2.38,0,0,1-.53,3.2L284.71,460A2.09,2.09,0,0,1,281.69,459.43Z" transform="translate(-123.2 -220.51)"/><path class="cls-5" d="M280.43,465.86h0a2.36,2.36,0,0,1,.73-3.15l16.76-10.78a2.1,2.1,0,0,1,3,.77h0a2.37,2.37,0,0,1-.72,3.15l-16.77,10.78A2.1,2.1,0,0,1,280.43,465.86Z" transform="translate(-123.2 -220.51)"/><path class="cls-5" d="M271.31,458.4l3.78-17.07a2.5,2.5,0,0,0-1.73-3,2.27,2.27,0,0,0-2.78,1.78l-3.11,14Z" transform="translate(-123.2 -220.51)"/><path class="cls-5" d="M268.35,450.33s-3.65,5.13-2.8,9.25c.32,1.55,1.86,3.36,3.41,5a11.6,11.6,0,0,0,16.68.66l.16-.15a9.63,9.63,0,0,0,1.89-11.28s-3.86-5.23-6.58-6.2l-2.73-1-4.48,4.48-.82-.83Z" transform="translate(-123.2 -220.51)"/><path class="cls-5" d="M203.64,520.2h0a12.13,12.13,0,0,1,1.86-16.34l63.55-49c4.75-4,9.84-5.34,13.58-.31h0c3.74,5,1.55,9-3.2,13l-60.35,54.65A10.62,10.62,0,0,1,203.64,520.2Z" transform="translate(-123.2 -220.51)"/><path class="cls-18" d="M339.11,349.73l10.3-6.59a2,2,0,0,1,3,1.62h0a2.81,2.81,0,0,1-1.43,2.68l-11.08,6Z" transform="translate(-123.2 -220.51)"/><path class="cls-5" d="M456.28,395.21h-32.8c-7.51,0-13.63-6.47-13.63-14.42V363.06c0-7.95,6.12-14.42,13.63-14.42h32.8c7.52,0,13.63,6.47,13.63,14.42v17.73C469.91,388.74,463.8,395.21,456.28,395.21Zm-32.8-45.49c-7,0-12.61,6-12.61,13.34v17.73c0,7.36,5.66,13.34,12.61,13.34h32.8c7,0,12.61-6,12.61-13.34V363.06c0-7.35-5.66-13.34-12.61-13.34Z" transform="translate(-123.2 -220.51)"/><polygon class="cls-5" points="317.03 160.96 288.85 136.63 289.49 135.79 317.01 159.55 343.86 134.63 344.54 135.44 317.03 160.96"/><polygon class="cls-5" points="289.22 167.31 288.68 166.39 308.51 153.43 309.05 154.35 289.22 167.31"/><polygon class="cls-5" points="344.37 167.3 324.54 153.87 325.09 152.96 344.92 166.4 344.37 167.3"/><path class="cls-13" d="M138.75,413.27l16.86-56.41.25.09,57.65,18.82ZM156,357.58l-16.33,54.61L212,375.88Z" transform="translate(-123.2 -220.51)"/><path class="cls-13" d="M155.2,393.57l7-23.56,23.4,7.8Zm7.36-22.85-6.47,21.76,28.07-14.55Z" transform="translate(-123.2 -220.51)"/><polygon class="cls-13" points="40.19 143.36 39.68 143.18 40.85 139.53 41.36 139.72 40.19 143.36"/><polygon class="cls-13" points="42.62 142.69 42.1 142.53 42.79 140.15 43.3 140.31 42.62 142.69"/><polygon class="cls-13" points="43.94 144.62 43.43 144.44 44.6 140.8 45.11 140.98 43.94 144.62"/><polygon class="cls-13" points="46.37 143.95 45.85 143.79 46.53 141.41 47.05 141.58 46.37 143.95"/><polygon class="cls-13" points="47.73 145.93 47.22 145.75 48.39 142.1 48.9 142.29 47.73 145.93"/><polygon class="cls-13" points="50.16 145.26 49.65 145.09 50.33 142.72 50.84 142.88 50.16 145.26"/><polygon class="cls-13" points="32.66 141.06 32.16 140.88 33.33 137.24 33.84 137.42 32.66 141.06"/><polygon class="cls-13" points="35.09 140.39 34.58 140.23 35.26 137.85 35.77 138.01 35.09 140.39"/><polygon class="cls-13" points="36.46 142.37 35.95 142.19 37.12 138.54 37.63 138.73 36.46 142.37"/><polygon class="cls-13" points="38.89 141.7 38.37 141.53 39.05 139.16 39.57 139.32 38.89 141.7"/><polygon class="cls-13" points="51.84 147.35 51.33 147.17 52.5 143.53 53.01 143.71 51.84 147.35"/><polygon class="cls-13" points="54.27 146.68 53.75 146.52 54.43 144.14 54.95 144.31 54.27 146.68"/><polygon class="cls-13" points="55.59 148.62 55.08 148.44 56.25 144.79 56.76 144.97 55.59 148.62"/><polygon class="cls-13" points="58.01 147.95 57.5 147.78 58.18 145.41 58.7 145.57 58.01 147.95"/><polygon class="cls-13" points="59.38 149.93 58.87 149.74 60.04 146.1 60.55 146.28 59.38 149.93"/><polygon class="cls-13" points="61.81 149.25 61.29 149.09 61.98 146.71 62.49 146.88 61.81 149.25"/><polygon class="cls-13" points="63.56 151.13 63.05 150.96 64.16 147.3 64.67 147.47 63.56 151.13"/><polygon class="cls-13" points="65.98 150.42 65.46 150.26 66.1 147.87 66.62 148.03 65.98 150.42"/><polygon class="cls-13" points="67.33 152.33 66.82 152.16 67.93 148.49 68.44 148.66 67.33 152.33"/><polygon class="cls-13" points="69.75 151.61 69.23 151.46 69.87 149.07 70.39 149.22 69.75 151.61"/><polygon class="cls-13" points="71.15 153.56 70.64 153.39 71.74 149.72 72.26 149.9 71.15 153.56"/><polygon class="cls-13" points="73.56 152.85 73.05 152.69 73.69 150.3 74.21 150.46 73.56 152.85"/><polygon class="cls-13" points="75.28 154.91 74.76 154.73 75.87 151.07 76.38 151.24 75.28 154.91"/><polygon class="cls-13" points="77.69 154.19 77.17 154.03 77.82 151.65 78.33 151.8 77.69 154.19"/><polygon class="cls-13" points="79.05 156.1 78.53 155.93 79.64 152.26 80.15 152.44 79.05 156.1"/><polygon class="cls-13" points="81.46 155.38 80.94 155.23 81.58 152.84 82.1 152.99 81.46 155.38"/><polygon class="cls-13" points="82.86 157.34 82.35 157.16 83.46 153.5 83.97 153.67 82.86 157.34"/><polygon class="cls-13" points="85.28 156.62 84.76 156.46 85.4 154.07 85.92 154.23 85.28 156.62"/><path class="cls-1" d="M314.22,270.05l-2.33-7.15a5.62,5.62,0,0,0,1.46-3.8,5.19,5.19,0,1,0-10.37,0,5.65,5.65,0,0,0,1,3.26l-2.93,7.69h-6.24v15.11H321.3V270.05ZM303.7,259.1a4.47,4.47,0,1,1,4.46,4.72A4.6,4.6,0,0,1,303.7,259.1Zm.85,3.92a5,5,0,0,0,3.61,1.56,4.93,4.93,0,0,0,3.14-1.14l2.16,6.61H301.87Z" transform="translate(-123.2 -220.51)"/><rect class="cls-19" x="170.82" y="50.14" width="26.45" height="15.11"/><path class="cls-19" d="M313.43,270.78l-2.38-7.27a5.66,5.66,0,0,0,1.47-3.81,5.19,5.19,0,1,0-10.37,0,5.63,5.63,0,0,0,1,3.27l-3,7.94.67.28,2.88-7.57a4.91,4.91,0,0,0,6.76.42l2.28,7ZM302.86,259.7a4.48,4.48,0,1,1,4.47,4.73A4.61,4.61,0,0,1,302.86,259.7Z" transform="translate(-123.2 -220.51)"/><path class="cls-1" d="M408.77,305l.46-.39.19-.15-2-2.68-.7.58-41.16-56.65.08-.07-.21-.11-.12-.16-.08.07L354.1,240l0,0-.34-.14-.12-.06h0l-7.57-3.15,1.4,8.38,1.67,13.67-.08.07.11.14,0,.28.11-.09,41.55,56.33-.3.25-.19.16,2,2.67.82-.67a9.59,9.59,0,0,0,13.3,1A11,11,0,0,0,408.77,305Z" transform="translate(-123.2 -220.51)"/><path class="cls-20" d="M352.34,241.85l-6.57,5.42-1.46-8.76Z" transform="translate(-123.2 -220.51)"/><path class="cls-21" d="M363.88,247.47,347.44,261l-1.75-14.28,6.19-5.11Z" transform="translate(-123.2 -220.51)"/><path class="cls-22" d="M406,305.67l-15.84,13.08-.15-.21L347.3,260.62l16.25-13.41Z" transform="translate(-123.2 -220.51)"/><polygon class="cls-13" points="271.79 93.67 271.41 93.99 228.88 36.69 229.26 36.37 271.79 93.67"/><polygon class="cls-13" points="279 87.9 278.61 88.22 236.08 30.92 236.47 30.6 279 87.9"/><path class="cls-21" d="M407.64,306.29l-.19.16-16.86,13.92-2-2.68.19-.16,16.86-13.92Z" transform="translate(-123.2 -220.51)"/><path class="cls-13" d="M391.3,319.58a9.59,9.59,0,0,0,13.41,1.15,11,11,0,0,0,2.2-14Z" transform="translate(-123.2 -220.51)"/><path class="cls-1" d="M483.92,424.08l-13.51-3.78v0h-.19l-.18-.05v0l-33.93-1.65L426,485.67l33.66,4.39,6,1.43,4.11,1c1,.24,1.54.36,1.8.4l.05,0h0c.2,0,.22,0,.24-.12l0-.18h0c.22-2.65,7.93-45.57,12.05-68.31Z" transform="translate(-123.2 -220.51)"/><path class="cls-23" d="M456.5,491.87l-.18,0-33.67-4.4,10.1-67.08,34.3,1.67Z" transform="translate(-123.2 -220.51)"/><path class="cls-13" d="M468.23,494.67l-.05,0c-.26,0-.77-.15-1.8-.4l-4.11-1-6-1.44-.17,0,0-.18L466.69,422l13.86,3.88,0,.17c-4.12,22.74-11.83,65.66-12,68.31h0l0,.18c0,.09,0,.14-.24.12Z" transform="translate(-123.2 -220.51)"/><path class="cls-13" d="M458.63,446.05h-.18l-25.22-1.91,3.1-13h24Z" transform="translate(-123.2 -220.51)"/><line class="cls-24" x1="345.08" y1="201.66" x2="333.98" y2="271.37"/><line class="cls-24" x1="348.39" y1="202.7" x2="337.29" y2="272.41"/><line class="cls-24" x1="351.7" y1="203.75" x2="340.6" y2="273.46"/><line class="cls-24" x1="355.01" y1="204.8" x2="343.91" y2="274.5"/><path class="cls-1" d="M210.35,432.61a5.65,5.65,0,0,0-8.21-1.1l-47,38.52c-10.65,3.42-17.25,12.48-19.63,16.27-.19.32.15.7.46.5,1.87-1.24,5.61-2.76,11.41-1,8.82,2.65,14.93-6,14.93-6l47-38.52A6.44,6.44,0,0,0,210.35,432.61Z" transform="translate(-123.2 -220.51)"/><path class="cls-11" d="M209,430.8h0a6.43,6.43,0,0,1-1,8.69L161,478l-7.17-9.79,47-38.52A5.65,5.65,0,0,1,209,430.8Z" transform="translate(-123.2 -220.51)"/><polygon class="cls-25" points="50.73 231.2 30.59 247.71 37.76 257.49 57.9 240.99 50.73 231.2"/><path class="cls-13" d="M161,478s-6.11,8.61-14.93,6c-5.8-1.74-9.54-.22-11.42,1-.3.2-.65-.18-.45-.5,2.38-3.79,9-12.85,19.63-16.27Z" transform="translate(-123.2 -220.51)"/><path class="cls-1" d="M243.55,251.46c-21.24-3.05-61.08,0-68.28,6.09s-8,50.78-2.28,57.88,19.73,18.28,61.84,10.16l11.76,12.69-2.66-13.2s9.49,1.52,14.8-21.32S264.8,254.51,243.55,251.46Z" transform="translate(-123.2 -220.51)"/><path class="cls-26" d="M244.6,337.82l-2.66-13.21s9.49,1.53,14.8-21.32S262.81,254,241.56,251s-61.08,0-68.28,6.09-8,50.78-2.28,57.89,19.73,18.28,61.84,10.15Z" transform="translate(-123.2 -220.51)"/></svg>