<svg xmlns="http://www.w3.org/2000/svg" viewBox="0 0 500 500"><defs><style>.cls-1{isolation:isolate;}.cls-2{fill:#fefefe;}.cls-3{fill:#f2f2f2;}.cls-4{fill:#dfdfdf;}.cls-5{fill:#d1b619;}.cls-6{fill:#f7de24;}.cls-7{fill:#6538a5;}.cls-8{fill:#462676;}.cls-9{fill:#b083fa;}.cls-10{fill:#bc99ff;}.cls-11{fill:#fff;}.cls-12{fill:#8d53e4;}.cls-13{fill:#ff4b67;}.cls-14{fill:#aeaf91;opacity:0.2;mix-blend-mode:multiply;}.cls-15{fill:#452774;}.cls-16{fill:#eba9b5;}.cls-17{fill:#f5da23;}.cls-18{fill:#fbced1;}.cls-19{fill:#362255;}.cls-20{fill:#eca6b5;}.cls-21{fill:#cb3d60;}</style></defs><g class="cls-1"><g id="BACKGROUND"><rect class="cls-2" width="500" height="500"/></g><g id="OBJECT"><path class="cls-3" d="M187.6133,207.247H146.2825a4.21888,4.21888,0,0,1-4.2189-4.2189h0a4.21894,4.21894,0,0,1,4.2189-4.2189h41.3308a4.21888,4.21888,0,0,1,4.2189,4.2189h0A4.21882,4.21882,0,0,1,187.6133,207.247Z"/><path class="cls-3" d="M171.5972,222.1213H131.0438a4.13965,4.13965,0,0,1-4.1396-4.1396h0a4.13956,4.13956,0,0,1,4.1396-4.1395h40.5534a4.13948,4.13948,0,0,1,4.1395,4.1395h0A4.13956,4.13956,0,0,1,171.5972,222.1213Z"/><path class="cls-3" d="M167.0592,213.8366H153.6779a.27744.27744,0,0,1-.0898-.0113,3.22629,3.22629,0,0,0,2.189-.9541,3.28813,3.28813,0,0,0-2.189-5.6129.27744.27744,0,0,1,.0898-.0113h13.3813a3.2948,3.2948,0,1,0,0,6.5896Z"/><path class="cls-3" d="M137.2801,137.1501H104.4017a3.35613,3.35613,0,0,1-3.3561-3.3561h0a3.35607,3.35607,0,0,1,3.3561-3.3561h32.8784a3.356,3.356,0,0,1,3.356,3.3561h0A3.356,3.356,0,0,1,137.2801,137.1501Z"/><path class="cls-3" d="M124.5393,148.9824H92.2794a3.29294,3.29294,0,0,1-3.293-3.2929h0a3.293,3.293,0,0,1,3.293-3.293h32.2599a3.293,3.293,0,0,1,3.293,3.293h0A3.29294,3.29294,0,0,1,124.5393,148.9824Z"/><path class="cls-3" d="M120.9293,142.392H110.2846a.22262.22262,0,0,1-.0714-.0089,2.56718,2.56718,0,0,0,1.7414-.7591,2.6157,2.6157,0,0,0-1.7414-4.465.22262.22262,0,0,1,.0714-.0089h10.6447a2.621,2.621,0,1,0,0,5.2419Z"/><path class="cls-3" d="M388.64839,139.7101h37.9453a3.87326,3.87326,0,0,0,3.87331-3.8733h0a3.87333,3.87333,0,0,0-3.87331-3.8733h-37.9453a3.87338,3.87338,0,0,0-3.8733,3.8733h0A3.87332,3.87332,0,0,0,388.64839,139.7101Z"/><rect class="cls-3" x="402.04689" y="145.7651" width="44.8324" height="7.6009" rx="3.8004" transform="translate(848.92618 299.1311) rotate(-180)"/><path class="cls-3" d="M407.519,145.7599h12.28509a.256.256,0,0,0,.0824-.0103,2.96252,2.96252,0,0,1-2.0097-.876,3.01885,3.01885,0,0,1,2.0097-5.1531.25365.25365,0,0,0-.0824-.0104H407.519a3.0249,3.0249,0,1,1,0,6.0498Z"/><path class="cls-3" d="M316.47769,284.1361h35.6232a3.63631,3.63631,0,0,0,3.6362-3.6363h0a3.63624,3.63624,0,0,0-3.6362-3.6363h-35.6232a3.63627,3.63627,0,0,0-3.6363,3.6363h0A3.63633,3.63633,0,0,0,316.47769,284.1361Z"/><path class="cls-3" d="M332.62409,296.9562h34.9531a3.56787,3.56787,0,0,0,3.5679-3.5678h0a3.5679,3.5679,0,0,0-3.5679-3.5679h-34.9531a3.5679,3.5679,0,0,0-3.5679,3.5679h0A3.56787,3.56787,0,0,0,332.62409,296.9562Z"/><path class="cls-3" d="M334.19339,289.8156h11.5334a.23937.23937,0,0,0,.0773-.0097,2.78088,2.78088,0,0,1-1.8867-.8224,2.83412,2.83412,0,0,1,1.8867-4.8378.24172.24172,0,0,0-.0773-.0096h-11.5334a2.83975,2.83975,0,1,1,0,5.6795Z"/><path class="cls-3" d="M41.2759,300.2064H74.102a3.35069,3.35069,0,0,0,3.3507-3.3507h0a3.35077,3.35077,0,0,0-3.3507-3.3508H41.2759a3.35077,3.35077,0,0,0-3.3507,3.3508h0A3.35069,3.35069,0,0,0,41.2759,300.2064Z"/><path class="cls-3" d="M56.1545,312.02H88.3631a3.28778,3.28778,0,0,0,3.2877-3.2878h0a3.28776,3.28776,0,0,0-3.2877-3.2877H56.1545a3.2877,3.2877,0,0,0-3.2877,3.2877h0A3.28772,3.28772,0,0,0,56.1545,312.02Z"/><path class="cls-3" d="M57.6006,305.44H68.2284a.22205.22205,0,0,0,.0713-.0089,2.56243,2.56243,0,0,1-1.7386-.7578,2.61153,2.61153,0,0,1,1.7386-4.4579.21972.21972,0,0,0-.0713-.009H57.6006a2.6168,2.6168,0,1,1,0,5.2336Z"/><path class="cls-3" d="M469.59369,323.1551h-32.3566a3.30279,3.30279,0,0,1-3.3028-3.3028h0a3.30287,3.30287,0,0,1,3.3028-3.3029h32.3566a3.303,3.303,0,0,1,3.3029,3.3029h0A3.30287,3.30287,0,0,1,469.59369,323.1551Z"/><path class="cls-3" d="M451.56909,334.7997h-31.7479a3.24077,3.24077,0,0,1-3.2408-3.2407h0a3.24077,3.24077,0,0,1,3.2408-3.2407h31.7479a3.24069,3.24069,0,0,1,3.2407,3.2407h0A3.24069,3.24069,0,0,1,451.56909,334.7997Z"/><path class="cls-3" d="M450.14369,328.3139h-10.4758a.2176.2176,0,0,1-.0702-.0088,2.526,2.526,0,0,0,1.7136-.747,2.57417,2.57417,0,0,0-1.7136-4.3942.2176.2176,0,0,1,.0702-.0088h10.4758a2.5794,2.5794,0,1,0,0,5.1588Z"/><path class="cls-3" d="M190.9814,101.3822h38.26589a3.90605,3.90605,0,0,0,3.906-3.9061h0a3.906,3.906,0,0,0-3.906-3.906H190.9814a3.906,3.906,0,0,0-3.906,3.906h0A3.90605,3.90605,0,0,0,190.9814,101.3822Z"/><path class="cls-3" d="M208.32559,115.1534h37.5461a3.83258,3.83258,0,0,0,3.8326-3.8326h0a3.83256,3.83256,0,0,0-3.8326-3.8325h-37.5461a3.83255,3.83255,0,0,0-3.8325,3.8325h0A3.83257,3.83257,0,0,0,208.32559,115.1534Z"/><path class="cls-3" d="M210.01139,107.4831h12.389a.2582.2582,0,0,0,.0831-.0104,2.98788,2.98788,0,0,1-2.0267-.8834,3.04432,3.04432,0,0,1,2.0267-5.1967.2582.2582,0,0,0-.0831-.0104h-12.389a3.05045,3.05045,0,1,1,0,6.1009Z"/><ellipse class="cls-4" cx="251.37339" cy="401.62682" rx="196.79969" ry="11.91907"/><path class="cls-5" d="M391.19229,362.6651c-8.3401,37.2152-46.3642,38.9273-46.3642,38.9273h-19.4636Z"/><path class="cls-6" d="M391.19229,362.6651l-65.8278,38.9273C345.73149,351.678,391.19229,362.6651,391.19229,362.6651Z"/><path class="cls-6" d="M318.90169,401.5922s-9.68569-48.2347,41.2581-63.0603c0,0,8.2171,32.4636-22.939,63.0603Z"/><path class="cls-5" d="M337.22329,401.5924h-14.3798l37.3203-63.0653S368.37779,370.9946,337.22329,401.5924Z"/><path class="cls-5" d="M258.97469,177.3661h-12.1961s-23.8259-1.0728-29.0518-24.392Z"/><path class="cls-6" d="M258.97469,177.3661l-41.2479-24.392S246.21259,146.0896,258.97469,177.3661Z"/><path class="cls-5" d="M258.97469,177.3661h-7.4308c-19.5215-19.1727-14.368-39.5168-14.368-39.5168Z"/><path class="cls-6" d="M263.02239,177.3661h-4.0477l-21.7988-39.5168C269.09739,147.1427,263.02239,177.3661,263.02239,177.3661Z"/><path class="cls-7" d="M183.5148,177.3658H319.232a13.0434,13.0434,0,0,1,13.0434,13.0434V388.8667a13.0434,13.0434,0,0,1-13.0434,13.0434H183.51479a13.04339,13.04339,0,0,1-13.04339-13.04339V190.4092A13.0434,13.0434,0,0,1,183.5148,177.3658Z"/><path class="cls-8" d="M332.27429,190.4058V388.8661a13.045,13.045,0,0,1-13.0459,13.0458h-135.71a12.9629,12.9629,0,0,1-6.9746-2.0167L326.077,179.3137A13.0162,13.0162,0,0,1,332.27429,190.4058Z"/><rect class="cls-9" x="181.3684" y="189.0333" width="140.01" height="201.2093" rx="11.2272"/><path class="cls-10" d="M272.21469,186.4974h-41.6826a7.23633,7.23633,0,0,1-7.0958-5.8171l-.64829-3.2417h57.17079l-.6483,3.2417A7.23632,7.23632,0,0,1,272.21469,186.4974Z"/><path class="cls-10" d="M243.598,166.1152h15.5508a8.0019,8.0019,0,0,1,8.0019,8.0019v3.3215a0,0,0,0,1,0,0h-31.5546a0,0,0,0,1,0,0v-3.3215A8.0019,8.0019,0,0,1,243.598,166.1152Z"/><circle class="cls-11" cx="251.37339" cy="173.8151" r="3.6235"/><path class="cls-12" d="M194.4118,196.9961H308.335a7.2647,7.2647,0,0,1,7.2647,7.2647v9.9064a7.2646,7.2646,0,0,1-7.2646,7.2646H194.41179a7.26469,7.26469,0,0,1-7.26469-7.26469V204.2608A7.2647,7.2647,0,0,1,194.4118,196.9961Z"/><path class="cls-12" d="M194.4118,229.1657H308.335a7.2647,7.2647,0,0,1,7.2647,7.2647v9.9063a7.2647,7.2647,0,0,1-7.2647,7.2647H194.41179a7.26469,7.26469,0,0,1-7.26469-7.26469V236.4304A7.2647,7.2647,0,0,1,194.4118,229.1657Z"/><path class="cls-12" d="M194.4118,261.3353H308.335a7.2647,7.2647,0,0,1,7.2647,7.2647v9.9063a7.2647,7.2647,0,0,1-7.2647,7.2647H194.41179a7.26469,7.26469,0,0,1-7.26469-7.26469V268.6a7.2647,7.2647,0,0,1,7.2647-7.2647Z"/><path class="cls-12" d="M194.4117,293.5049H308.335a7.2647,7.2647,0,0,1,7.2647,7.2647v9.9063a7.2647,7.2647,0,0,1-7.2647,7.2647H194.41179a7.26469,7.26469,0,0,1-7.26469-7.26469V300.7695A7.2646,7.2646,0,0,1,194.4117,293.5049Z"/><path class="cls-12" d="M194.4118,325.6746H308.335a7.2647,7.2647,0,0,1,7.2647,7.2647v9.9064a7.2646,7.2646,0,0,1-7.2646,7.2646H194.41179a7.26469,7.26469,0,0,1-7.26469-7.26469V332.9393A7.2647,7.2647,0,0,1,194.4118,325.6746Z"/><path class="cls-12" d="M194.4118,357.8442H308.335a7.2647,7.2647,0,0,1,7.2647,7.2647v9.9064a7.2646,7.2646,0,0,1-7.2646,7.2646H194.41179a7.26469,7.26469,0,0,1-7.26469-7.26469V365.1089A7.2647,7.2647,0,0,1,194.4118,357.8442Z"/><path class="cls-11" d="M306.158,203.7915H217.53649a1.25127,1.25127,0,0,1-1.2513-1.2513h0a1.25135,1.25135,0,0,1,1.2513-1.2514H306.158a1.25135,1.25135,0,0,1,1.25129,1.2514h0A1.25126,1.25126,0,0,1,306.158,203.7915Z"/><path class="cls-11" d="M306.158,210.4653H217.53649a1.25135,1.25135,0,0,1-1.2513-1.2514h0a1.25127,1.25127,0,0,1,1.2513-1.2513H306.158a1.25126,1.25126,0,0,1,1.25129,1.2513h0A1.25135,1.25135,0,0,1,306.158,210.4653Z"/><path class="cls-11" d="M271.645,217.139H217.53649a1.25127,1.25127,0,0,1-1.2513-1.2513h0a1.25127,1.25127,0,0,1,1.2513-1.2513H271.645a1.25126,1.25126,0,0,1,1.25129,1.2513h0A1.25126,1.25126,0,0,1,271.645,217.139Z"/><path class="cls-11" d="M209.51179,218.3953h-11.831a3.26971,3.26971,0,0,1-3.266-3.2659v-11.831a3.26963,3.26963,0,0,1,3.266-3.2655h11.831a3.26954,3.26954,0,0,1,3.2659,3.2655v11.831A3.26963,3.26963,0,0,1,209.51179,218.3953Zm-11.831-15.8501a.75416.75416,0,0,0-.7536.7532v11.831a.75456.75456,0,0,0,.7536.7536h11.831a.75463.75463,0,0,0,.7536-.7536v-11.831a.75422.75422,0,0,0-.7536-.7532Z"/><path class="cls-11" d="M306.158,235.9611H217.53649a1.25127,1.25127,0,0,1-1.2513-1.2513h0a1.25127,1.25127,0,0,1,1.2513-1.2513H306.158a1.25126,1.25126,0,0,1,1.25129,1.2513h0A1.25126,1.25126,0,0,1,306.158,235.9611Z"/><path class="cls-11" d="M306.158,242.6349H217.53649a1.25135,1.25135,0,0,1-1.2513-1.2514h0a1.25133,1.25133,0,0,1,1.2513-1.2513H306.158a1.25133,1.25133,0,0,1,1.25129,1.2513h0A1.25135,1.25135,0,0,1,306.158,242.6349Z"/><path class="cls-11" d="M271.645,249.3086H217.53649a1.25127,1.25127,0,0,1-1.2513-1.2513h0a1.25127,1.25127,0,0,1,1.2513-1.2513H271.645a1.25126,1.25126,0,0,1,1.25129,1.2513h0A1.25126,1.25126,0,0,1,271.645,249.3086Z"/><path class="cls-11" d="M209.51179,250.565h-11.831a3.26974,3.26974,0,0,1-3.266-3.266V235.4681a3.26974,3.26974,0,0,1,3.266-3.266h11.831a3.26965,3.26965,0,0,1,3.2659,3.266V247.299A3.26965,3.26965,0,0,1,209.51179,250.565Zm-11.831-15.8505a.7545.7545,0,0,0-.7536.7536V247.299a.75459.75459,0,0,0,.7536.7537h11.831a.75465.75465,0,0,0,.7536-.7537V235.4681a.75456.75456,0,0,0-.7536-.7536Z"/><path class="cls-11" d="M306.158,268.1307H217.53649a1.25127,1.25127,0,0,1-1.2513-1.2513h0a1.25127,1.25127,0,0,1,1.2513-1.2513H306.158a1.25126,1.25126,0,0,1,1.25129,1.2513h0A1.25126,1.25126,0,0,1,306.158,268.1307Z"/><path class="cls-11" d="M306.158,274.8045H217.53649a1.25127,1.25127,0,0,1-1.2513-1.2513h0a1.25135,1.25135,0,0,1,1.2513-1.2514H306.158a1.25135,1.25135,0,0,1,1.25129,1.2514h0A1.25126,1.25126,0,0,1,306.158,274.8045Z"/><path class="cls-11" d="M271.645,281.4783H217.53649a1.25135,1.25135,0,0,1-1.2513-1.2514h0a1.25127,1.25127,0,0,1,1.2513-1.2513H271.645a1.25126,1.25126,0,0,1,1.25129,1.2513h0A1.25135,1.25135,0,0,1,271.645,281.4783Z"/><path class="cls-11" d="M209.51179,282.7343h-11.831a3.26939,3.26939,0,0,1-3.266-3.2656V267.6373a3.26937,3.26937,0,0,1,3.266-3.2655h11.831a3.26929,3.26929,0,0,1,3.2659,3.2655v11.8314A3.26931,3.26931,0,0,1,209.51179,282.7343Zm-11.831-15.8502a.75422.75422,0,0,0-.7536.7532v11.8314a.75416.75416,0,0,0,.7536.7532h11.831a.75422.75422,0,0,0,.7536-.7532V267.6373a.75429.75429,0,0,0-.7536-.7532Z"/><path class="cls-11" d="M306.158,300.3004H217.53649a1.25135,1.25135,0,0,1-1.2513-1.2514h0a1.25127,1.25127,0,0,1,1.2513-1.2513H306.158a1.25126,1.25126,0,0,1,1.25129,1.2513h0A1.25135,1.25135,0,0,1,306.158,300.3004Z"/><path class="cls-11" d="M306.158,306.9741H217.53649a1.25127,1.25127,0,0,1-1.2513-1.2513h0a1.25127,1.25127,0,0,1,1.2513-1.2513H306.158a1.25126,1.25126,0,0,1,1.25129,1.2513h0A1.25126,1.25126,0,0,1,306.158,306.9741Z"/><path class="cls-11" d="M217.53649,311.1452H271.645a1.2513,1.2513,0,0,1,1.2513,1.2513v.0001a1.2513,1.2513,0,0,1-1.2513,1.2513h-54.1085a1.2513,1.2513,0,0,1-1.2513-1.2513v-.00011A1.25129,1.25129,0,0,1,217.53649,311.1452Z"/><path class="cls-11" d="M209.51179,314.9039h-11.831a3.26937,3.26937,0,0,1-3.266-3.2655V299.807a3.26937,3.26937,0,0,1,3.266-3.2655h11.831a3.26929,3.26929,0,0,1,3.2659,3.2655v11.8314A3.26929,3.26929,0,0,1,209.51179,314.9039Zm-11.831-15.8501a.75422.75422,0,0,0-.7536.7532v11.8314a.75416.75416,0,0,0,.7536.7532h11.831a.75422.75422,0,0,0,.7536-.7532V299.807a.75429.75429,0,0,0-.7536-.7532Z"/><path class="cls-11" d="M306.158,332.47H217.53649a1.25135,1.25135,0,0,1-1.2513-1.2514h0a1.25133,1.25133,0,0,1,1.2513-1.2513H306.158a1.25133,1.25133,0,0,1,1.25129,1.2513h0A1.25135,1.25135,0,0,1,306.158,332.47Z"/><path class="cls-11" d="M306.158,339.1437H217.53649a1.25127,1.25127,0,0,1-1.2513-1.2513h0a1.25127,1.25127,0,0,1,1.2513-1.2513H306.158a1.25126,1.25126,0,0,1,1.25129,1.2513h0A1.25126,1.25126,0,0,1,306.158,339.1437Z"/><path class="cls-11" d="M271.645,345.8175H217.53649a1.25127,1.25127,0,0,1-1.2513-1.2513h0a1.25135,1.25135,0,0,1,1.2513-1.2514H271.645a1.25135,1.25135,0,0,1,1.25129,1.2514h0A1.25126,1.25126,0,0,1,271.645,345.8175Z"/><path class="cls-11" d="M209.51179,347.0736h-11.831a3.26937,3.26937,0,0,1-3.266-3.2655V331.9767a3.26937,3.26937,0,0,1,3.266-3.2655h11.831a3.26929,3.26929,0,0,1,3.2659,3.2655v11.8314A3.26929,3.26929,0,0,1,209.51179,347.0736Zm-11.831-15.8501a.75422.75422,0,0,0-.7536.7532v11.8314a.75422.75422,0,0,0,.7536.7532h11.831a.75429.75429,0,0,0,.7536-.7532V331.9767a.75429.75429,0,0,0-.7536-.7532Z"/><path class="cls-11" d="M306.158,364.6396H217.53649a1.25127,1.25127,0,0,1-1.2513-1.2513h0a1.25135,1.25135,0,0,1,1.2513-1.2514H306.158a1.25135,1.25135,0,0,1,1.25129,1.2514h0A1.25126,1.25126,0,0,1,306.158,364.6396Z"/><path class="cls-11" d="M306.158,371.3134H217.53649a1.25135,1.25135,0,0,1-1.2513-1.2514h0a1.25127,1.25127,0,0,1,1.2513-1.2513H306.158a1.25126,1.25126,0,0,1,1.25129,1.2513h0A1.25135,1.25135,0,0,1,306.158,371.3134Z"/><path class="cls-11" d="M271.645,377.9871H217.53649a1.25127,1.25127,0,0,1-1.2513-1.2513h0a1.25127,1.25127,0,0,1,1.2513-1.2513H271.645a1.25126,1.25126,0,0,1,1.25129,1.2513h0A1.25126,1.25126,0,0,1,271.645,377.9871Z"/><path class="cls-11" d="M209.51179,379.2433h-11.831a3.26937,3.26937,0,0,1-3.266-3.2655V364.1464a3.26946,3.26946,0,0,1,3.266-3.2656h11.831a3.26937,3.26937,0,0,1,3.2659,3.2656v11.8314A3.26929,3.26929,0,0,1,209.51179,379.2433Zm-11.831-15.8501a.75416.75416,0,0,0-.7536.7532v11.8314a.75422.75422,0,0,0,.7536.7532h11.831a.75429.75429,0,0,0,.7536-.7532V364.1464a.75422.75422,0,0,0-.7536-.7532Z"/><path class="cls-13" d="M205.33679,280.5718c-.0679,0-.1362-.0033-.2045-.0098a2.09661,2.09661,0,0,1-1.4442-.7933l-5.6528-7.223a2.09374,2.09374,0,0,1,3.2975-2.581l4.3005,5.4949,12.6786-10.9203a2.09368,2.09368,0,0,1,2.7323,3.1731L206.703,280.0647A2.09263,2.09263,0,0,1,205.33679,280.5718Z"/><path class="cls-13" d="M205.33679,248.6058c-.0679,0-.1362-.0033-.2045-.0098a2.09624,2.09624,0,0,1-1.4442-.7933l-5.6528-7.223a2.09374,2.09374,0,0,1,3.2975-2.581l4.3005,5.4949,12.6786-10.9203a2.09368,2.09368,0,0,1,2.7323,3.1731L206.703,248.0988A2.09306,2.09306,0,0,1,205.33679,248.6058Z"/><path class="cls-13" d="M205.33679,216.8046c-.0679,0-.1362-.0033-.2045-.0098a2.09661,2.09661,0,0,1-1.4442-.7933l-5.6528-7.223a2.09374,2.09374,0,0,1,3.2975-2.581l4.3005,5.4949,12.6786-10.9203a2.09368,2.09368,0,0,1,2.7323,3.1731L206.703,216.2975A2.09263,2.09263,0,0,1,205.33679,216.8046Z"/><path class="cls-14" d="M321.38179,200.2585V379.0134a11.22728,11.22728,0,0,1-11.2287,11.2287H192.5937a11.20656,11.20656,0,0,1-7.5418-2.9096L317.57939,191.8448A11.17332,11.17332,0,0,1,321.38179,200.2585Z"/><path class="cls-13" d="M92.5513,380.0812l-6.368-.5282a2.10528,2.10528,0,0,0-2.2631,1.8371l-1.0454,10.5793a5.75111,5.75111,0,0,0,.7022,3.5468l3.7071,3.0626a5.63558,5.63558,0,0,0,3.5897,1.2911H94.902a2.88558,2.88558,0,0,0,1.9459-5.0255,21.34967,21.34967,0,0,0-4.9777-3.2374,5.40728,5.40728,0,0,1,1.3281-1.926S90.2174,385.0351,92.5513,380.0812Z"/><path class="cls-15" d="M137.4336,353.7613s2.0046,17.5233-1.7361,34.5804a7.93088,7.93088,0,0,1-8.5373,6.1954q-.111-.01155-.224-.0243a7.92741,7.92741,0,0,1-6.8963-9.0113c.9437-6.658,1.8396-16.4474.1293-22.3961,0,0-16.737,1.1318-16.0479-12.858Z"/><path class="cls-15" d="M126.5887,394.5319c-5.6529-.6816-18.6335-1.7805-33.1464-3.2888a13.94847,13.94847,0,0,1-.2418-13.2223s22.1261,1.3951,33.8876,2.9048a7.59063,7.59063,0,0,1,6.7212,7.5909q-.0096.31365-.0468.6328A6.3766,6.3766,0,0,1,126.5887,394.5319Z"/><path class="cls-13" d="M116.2231,378.7098l-8.0266,6.0972s8.9134,11.4545,17.2335,16.7724a3.17551,3.17551,0,0,0,4.6888-1.5566c1.0906-2.9655,1.4078-7.1857-4.3383-9.052a5.61334,5.61334,0,0,1-1.7607-5.2846S116.9867,384.1568,116.2231,378.7098Z"/><path class="cls-7" d="M104.1213,350.2474a302.56219,302.56219,0,0,1,45.2224,4.651,6.41374,6.41374,0,0,1,5.2872,5.8885c.003.0566.0055.1135.0073.171.1283,3.9205-3.6622,8.0837-7.5607,7.6501-7.6486-.8509-15.6613-1.2094-33.7412-1.9955-6.2504-.2717-10.4245-5.3255-9.9153-11.6333C103.5197,353.7558,103.826,351.7148,104.1213,350.2474Z"/><path class="cls-7" d="M152.0963,367.5596a234.43755,234.43755,0,0,1-26.485,19.4911s-9.1105-2.2575-10.723-10.1586c0,0,18.7947-14.854,28.9681-20.9463a7.5907,7.5907,0,0,1,9.9771,1.8038q.1866.25245.3548.5261C156.0016,361.237,155.3616,364.738,152.0963,367.5596Z"/><path class="cls-16" d="M125.1172,318.7654a12.47668,12.47668,0,0,1,10.4712-4.9107c3.3077.1346,6.5555.1665,9.5887.139,1.2247-.0121,2.4052-.0345,3.5493-.0608,2.0009-.0404,3.8834-.1132,5.5995-.1923.481-.0228.962-.0455,1.4209-.0735.689-.0347,1.3417-.0733,1.9657-.1093,1.2402-.0783,2.3218-.1565,3.2318-.2189a3.95519,3.95519,0,0,1,2.859.8971c.1015.0844.1888.17.2838.2622.0794.0792.1588.1584.2317.2454a4.20734,4.20734,0,0,1,.7834,1.4564.03145.03145,0,0,1,.0091.0208,3.79741,3.79741,0,0,1-.8192,3.7027l-.0389.0468a2.7946,2.7946,0,0,1-.4935.4349,3.2749,3.2749,0,0,1-.9393.5266c-11.4288,4.2996-39.7473,2.4064-39.7473,2.4064.0556-.2575.1112-.515.1823-.7596a11.92776,11.92776,0,0,1,1.2273-2.875l.0065-.0077a.88951.88951,0,0,1,.0882-.138,4.65362,4.65362,0,0,1,.2907-.445A3.00051,3.00051,0,0,1,125.1172,318.7654Z"/><path class="cls-16" d="M162.3799,281.9479a28.12321,28.12321,0,0,0-.5623,9.3214s-2.0729,16.9998-4.399,23.6721c0,0,1.6959,3.7573,7.5322,3.9815a94.58656,94.58656,0,0,0,4.7412-26.6025,9.8184,9.8184,0,0,0,1.9015-2.2631,9.04273,9.04273,0,0,0,.1262-8.6949c-.0901-.1865-.1751-.3533-.27-.5176a4.9842,4.9842,0,0,0-9.0698,1.1031Z"/><path class="cls-17" d="M128.8329,309.5572a29.02368,29.02368,0,0,0-4.5858-.8574h.0001l-.0006-.0001h-.0005a29.01607,29.01607,0,0,0-4.6638-.1182,13.14013,13.14013,0,0,0-12.3195,11.7522l-3.1553,29.9137,31.1664,3.2875,3.1553-29.9137A13.14019,13.14019,0,0,0,128.8329,309.5572Z"/><path class="cls-18" d="M130.5165,301.8084l-.8013,7.5965a3.52028,3.52028,0,1,1-7.0017-.7386l.8013-7.5965Z"/><path class="cls-16" d="M130.5165,301.8084l-.6096,5.7798a13.99379,13.99379,0,0,1-3.5512.0764,4.03968,4.03968,0,0,1-3.2826-2.4074l.4417-4.1874Z"/><path class="cls-13" d="M167.505,344.4052c-.0733,0-.1472-.0035-.221-.0106a2.266,2.266,0,0,1-1.561-.8574l-6.1099-7.8071a2.263,2.263,0,0,1,3.5641-2.7897l4.6483,5.9392,13.7038-11.8033a2.263,2.263,0,0,1,2.9533,3.4297l-15.5009,13.3511A2.26163,2.26163,0,0,1,167.505,344.4052Z"/><path class="cls-18" d="M113.7734,319.807a12.47644,12.47644,0,0,1,9.4036,6.7329c1.4999,2.9512,3.0601,5.7999,4.5672,8.4323.6094,1.0624,1.2062,2.0812,1.7885,3.0664,1.0136,1.7256,1.9976,3.3321,2.9056,4.7904.2551.4085.5102.8169.7589,1.2036.3672.584.72,1.1345,1.0565,1.6612.6748,1.0435,1.2718,1.9488,1.7712,2.7122a3.95453,3.95453,0,0,1,.6154,2.9325c-.024.1298-.056.2478-.09.3757-.0303.108-.0605.216-.1008.3222a4.20713,4.20713,0,0,1-.8873,1.3954.032.032,0,0,1-.0137.0182,3.79739,3.79739,0,0,1-3.6304,1.0958l-.0599-.011a2.80071,2.80071,0,0,1-.6207-.2179,3.27439,3.27439,0,0,1-.9186-.5619c-9.3388-7.8671-21.5339-33.4952-21.5339-33.4952.2518-.0774.5036-.1548.7517-.2124a11.9231,11.9231,0,0,1,3.108-.3351l.01.0018a.87794.87794,0,0,1,.1634.0096,4.645,4.645,0,0,1,.5304.0359A3.00879,3.00879,0,0,1,113.7734,319.807Z"/><path class="cls-18" d="M164.1095,334.3093a28.12329,28.12329,0,0,0-8.4061,4.0673s-15.8426,6.5039-22.8003,7.7374c0,0-2.4483,3.3165.2098,8.5171a94.58664,94.58664,0,0,0,25.5239-8.8717,9.8174,9.8174,0,0,0,2.9038.5521,9.04279,9.04279,0,0,0,7.6463-4.1413c.1187-.1698.2226-.3255.3196-.4886a4.98424,4.98424,0,0,0-5.397-7.3723Z"/><path class="cls-17" d="M113.605,334.7475l13.3596-6.928-5.4877-9.1343a7.28508,7.28508,0,0,0-9.929-2.533v.0001a7.285,7.285,0,0,0-2.7245,9.7486Z"/><path class="cls-18" d="M129.744,305.8349h0a14.05269,14.05269,0,0,1-13.0217-15.013l1.212-17.0644,28.0347,1.9912-1.212,17.0645A14.05276,14.05276,0,0,1,129.744,305.8349Z"/><path class="cls-19" d="M112.388,275.8924l31.0983,2.2089a10.16912,10.16912,0,0,0,10.8811-8.5033c.3727-2.6454-.2913-5.7174-3.1221-8.9811,0,0-1.7015,6.3883-8.1346,5.9314l-29.9082-2.1243Z"/><path class="cls-18" d="M112.0286,292.4028l4.5584.3238.6476-9.1169-4.5585-.3238a4.56988,4.56988,0,0,0-4.8822,4.2347h0A4.56994,4.56994,0,0,0,112.0286,292.4028Z"/><rect class="cls-9" x="112.12069" y="276.07381" width="5.38117" height="7.35448" transform="translate(20.11103 -7.43207) rotate(4.06324)"/><path class="cls-16" d="M425.64319,350.5472l9.4463,5.2671s-.1453,7.2265-5.7193,9.3214l-9.4103-5.8086S425.63029,354.8257,425.64319,350.5472Z"/><path class="cls-15" d="M392.32179,346.0822a234.4211,234.4211,0,0,0,28.6477,16.1452s7.1084-4.3471,7.7536-12.3853c0,0-18.7909-11.4676-29.6263-16.2848a7.59058,7.59058,0,0,0-9.6857,2.9971q-.1548.273-.2886.5651C387.68059,340.2784,388.73929,343.6763,392.32179,346.0822Z"/><path class="cls-15" d="M428.80109,294.4879c.15291.2193-1.85909,13.8987-12.9435,16.0632,0,0-5.8707,22.8136-10.5058,32.4636a8.9285,8.9285,0,0,1-11.9404,4.2522q-.099-.04935-.198-.1004a8.92239,8.92239,0,0,1-4.43139-10.1459c1.92569-7.5742,5.58879-27.5924,8.62959-43.5334l31.3732,1.0216C428.79459,294.5069,428.79529,294.4796,428.80109,294.4879Z"/><path class="cls-7" d="M434.93489,355.7249l8.8465,4.922s-5.1066,12.2496-11.744,19.5604a3.17554,3.17554,0,0,1-4.9328-.2745c-1.829-2.5765-3.2402-6.5664,1.8167-9.8721a4.19582,4.19582,0,0,0,.4489-4.925S435.62419,361.1818,434.93489,355.7249Z"/><path class="cls-18" d="M410.18169,378.8634l-1.1614,10.7528s-6.7098,2.6874-10.8145-1.6263l1.674-10.9313S406.23759,380.5217,410.18169,378.8634Z"/><path class="cls-7" d="M409.04229,389.439l-1.0778,10.066s-13.2712.0809-22.5931-3.1757a3.17561,3.17561,0,0,1-1.673-4.6486c1.658-2.6897,4.7804-5.5465,9.798-2.1814a4.19588,4.19588,0,0,0,4.7094-1.5094S404.28749,392.204,409.04229,389.439Z"/><path class="cls-7" d="M420.01729,329.8854s-4.8731,27.8259-5.64729,49.6497c0,0-10.77581,4.9218-19.08051-1.3468,0,0,1.7857-21.3799,7.2914-51.0628Z"/><path class="cls-7" d="M427.47119,299.286s-3.603,11.8588-7.4539,30.5994a8.874,8.874,0,0,1-9.00329,7.1454q-.10922-.00465-.21921-.0107a8.86341,8.86341,0,0,1-8.2139-9.8946c.998-8.8251,1.90011-15.6323,3.6159-21.5726,0,0-6.568-5.1661-8.7852-12.0657l31.3732,1.0216A28.94,28.94,0,0,1,427.47119,299.286Z"/><path class="cls-16" d="M407.48209,251.539a12.47646,12.47646,0,0,0-11.2116,2.8388c-2.4731,2.2006-4.965,4.2839-7.32849,6.1851-.955.7669-1.88221,1.4979-2.78381,2.2027-1.5733,1.237-3.0755,2.3739-4.4529,3.4004-.3865.2873-.773.5746-1.1456.8438-.555.4099-1.0842.7937-1.58969,1.1614-1.00891.7255-1.89511,1.3506-2.63851,1.8792a3.95474,3.95474,0,0,0-1.6427,2.5059c-.025.1296-.0382.2512-.0533.3827-.0112.1116-.0224.2232-.0237.3367a4.20838,4.20838,0,0,0,.31721,1.623.03169.03169,0,0,0,.00609.0219,3.7974,3.7974,0,0,0,2.9805,2.3446l.0599.0116a2.80122,2.80122,0,0,0,.6573.0236,3.27745,3.27745,0,0,0,1.0603-.1881c11.565-3.9184,32.2684-23.332,32.2684-23.332-.2061-.1639-.4123-.3279-.6224-.4719a11.92258,11.92258,0,0,0-2.7715-1.4458l-.0099-.002a.88806.88806,0,0,0-.1558-.0507,4.647,4.647,0,0,0-.5068-.16A3.01684,3.01684,0,0,0,407.48209,251.539Z"/><path class="cls-5" d="M381.45789,264.7788s1.9695,7.8779,6.17111,10.3726c0,0,19.78419-10.3726,25.64789-21.0078,0,0-2.7453-5.7094-11.4175-4.6053C401.85939,249.5383,388.72309,258.0826,381.45789,264.7788Z"/><path class="cls-16" d="M355.32439,246.6804a28.12369,28.12369,0,0,1,6.3431,6.8533s12.3784,11.8349,18.4068,15.5214c0,0,1.0698,3.9811-3.30229,7.8537a94.58638,94.58638,0,0,1-20.52891-17.571,9.81954,9.81954,0,0,1-2.90509-.5452,9.0427,9.0427,0,0,1-5.60871-6.6452c-.0486-.2014-.0885-.3843-.1194-.5715a4.98421,4.98421,0,0,1,7.7145-4.8955Z"/><path class="cls-17" d="M407.107,247.2347a29.00588,29.00588,0,0,1,4.63609-.52v-.0001h.0011a29.0238,29.0238,0,0,1,4.6599.2229,13.14016,13.14016,0,0,1,11.4278,12.621l.961,34.9391-31.3813-1.0104-.903-32.9274A13.14008,13.14008,0,0,1,407.107,247.2347Z"/><path class="cls-18" d="M405.994,239.3835l.24409,7.6347a3.52025,3.52025,0,1,0,7.03691-.2249l-.244-7.6347Z"/><path class="cls-20" d="M405.994,239.3835l.18569,5.8089a13.47356,13.47356,0,0,0,3.4558.0557,4.95985,4.95985,0,0,0,3.5814-1.7725l-.18589-4.317Z"/><path class="cls-13" d="M389.75305,281.56723h18.11278a3.49527,3.49527,0,0,1,3.49527,3.49527v28.39025a3.49531,3.49531,0,0,1-3.49531,3.49531H389.753a3.49526,3.49526,0,0,1-3.49526-3.49526V285.06251A3.49528,3.49528,0,0,1,389.75305,281.56723Z" transform="translate(-65.2054 116.79029) rotate(-15.4172)"/><path class="cls-18" d="M421.95029,258.1366a12.47651,12.47651,0,0,0-3.203,11.1131c.6531,3.2454,1.1953,6.4477,1.6451,9.4475.18061,1.2114.3441,2.3807.4981,3.5148.2747,1.9823.4989,3.8528.6906,5.56.0532.4786.1063.9572.15091,1.4148.07409.6859.13859,1.3365.20109,1.9584.1177,1.2371.2106,2.3176.2921,3.2261a3.95481,3.95481,0,0,0,1.3355,2.6823c.09931.087.1976.1597.3036.239.09071.066.1814.132.2788.1903a4.20827,4.20827,0,0,0,1.5614.5446.03179.03179,0,0,0,.022.0058,3.79768,3.79768,0,0,0,3.5278-1.3913l.0401-.0458a2.79664,2.79664,0,0,0,.3519-.5557,3.27533,3.27533,0,0,0,.3723-1.0105c2.4489-11.9627-3.8738-39.6311-3.8738-39.6311-.2456.0953-.4912.1907-.7215.2994a11.92542,11.92542,0,0,0-2.6462,1.6641l-.0067.0076a.89131.89131,0,0,0-.1223.1089,4.648,4.648,0,0,0-.3938.357A2.99861,2.99861,0,0,0,421.95029,258.1366Z"/><path class="cls-17" d="M420.02879,286.8369s9.4535.6565,12.2107-1.9695c0,0-1.6689-28.7069-7.1403-32.8888,0,0-7.5651,2.9528-9.272,11.0933C415.82719,263.0719,419.63489,279.8781,420.02879,286.8369Z"/><path class="cls-18" d="M391.45049,300.7253a28.12181,28.12181,0,0,1,9.1169-2.0211s16.4623-4.7204,22.6859-8.0668c0,0,3.9773,1.084,5.1164,6.8124a94.58611,94.58611,0,0,1-25.526,8.8655,9.81554,9.81554,0,0,1-1.9359,2.2337,9.0425,9.0425,0,0,1-8.56679,1.4919c-.19841-.0596-.37651-.1174-.55371-.1852a4.98413,4.98413,0,0,1-.3368-9.1304Z"/><path class="cls-18" d="M406.47029,243.4557h0a14.05262,14.05262,0,0,0,14.0839-14.0213l.0382-17.1074-28.1053-.0626-.03809,17.1074A14.0526,14.0526,0,0,0,406.47029,243.4557Z"/><path class="cls-18" d="M425.11989,231.3541l-4.56989-.0102.02029-9.1399,4.57.0102A4.56991,4.56991,0,0,1,429.7,226.7943h0A4.57,4.57,0,0,1,425.11989,231.3541Z"/><path class="cls-19" d="M425.96789,214.8616l-31.1766-.0695a10.17432,10.17432,0,0,1-10.2075-8.9915c-.2621-2.7345.5758-5.8562,3.7469-9.0131,0,0,1.2301,6.4956,7.6794,6.5099l23.3017.052a6.68167,6.68167,0,0,1,6.6668,6.6967Z"/><rect class="cls-19" x="420.57848" y="214.85559" width="5.38121" height="7.35442" transform="translate(846.0498 438.00894) rotate(-179.87223)"/><circle class="cls-19" cx="396.50179" cy="205.8245" r="12.1451"/><path class="cls-19" d="M418.53209,214.845v10.9228a9.316,9.316,0,0,1-8.0106,9.224c-5.0807.7221-11.76649.8299-17.5697-1.856,0,0-1.0642,10.8536,13.1895,10.8536,0,0,14.40871.5305,14.40871-12.6455l.03669-16.4943Z"/><path class="cls-19" d="M301.49049,73.8666a13.55762,13.55762,0,0,1,2.0397-1.4672,17.284,17.284,0,0,1,24.4803,7.6997,65.27,65.27,0,0,1,5.4577,18.6974,38.35307,38.35307,0,0,0,6.9336,17.5333c2.4017,3.2635,5.35721,6.4452,8.6344,8.1993a18.75684,18.75684,0,0,1,9.6026,11.8316q.04005.16065.07821.3226a15.19655,15.19655,0,0,1-10.98621,18.0043,39.46464,39.46464,0,0,1-4.2889.9164,47.61415,47.61415,0,0,0-20.6678,8.16,28.04608,28.04608,0,0,1-16.1525,5.2069,17.01733,17.01733,0,0,1-16.8825-12.0049q-.1443-.5019-.2685-1.0312s-9.17959,1.2321-13.5751-6.8924a14.55251,14.55251,0,0,1-.976-11.0536,30.66388,30.66388,0,0,1,4.7101-9.7417,49.77186,49.77186,0,0,0,4.3848-6.5581,54.85708,54.85708,0,0,0,3.5408-7.9972,32.0684,32.0684,0,0,0,1.2837-15.73c-.78589-4.7449-1.6545-12.2805-.5588-18.1403,1.074-5.7436,7.4316-9.0733,12.5854-6.3201Q301.17914,73.669,301.49049,73.8666Z"/><path class="cls-15" d="M291.95229,160.1567a65.38706,65.38706,0,0,0-18.5515,12.6612,5.86955,5.86955,0,0,0-1.7789,3.6464q-.00584.0621-.0112.1252a5.91818,5.91818,0,0,0,8.7546,5.6457c9.2425-5.0641,32.243-18.223,42.9263-22.0785Z"/><path class="cls-15" d="M272.55879,180.317s15.7017,21.5415,27.8909,28.014c0,0,5.9776-1.5169,5.9324-7.6928,0,0-14.5195-12.6794-21.2096-21.8406A17.87082,17.87082,0,0,0,272.55879,180.317Z"/><path class="cls-16" d="M306.02479,201.6536a35.32061,35.32061,0,0,0,5.1586,4.2339s-1.60639,5.1353-4.49339,6.2948a22.75494,22.75494,0,0,1-5.24931-4.2935A8.25992,8.25992,0,0,0,306.02479,201.6536Z"/><path class="cls-15" d="M311.18339,205.8875s3.3342,2.0058,5.91661,3.8613a4.49641,4.49641,0,0,1,1.47059,5.5342,34.06121,34.06121,0,0,1-11.9419,14.0527,3.39212,3.39212,0,0,1-4.7524-1.0516l-.0461-.0752a3.39335,3.39335,0,0,1,.1772-3.7936,23.65843,23.65843,0,0,0,4.68261-12.233S309.62609,210.7856,311.18339,205.8875Z"/><path class="cls-7" d="M323.29159,160.1567s5.0109,14.4407-7.1277,18.7932c0,0-35.3253,16.8126-51.1443,29.3811a8.41938,8.41938,0,0,1-5.7425-7.8011s26.5455-25.8134,53.36191-40.3732Z"/><path class="cls-18" d="M264.31439,208.0622a35.3178,35.3178,0,0,0-5.4165,3.8985s-4.5507-2.8713-4.92989-5.9592a22.75532,22.75532,0,0,1,5.49739-3.9707A8.25974,8.25974,0,0,0,264.31439,208.0622Z"/><path class="cls-7" d="M258.89789,211.9607s-2.7947,2.7073-5.2512,4.7266a4.49627,4.49627,0,0,1-5.7262.0003,34.06256,34.06256,0,0,1-10.5151-15.15,3.39211,3.39211,0,0,1,2.2367-4.323l.0845-.0253a3.3935,3.3935,0,0,1,3.6209,1.1455,23.65963,23.65963,0,0,0,10.62051,7.6667S254.56389,209.1978,258.89789,211.9607Z"/><path class="cls-16" d="M290.36509,122.1735s-16.3074,23.9546-18.4268,36.2299a3.72009,3.72009,0,0,0,.1101,1.7474l.02.0638a4.07862,4.07862,0,0,0,7.5278.457,236.04018,236.04018,0,0,1,12.6466-22.5796,12.44612,12.44612,0,0,0-1.2999-15.3639Q290.66629,122.44415,290.36509,122.1735Z"/><path class="cls-2" d="M302.971,117.0973a29.01218,29.01218,0,0,1,4.65039-.3716v-.0001h.001v.0001a29.01368,29.01368,0,0,1,4.6505.3716,13.14009,13.14009,0,0,1,11.0187,12.9797v30.0797h-31.3393V130.077A13.14,13.14,0,0,1,302.971,117.0973Z"/><ellipse class="cls-2" cx="304.73147" cy="131.57022" rx="18.06122" ry="15.46707"/><path class="cls-18" d="M304.10009,108.0451v7.6386a3.5203,3.5203,0,1,0,7.0406,0v-7.6386Z"/><path class="cls-16" d="M304.10009,108.0451v5.8118a13.99183,13.99183,0,0,0,3.5236.4486,14.24109,14.24109,0,0,0,3.517-.4421v-5.8183Z"/><path class="cls-18" d="M293.57039,91.5573v6.4176a14.05265,14.05265,0,1,0,28.1053,0V92.7974s-17.46969-1.928-21.7692-10.7534C299.90649,82.044,299.56249,87.3664,293.57039,91.5573Z"/><path class="cls-18" d="M316.186,124.2973a12.47654,12.47654,0,0,0,4.91479,10.4692c2.63,2.0106,5.14821,4.0618,7.4635,6.0216.9342.7921,1.8278,1.5638,2.6909,2.3152,1.513,1.3099,2.9144,2.5691,4.1837,3.7267.3553.325.7107.6499,1.0458.9647.5078.4671.9851.9138,1.442,1.3404.9037.8529,1.6856,1.6043,2.3457,2.2339a3.95445,3.95445,0,0,0,2.7721,1.1373c.132,0,.2539-.0101.3859-.0203.1117-.0101.2234-.0203.3351-.0406a4.20852,4.20852,0,0,0,1.5333-.6194.03125.03125,0,0,0,.0203-.0102,3.79732,3.79732,0,0,0,1.7364-3.3713v-.0609a2.79547,2.79547,0,0,0-.10149-.6498,3.2748,3.2748,0,0,0-.38591-1.0054c-6.0418-10.6113-29.0315-27.2545-29.0315-27.2545-.1219.2336-.2437.4672-.3453.7007a11.92577,11.92577,0,0,0-.8936,2.9956v.0101a.8851.8851,0,0,0-.0203.1625,4.65025,4.65025,0,0,0-.0609.528A3.01255,3.01255,0,0,0,316.186,124.2973Z"/><path class="cls-18" d="M307.54369,150.2784a28.12414,28.12414,0,0,1,9.3092-.7371s16.9579-2.3915,23.5855-4.8423c0,0,3.7884,1.6251,4.122,7.4561a94.58421,94.58421,0,0,1-26.5089,5.2395,9.821,9.821,0,0,1-2.2269,1.9436,9.04282,9.04282,0,0,1-8.691.2893c-.1882-.0866-.35659-.1685-.5227-.2602a4.98419,4.98419,0,0,1,.9328-9.0889Z"/><path class="cls-21" d="M315.36689,160.5409h-39.609a1.88066,1.88066,0,0,0-1.8806,1.8807h0a1.88063,1.88063,0,0,0,1.8806,1.8806h39.609a1.88063,1.88063,0,0,0,1.8806-1.8806h0A1.88066,1.88066,0,0,0,315.36689,160.5409Z"/><path class="cls-13" d="M264.41449,146.5727l4.8407,15.9087a2.56847,2.56847,0,0,0,2.4573,1.8208H304.303l-5.81821-19.1212a2.39055,2.39055,0,0,0-2.2869-1.6945h-29.4965A2.39039,2.39039,0,0,0,264.41449,146.5727Z"/><path class="cls-16" d="M271.58819,162.9475c0,2.9578,3.1407,5.3556,7.015,5.3556s7.015-2.3978,7.015-5.3556-3.1407-5.3555-7.015-5.3555S271.58819,159.9897,271.58819,162.9475Z"/></g></g></svg>